<?xml version="1.0" encoding="UTF-8" standalone="no"?>
<!-- Created with Inkscape (http://www.inkscape.org/) -->

<svg
   xmlns:dc="http://purl.org/dc/elements/1.1/"
   xmlns:cc="http://creativecommons.org/ns#"
   xmlns:rdf="http://www.w3.org/1999/02/22-rdf-syntax-ns#"
   xmlns:svg="http://www.w3.org/2000/svg"
   xmlns="http://www.w3.org/2000/svg"
   xmlns:sodipodi="http://sodipodi.sourceforge.net/DTD/sodipodi-0.dtd"
   xmlns:inkscape="http://www.inkscape.org/namespaces/inkscape"
   width="4000"
   height="500"
   viewBox="0 0 4000 500"
   id="svg2"
   version="1.1"
   inkscape:version="0.91 r13725"
   sodipodi:docname="bc-banner-bottom.svg">
  <defs
     id="defs4" />
  <sodipodi:namedview
     id="base"
     pagecolor="#ffffff"
     bordercolor="#666666"
     borderopacity="1.0"
     inkscape:pageopacity="0.0"
     inkscape:pageshadow="2"
     inkscape:zoom="0.175"
     inkscape:cx="1838.8366"
     inkscape:cy="1149.6693"
     inkscape:document-units="px"
     inkscape:current-layer="layer3"
     showgrid="false"
     units="px"
     inkscape:window-width="1366"
     inkscape:window-height="715"
     inkscape:window-x="-8"
     inkscape:window-y="-8"
     inkscape:window-maximized="1" />
  <metadata
     id="metadata7">
    <rdf:RDF>
      <cc:Work
         rdf:about="">
        <dc:format>image/svg+xml</dc:format>
        <dc:type
           rdf:resource="http://purl.org/dc/dcmitype/StillImage" />
        <dc:title></dc:title>
      </cc:Work>
    </rdf:RDF>
  </metadata>
  <g
     inkscape:label="Layer 1"
     inkscape:groupmode="layer"
     id="layer1"
     transform="translate(0,-552.36217)">
    <g
       id="g4137"
       transform="translate(1005.0195,581.32817)">
	<path
   id="path4139"
   d="m 52.832,61.505 -36.895,0 0,-11.461 86.349,0 0,11.461 -36.895,0 0,98.438 -12.56,0 0,-98.438 z"
   inkscape:connector-curvature="0" />

	<path
   id="path4141"
   d="m 125.365,50.044 12.403,0 0,48.826 63.427,0 0,-48.826 12.403,0 0,109.898 -12.403,0 0,-49.454 -63.427,0 0,49.454 -12.403,0 0,-109.898 z"
   inkscape:connector-curvature="0" />

	<path
   id="path4143"
   d="m 244.528,50.044 79.44,0 0,11.304 -67.038,0 0,37.522 59.973,0 0,11.304 -59.973,0 0,38.464 67.823,0 0,11.304 -80.226,0 0,-109.898 z"
   inkscape:connector-curvature="0" />

	<path
   id="path4145"
   d="m 396.502,50.044 46.785,0 c 12.56,0 22.451,3.611 28.73,9.734 4.553,4.71 7.065,10.519 7.065,17.584 l 0,0.314 c 0,14.287 -8.792,21.666 -17.427,25.434 13.031,3.925 23.55,11.46 23.55,26.532 l 0,0.314 c 0,18.839 -15.857,29.986 -39.877,29.986 l -48.826,0 0,-109.898 z m 70.021,29.045 c 0,-10.833 -8.635,-17.897 -24.335,-17.897 l -33.44,0 0,37.836 32.499,0 c 14.915,0 25.277,-6.751 25.277,-19.625 l 0,-0.314 z m -23.079,30.929 -34.696,0 0,38.778 36.895,0 c 16.642,0 27.003,-7.379 27.003,-19.625 l 0,-0.314 c 0,-11.932 -10.048,-18.839 -29.202,-18.839 z"
   inkscape:connector-curvature="0" />

	<path
   id="path4147"
   d="m 509.696,50.044 47.256,0 c 13.501,0 24.334,4.082 31.242,10.99 5.338,5.338 8.478,13.031 8.478,21.666 l 0,0.314 c 0,18.211 -12.56,28.887 -29.83,32.027 l 33.754,44.901 -15.229,0 -31.871,-42.704 -31.399,0 0,42.704 -12.403,0 0,-109.898 z m 46.158,56.049 c 16.485,0 28.259,-8.478 28.259,-22.608 l 0,-0.314 c 0,-13.501 -10.362,-21.666 -28.103,-21.666 l -33.911,0 0,44.587 33.755,0 z"
   inkscape:connector-curvature="0" />

	<path
   id="path4149"
   d="m 623.049,50.044 79.44,0 0,11.304 -67.038,0 0,37.522 59.973,0 0,11.304 -59.973,0 0,38.464 67.823,0 0,11.304 -80.226,0 0,-109.898 z"
   inkscape:connector-curvature="0" />

	<path
   id="path4151"
   d="m 728.082,50.044 38.15,0 c 34.54,0 58.403,23.707 58.403,54.635 l 0,0.314 c 0,30.929 -23.863,54.949 -58.403,54.949 l -38.15,0 0,-109.898 z m 12.403,11.461 0,86.977 25.748,0 c 27.789,0 45.529,-18.84 45.529,-43.174 l 0,-0.314 c 0,-24.334 -17.741,-43.488 -45.529,-43.488 l -25.748,0 z"
   inkscape:connector-curvature="0" />

	<path
   id="path4153"
   d="m 850.699,50.044 79.44,0 0,11.304 -67.038,0 0,37.522 59.973,0 0,11.304 -59.973,0 0,38.464 67.823,0 0,11.304 -80.226,0 0,-109.898 z"
   inkscape:connector-curvature="0" />

	<path
   id="path4155"
   d="m 948.509,143.929 7.693,-9.106 c 11.461,10.362 22.451,15.543 37.68,15.543 14.757,0 24.491,-7.85 24.491,-18.683 l 0,-0.314 c 0,-10.205 -5.494,-16.014 -28.573,-20.88 -25.277,-5.495 -36.895,-13.659 -36.895,-31.714 l 0,-0.314 c 0,-17.27 15.229,-29.986 36.109,-29.986 16.015,0 27.476,4.553 38.622,13.502 l -7.223,9.577 c -10.205,-8.321 -20.41,-11.932 -31.713,-11.932 -14.287,0 -23.393,7.85 -23.393,17.741 l 0,0.314 c 0,10.362 5.652,16.17 29.829,21.352 24.492,5.338 35.796,14.287 35.796,31.085 l 0,0.314 c 0,18.84 -15.701,31.085 -37.523,31.085 -17.425,0 -31.712,-5.809 -44.9,-17.584 z"
   inkscape:connector-curvature="0" />

	<path
   id="path4157"
   d="m 1056.055,50.044 79.439,0 0,11.304 -67.037,0 0,37.522 59.973,0 0,11.304 -59.973,0 0,38.464 67.822,0 0,11.304 -80.225,0 0,-109.898 z"
   inkscape:connector-curvature="0" />

	<path
   id="path4159"
   d="m 1161.088,50.044 11.617,0 69.236,88.076 0,-88.076 12.088,0 0,109.898 -9.891,0 -70.963,-90.117 0,90.117 -12.088,0 0,-109.898 z"
   inkscape:connector-curvature="0" />

	<path
   id="path4161"
   d="m 1327.033,105.308 0,-0.314 c 0,-31.085 23.234,-56.833 55.576,-56.833 19.939,0 31.871,7.065 42.861,17.427 l -8.479,9.106 c -9.262,-8.792 -19.625,-15.072 -34.539,-15.072 -24.334,0 -42.547,19.781 -42.547,45.058 l 0,0.314 c 0,25.434 18.369,45.373 42.547,45.373 15.072,0 24.963,-5.809 35.48,-15.857 l 8.164,8.007 c -11.461,11.618 -24.02,19.311 -43.959,19.311 -31.711,-0.001 -55.104,-24.964 -55.104,-56.52 z"
   inkscape:connector-curvature="0" />

	<path
   id="path4163"
   d="m 1447.607,50.044 79.439,0 0,11.304 -67.037,0 0,37.522 59.973,0 0,11.304 -59.973,0 0,38.464 67.822,0 0,11.304 -80.225,0 0,-109.898 z"
   inkscape:connector-curvature="0" />

	<path
   id="path4165"
   d="m 1552.641,50.044 11.617,0 69.236,88.076 0,-88.076 12.088,0 0,109.898 -9.891,0 -70.963,-90.117 0,90.117 -12.088,0 0,-109.898 z"
   inkscape:connector-curvature="0" />

	<path
   id="path4167"
   d="m 1705.557,61.505 -36.895,0 0,-11.461 86.35,0 0,11.461 -36.895,0 0,98.438 -12.561,0 0,-98.438 z"
   inkscape:connector-curvature="0" />

	<path
   id="path4169"
   d="m 1778.09,50.044 79.441,0 0,11.304 -67.039,0 0,37.522 59.975,0 0,11.304 -59.975,0 0,38.464 67.824,0 0,11.304 -80.227,0 0,-109.898 z"
   inkscape:connector-curvature="0" />

	<path
   id="path4171"
   d="m 1883.123,50.044 47.256,0 c 13.502,0 24.334,4.082 31.242,10.99 5.338,5.338 8.479,13.031 8.479,21.666 l 0,0.314 c 0,18.211 -12.561,28.887 -29.83,32.027 l 33.754,44.901 -15.229,0 -31.871,-42.704 -31.398,0 0,42.704 -12.402,0 0,-109.898 z m 46.156,56.049 c 16.484,0 28.26,-8.478 28.26,-22.608 l 0,-0.314 c 0,-13.501 -10.361,-21.666 -28.102,-21.666 l -33.912,0 0,44.587 33.754,0 z"
   inkscape:connector-curvature="0" />

	<path
   id="path4173"
   d="m 304.328,232.79 -6.887,0 0,-6.499 6.887,0 0,-4.365 c 0,-5.723 1.552,-10.088 4.365,-12.901 2.522,-2.522 6.208,-3.88 10.767,-3.88 3.492,0 5.82,0.388 8.245,1.261 l 0,6.499 c -2.716,-0.776 -4.753,-1.261 -7.275,-1.261 -5.82,0 -8.73,3.492 -8.73,10.67 l 0,4.074 15.908,0 0,6.402 -15.811,0 0,43.553 -7.469,0 0,-43.553 z"
   inkscape:connector-curvature="0" />

	<path
   id="path4175"
   d="m 333.04,251.511 0,-0.194 c 0,-14.162 11.058,-26.189 26.19,-26.189 15.035,0 26.093,11.834 26.093,25.996 l 0,0.193 c 0,14.162 -11.155,26.19 -26.287,26.19 -15.035,0 -25.996,-11.834 -25.996,-25.996 z m 44.62,0 0,-0.194 c 0,-10.767 -8.051,-19.594 -18.624,-19.594 -10.864,0 -18.333,8.827 -18.333,19.4 l 0,0.193 c 0,10.768 7.954,19.498 18.527,19.498 10.864,0 18.43,-8.73 18.43,-19.303 z"
   inkscape:connector-curvature="0" />

	<path
   id="path4177"
   d="m 398.805,226.194 7.469,0 0,13.095 c 3.686,-8.342 10.961,-14.356 20.467,-13.968 l 0,8.051 -0.582,0 c -10.961,0 -19.885,7.857 -19.885,22.99 l 0,19.981 -7.469,0 0,-50.149 z"
   inkscape:connector-curvature="0" />

	<path
   id="path4179"
   d="m 469.129,208.443 7.663,0 0,67.9 -7.663,0 0,-67.9 z"
   inkscape:connector-curvature="0" />

	<path
   id="path4181"
   d="m 495.414,226.194 7.469,0 0,8.73 c 3.298,-5.432 8.536,-9.797 17.169,-9.797 12.125,0 19.206,8.148 19.206,20.079 l 0,31.137 -7.469,0 0,-29.294 c 0,-9.312 -5.044,-15.132 -13.871,-15.132 -8.633,0 -15.035,6.305 -15.035,15.714 l 0,28.712 -7.469,0 0,-50.149 z"
   inkscape:connector-curvature="0" />

	<path
   id="path4183"
   d="m 557.785,263.054 0,-30.264 -6.984,0 0,-6.596 6.984,0 0,-15.132 7.469,0 0,15.132 15.908,0 0,6.596 -15.908,0 0,29.294 c 0,6.111 3.395,8.342 8.439,8.342 2.522,0 4.656,-0.484 7.275,-1.746 l 0,6.402 c -2.619,1.357 -5.432,2.134 -9.021,2.134 -8.051,0 -14.162,-3.978 -14.162,-14.162 z"
   inkscape:connector-curvature="0" />

	<path
   id="path4185"
   d="m 589.794,251.414 0,-0.194 c 0,-14.453 10.185,-26.093 24.056,-26.093 14.841,0 23.377,11.834 23.377,26.48 0,0.971 0,1.553 -0.097,2.426 l -39.77,0 c 1.067,10.863 8.73,16.975 17.654,16.975 6.887,0 11.737,-2.813 15.811,-7.081 l 4.656,4.171 c -5.044,5.626 -11.155,9.409 -20.661,9.409 -13.774,0 -25.026,-10.573 -25.026,-26.093 z m 39.867,-2.91 c -0.776,-9.118 -6.014,-17.072 -16.005,-17.072 -8.73,0 -15.326,7.275 -16.296,17.072 l 32.301,0 z"
   inkscape:connector-curvature="0" />

	<path
   id="path4187"
   d="m 650.321,226.194 7.469,0 0,13.095 c 3.686,-8.342 10.961,-14.356 20.467,-13.968 l 0,8.051 -0.582,0 c -10.961,0 -19.885,7.857 -19.885,22.99 l 0,19.981 -7.469,0 0,-50.149 z"
   inkscape:connector-curvature="0" />

	<path
   id="path4189"
   d="m 684.66,251.414 0,-0.194 c 0,-16.393 11.931,-26.093 23.959,-26.093 9.312,0 15.326,5.044 19.206,10.67 l 0,-30.264 7.469,0 0,70.81 -7.469,0 0,-10.088 c -4.074,6.014 -9.991,11.155 -19.206,11.155 -12.029,0 -23.959,-9.506 -23.959,-25.996 z m 43.456,-0.098 0,-0.193 c 0,-11.543 -8.827,-19.303 -18.139,-19.303 -9.7,0 -17.654,7.178 -17.654,19.303 l 0,0.193 c 0,11.834 8.245,19.4 17.654,19.4 9.312,10e-4 18.139,-7.857 18.139,-19.4 z"
   inkscape:connector-curvature="0" />

	<path
   id="path4191"
   d="m 752.17,206.988 8.536,0 0,8.245 -8.536,0 0,-8.245 z m 0.485,19.206 7.469,0 0,50.149 -7.469,0 0,-50.149 z"
   inkscape:connector-curvature="0" />

	<path
   id="path4193"
   d="m 773.315,269.941 3.783,-5.336 c 5.432,4.074 11.446,6.402 17.363,6.402 6.014,0 10.379,-3.104 10.379,-7.954 l 0,-0.194 c 0,-5.043 -5.917,-6.983 -12.513,-8.826 -7.857,-2.231 -16.587,-4.947 -16.587,-14.163 l 0,-0.194 c 0,-8.633 7.178,-14.356 17.072,-14.356 6.111,0 12.901,2.134 18.042,5.529 l -3.395,5.626 c -4.656,-3.007 -9.991,-4.85 -14.841,-4.85 -5.917,0 -9.7,3.104 -9.7,7.275 l 0,0.194 c 0,4.753 6.208,6.596 12.901,8.633 7.76,2.328 16.102,5.335 16.102,14.356 l 0,0.193 c 0,9.506 -7.857,15.035 -17.848,15.035 -7.178,0.002 -15.132,-2.811 -20.758,-7.37 z"
   inkscape:connector-curvature="0" />

	<path
   id="path4195"
   d="m 822.687,251.511 0,-0.194 c 0,-14.162 11.058,-26.189 25.705,-26.189 9.506,0 15.423,3.977 20.079,8.924 l -4.947,5.238 c -3.977,-4.171 -8.439,-7.566 -15.229,-7.566 -10.185,0 -17.945,8.633 -17.945,19.4 l 0,0.193 c 0,10.864 7.954,19.498 18.43,19.498 6.402,0 11.349,-3.201 15.326,-7.47 l 4.753,4.462 c -5.044,5.626 -11.058,9.7 -20.467,9.7 -14.647,0 -25.705,-11.931 -25.705,-25.996 z"
   inkscape:connector-curvature="0" />

	<path
   id="path4197"
   d="m 881.372,206.988 8.536,0 0,8.245 -8.536,0 0,-8.245 z m 0.484,19.206 7.469,0 0,50.149 -7.469,0 0,-50.149 z"
   inkscape:connector-curvature="0" />

	<path
   id="path4199"
   d="m 906.687,226.194 7.469,0 0,10.088 c 4.074,-6.014 9.991,-11.155 19.206,-11.155 12.028,0 23.959,9.506 23.959,25.996 l 0,0.193 c 0,16.394 -11.834,26.094 -23.959,26.094 -9.312,0 -15.326,-5.045 -19.206,-10.67 l 0,25.122 -7.469,0 0,-65.668 z m 42.971,25.22 0,-0.194 c 0,-11.834 -8.148,-19.4 -17.654,-19.4 -9.312,0 -18.139,7.857 -18.139,19.303 l 0,0.193 c 0,11.641 8.827,19.4 18.139,19.4 9.7,10e-4 17.654,-7.177 17.654,-19.302 z"
   inkscape:connector-curvature="0" />

	<path
   id="path4201"
   d="m 971.773,205.533 7.469,0 0,70.81 -7.469,0 0,-70.81 z"
   inkscape:connector-curvature="0" />

	<path
   id="path4203"
   d="m 996.797,206.988 8.537,0 0,8.245 -8.537,0 0,-8.245 z m 0.486,19.206 7.469,0 0,50.149 -7.469,0 0,-50.149 z"
   inkscape:connector-curvature="0" />

	<path
   id="path4205"
   d="m 1022.113,226.194 7.469,0 0,8.73 c 3.299,-5.432 8.535,-9.797 17.17,-9.797 12.125,0 19.205,8.148 19.205,20.079 l 0,31.137 -7.469,0 0,-29.294 c 0,-9.312 -5.045,-15.132 -13.871,-15.132 -8.633,0 -15.035,6.305 -15.035,15.714 l 0,28.712 -7.469,0 0,-50.149 z"
   inkscape:connector-curvature="0" />

	<path
   id="path4207"
   d="m 1078.082,261.793 0,-0.194 c 0,-10.573 8.73,-16.199 21.438,-16.199 6.402,0 10.961,0.873 15.422,2.134 l 0,-1.746 c 0,-9.021 -5.529,-13.677 -14.938,-13.677 -5.916,0 -10.572,1.552 -15.229,3.686 l -2.23,-6.111 c 5.527,-2.522 10.961,-4.171 18.234,-4.171 7.082,0 12.514,1.843 16.199,5.529 3.395,3.395 5.141,8.245 5.141,14.647 l 0,30.652 -7.178,0 0,-7.565 c -3.492,4.559 -9.311,8.633 -18.139,8.633 -9.312,-10e-4 -18.72,-5.337 -18.72,-15.618 z m 36.957,-3.881 0,-4.85 c -3.686,-1.066 -8.633,-2.134 -14.744,-2.134 -9.408,0 -14.646,4.074 -14.646,10.379 l 0,0.194 c 0,6.305 5.82,9.99 12.609,9.99 9.215,0.001 16.781,-5.624 16.781,-13.579 z"
   inkscape:connector-curvature="0" />

	<path
   id="path4209"
   d="m 1138.027,226.194 7.469,0 0,13.095 c 3.686,-8.342 10.961,-14.356 20.467,-13.968 l 0,8.051 -0.582,0 c -10.961,0 -19.885,7.857 -19.885,22.99 l 0,19.981 -7.469,0 0,-50.149 z"
   inkscape:connector-curvature="0" />

	<path
   id="path4211"
   d="m 1214.852,226.194 7.953,0 -21.049,51.798 c -4.268,10.379 -9.117,14.161 -16.684,14.161 -4.172,0 -7.275,-0.872 -10.67,-2.521 l 2.521,-5.917 c 2.426,1.261 4.656,1.843 7.857,1.843 4.463,0 7.275,-2.328 10.281,-9.409 l -22.795,-49.955 8.246,0 18.236,41.807 16.104,-41.807 z"
   inkscape:connector-curvature="0" />

	<path
   id="path4213"
   d="m 1264.998,208.443 29.197,0 c 8.342,0 15.035,2.522 19.303,6.79 3.299,3.298 5.238,8.051 5.238,13.386 l 0,0.194 c 0,11.252 -7.76,17.848 -18.43,19.788 l 20.854,27.742 -9.408,0 -19.691,-26.384 -19.4,0 0,26.384 -7.662,0 0,-67.9 z m 28.518,34.629 c 10.186,0 17.461,-5.238 17.461,-13.968 l 0,-0.194 c 0,-8.342 -6.402,-13.386 -17.363,-13.386 l -20.953,0 0,27.548 20.855,0 z"
   inkscape:connector-curvature="0" />

	<path
   id="path4215"
   d="m 1329.793,251.414 0,-0.194 c 0,-14.453 10.186,-26.093 24.057,-26.093 14.84,0 23.377,11.834 23.377,26.48 0,0.971 0,1.553 -0.098,2.426 l -39.77,0 c 1.066,10.863 8.73,16.975 17.654,16.975 6.887,0 11.736,-2.813 15.811,-7.081 l 4.656,4.171 c -5.045,5.626 -11.154,9.409 -20.662,9.409 -13.773,0 -25.025,-10.573 -25.025,-26.093 z m 39.867,-2.91 c -0.775,-9.118 -6.014,-17.072 -16.006,-17.072 -8.729,0 -15.324,7.275 -16.295,17.072 l 32.301,0 z"
   inkscape:connector-curvature="0" />

	<path
   id="path4217"
   d="m 1386.15,269.941 3.783,-5.336 c 5.432,4.074 11.445,6.402 17.363,6.402 6.014,0 10.379,-3.104 10.379,-7.954 l 0,-0.194 c 0,-5.043 -5.918,-6.983 -12.514,-8.826 -7.857,-2.231 -16.588,-4.947 -16.588,-14.163 l 0,-0.194 c 0,-8.633 7.18,-14.356 17.072,-14.356 6.111,0 12.902,2.134 18.043,5.529 l -3.395,5.626 c -4.656,-3.007 -9.992,-4.85 -14.842,-4.85 -5.918,0 -9.699,3.104 -9.699,7.275 l 0,0.194 c 0,4.753 6.207,6.596 12.9,8.633 7.76,2.328 16.102,5.335 16.102,14.356 l 0,0.193 c 0,9.506 -7.857,15.035 -17.848,15.035 -7.176,0.002 -15.131,-2.811 -20.756,-7.37 z"
   inkscape:connector-curvature="0" />

	<path
   id="path4219"
   d="m 1435.521,251.414 0,-0.194 c 0,-14.453 10.186,-26.093 24.057,-26.093 14.84,0 23.377,11.834 23.377,26.48 0,0.971 0,1.553 -0.098,2.426 l -39.77,0 c 1.066,10.863 8.73,16.975 17.654,16.975 6.887,0 11.736,-2.813 15.811,-7.081 l 4.656,4.171 c -5.045,5.626 -11.154,9.409 -20.662,9.409 -13.773,0 -25.025,-10.573 -25.025,-26.093 z m 39.868,-2.91 c -0.775,-9.118 -6.014,-17.072 -16.006,-17.072 -8.729,0 -15.324,7.275 -16.295,17.072 l 32.301,0 z"
   inkscape:connector-curvature="0" />

	<path
   id="path4221"
   d="m 1492.266,261.793 0,-0.194 c 0,-10.573 8.73,-16.199 21.438,-16.199 6.402,0 10.961,0.873 15.424,2.134 l 0,-1.746 c 0,-9.021 -5.529,-13.677 -14.938,-13.677 -5.918,0 -10.574,1.552 -15.23,3.686 l -2.23,-6.111 c 5.529,-2.522 10.961,-4.171 18.236,-4.171 7.08,0 12.514,1.843 16.199,5.529 3.395,3.395 5.141,8.245 5.141,14.647 l 0,30.652 -7.178,0 0,-7.565 c -3.492,4.559 -9.313,8.633 -18.139,8.633 -9.313,-10e-4 -18.723,-5.337 -18.723,-15.618 z m 36.957,-3.881 0,-4.85 c -3.686,-1.066 -8.633,-2.134 -14.742,-2.134 -9.41,0 -14.648,4.074 -14.648,10.379 l 0,0.194 c 0,6.305 5.82,9.99 12.611,9.99 9.214,0.001 16.779,-5.624 16.779,-13.579 z"
   inkscape:connector-curvature="0" />

	<path
   id="path4223"
   d="m 1552.211,226.194 7.469,0 0,13.095 c 3.688,-8.342 10.963,-14.356 20.469,-13.968 l 0,8.051 -0.582,0 c -10.961,0 -19.887,7.857 -19.887,22.99 l 0,19.981 -7.469,0 0,-50.149 z"
   inkscape:connector-curvature="0" />

	<path
   id="path4225"
   d="m 1586.26,251.511 0,-0.194 c 0,-14.162 11.059,-26.189 25.705,-26.189 9.506,0 15.424,3.977 20.08,8.924 l -4.947,5.238 c -3.979,-4.171 -8.439,-7.566 -15.23,-7.566 -10.184,0 -17.943,8.633 -17.943,19.4 l 0,0.193 c 0,10.864 7.953,19.498 18.43,19.498 6.402,0 11.348,-3.201 15.326,-7.47 l 4.752,4.462 c -5.043,5.626 -11.059,9.7 -20.467,9.7 -14.648,0 -25.706,-11.931 -25.706,-25.996 z"
   inkscape:connector-curvature="0" />

	<path
   id="path4227"
   d="m 1644.75,205.533 7.469,0 0,29.391 c 3.299,-5.432 8.537,-9.797 17.17,-9.797 12.125,0 19.207,8.148 19.207,20.079 l 0,31.137 -7.471,0 0,-29.294 c 0,-9.312 -5.043,-15.132 -13.871,-15.132 -8.633,0 -15.035,6.305 -15.035,15.714 l 0,28.712 -7.469,0 0,-70.81 z"
   inkscape:connector-curvature="0" />

	<path
   id="path4229"
   d="m 414.758,378.193 0,-0.194 c 0,-10.573 8.73,-16.199 21.437,-16.199 6.402,0 10.961,0.873 15.423,2.135 l 0,-1.746 c 0,-9.021 -5.529,-13.678 -14.938,-13.678 -5.917,0 -10.573,1.553 -15.229,3.687 l -2.231,-6.111 c 5.529,-2.521 10.961,-4.171 18.236,-4.171 7.081,0 12.513,1.843 16.199,5.529 3.395,3.395 5.141,8.245 5.141,14.646 l 0,30.652 -7.178,0 0,-7.566 c -3.492,4.56 -9.312,8.634 -18.139,8.634 -9.312,0 -18.721,-5.335 -18.721,-15.618 z m 36.957,-3.88 0,-4.851 c -3.686,-1.066 -8.633,-2.134 -14.744,-2.134 -9.409,0 -14.647,4.074 -14.647,10.379 l 0,0.194 c 0,6.305 5.82,9.991 12.61,9.991 9.215,0.002 16.781,-5.624 16.781,-13.579 z"
   inkscape:connector-curvature="0" />

	<path
   id="path4231"
   d="m 474.703,342.594 7.469,0 0,8.73 c 3.298,-5.432 8.536,-9.797 17.169,-9.797 12.125,0 19.206,8.147 19.206,20.079 l 0,31.137 -7.469,0 0,-29.294 c 0,-9.313 -5.044,-15.132 -13.871,-15.132 -8.633,0 -15.035,6.305 -15.035,15.714 l 0,28.712 -7.469,0 0,-50.149 z"
   inkscape:connector-curvature="0" />

	<path
   id="path4233"
   d="m 531.545,367.814 0,-0.194 c 0,-16.393 11.931,-26.093 23.959,-26.093 9.312,0 15.326,5.044 19.206,10.67 l 0,-30.265 7.469,0 0,70.811 -7.469,0 0,-10.088 c -4.074,6.014 -9.991,11.155 -19.206,11.155 -12.028,10e-4 -23.959,-9.506 -23.959,-25.996 z m 43.456,-0.097 0,-0.193 c 0,-11.543 -8.827,-19.304 -18.139,-19.304 -9.7,0 -17.654,7.179 -17.654,19.304 l 0,0.193 c 0,11.834 8.245,19.4 17.654,19.4 9.312,0 18.139,-7.857 18.139,-19.4 z"
   inkscape:connector-curvature="0" />

	<path
   id="path4235"
   d="m 626.215,358.987 0,-0.194 c 0,-18.624 13.677,-35.114 34.047,-35.114 11.446,0 18.527,3.299 25.317,9.021 l -4.947,5.82 c -5.238,-4.56 -11.058,-7.761 -20.661,-7.761 -15.035,0 -25.802,12.707 -25.802,27.839 l 0,0.194 c 0,16.199 10.379,28.228 26.869,28.228 7.76,0 14.938,-3.008 19.594,-6.79 l 0,-16.878 -20.661,0 0,-6.888 28.033,0 0,27.063 c -6.305,5.626 -15.811,10.379 -27.257,10.379 -21.34,10e-4 -34.532,-15.519 -34.532,-34.919 z"
   inkscape:connector-curvature="0" />

	<path
   id="path4237"
   d="m 704.008,342.594 7.469,0 0,13.096 c 3.686,-8.343 10.961,-14.356 20.467,-13.969 l 0,8.052 -0.582,0 c -10.961,0 -19.885,7.856 -19.885,22.988 l 0,19.982 -7.469,0 0,-50.149 z"
   inkscape:connector-curvature="0" />

	<path
   id="path4239"
   d="m 737.086,378.193 0,-0.194 c 0,-10.573 8.73,-16.199 21.437,-16.199 6.402,0 10.961,0.873 15.423,2.135 l 0,-1.746 c 0,-9.021 -5.529,-13.678 -14.938,-13.678 -5.917,0 -10.573,1.553 -15.229,3.687 l -2.231,-6.111 c 5.529,-2.521 10.961,-4.171 18.236,-4.171 7.081,0 12.513,1.843 16.199,5.529 3.395,3.395 5.141,8.245 5.141,14.646 l 0,30.652 -7.178,0 0,-7.566 c -3.492,4.56 -9.312,8.634 -18.139,8.634 -9.312,0 -18.721,-5.335 -18.721,-15.618 z m 36.957,-3.88 0,-4.851 c -3.686,-1.066 -8.633,-2.134 -14.744,-2.134 -9.409,0 -14.647,4.074 -14.647,10.379 l 0,0.194 c 0,6.305 5.82,9.991 12.61,9.991 9.215,0.002 16.781,-5.624 16.781,-13.579 z"
   inkscape:connector-curvature="0" />

	<path
   id="path4241"
   d="m 794.122,367.814 0,-0.194 c 0,-16.393 11.931,-26.093 23.959,-26.093 9.312,0 15.326,5.044 19.206,10.67 l 0,-30.265 7.469,0 0,70.811 -7.469,0 0,-10.088 c -4.074,6.014 -9.991,11.155 -19.206,11.155 -12.029,10e-4 -23.959,-9.506 -23.959,-25.996 z m 43.456,-0.097 0,-0.193 c 0,-11.543 -8.827,-19.304 -18.139,-19.304 -9.7,0 -17.654,7.179 -17.654,19.304 l 0,0.193 c 0,11.834 8.245,19.4 17.654,19.4 9.311,0 18.139,-7.857 18.139,-19.4 z"
   inkscape:connector-curvature="0" />

	<path
   id="path4243"
   d="m 860.662,373.731 0,-31.138 7.469,0 0,29.294 c 0,9.313 5.044,15.133 13.871,15.133 8.536,0 15.035,-6.306 15.035,-15.715 l 0,-28.712 7.372,0 0,50.149 -7.372,0 0,-8.73 c -3.395,5.433 -8.536,9.798 -17.169,9.798 -12.125,10e-4 -19.206,-8.148 -19.206,-20.079 z"
   inkscape:connector-curvature="0" />

	<path
   id="path4245"
   d="m 917.407,378.193 0,-0.194 c 0,-10.573 8.73,-16.199 21.437,-16.199 6.402,0 10.961,0.873 15.423,2.135 l 0,-1.746 c 0,-9.021 -5.529,-13.678 -14.938,-13.678 -5.917,0 -10.573,1.553 -15.229,3.687 l -2.231,-6.111 c 5.529,-2.521 10.961,-4.171 18.236,-4.171 7.081,0 12.513,1.843 16.199,5.529 3.395,3.395 5.141,8.245 5.141,14.646 l 0,30.652 -7.178,0 0,-7.566 c -3.492,4.56 -9.312,8.634 -18.139,8.634 -9.312,0 -18.721,-5.335 -18.721,-15.618 z m 36.957,-3.88 0,-4.851 c -3.686,-1.066 -8.633,-2.134 -14.744,-2.134 -9.409,0 -14.647,4.074 -14.647,10.379 l 0,0.194 c 0,6.305 5.82,9.991 12.61,9.991 9.215,0.002 16.781,-5.624 16.781,-13.579 z"
   inkscape:connector-curvature="0" />

	<path
   id="path4247"
   d="m 979.488,379.454 0,-30.264 -6.984,0 0,-6.597 6.984,0 0,-15.132 7.469,0 0,15.132 15.908,0 0,6.597 -15.908,0 0,29.294 c 0,6.11 3.395,8.342 8.439,8.342 2.521,0 4.656,-0.485 7.274,-1.746 l 0,6.402 c -2.618,1.357 -5.431,2.134 -9.02,2.134 -8.051,0 -14.162,-3.976 -14.162,-14.162 z"
   inkscape:connector-curvature="0" />

	<path
   id="path4249"
   d="m 1011.498,367.814 0,-0.194 c 0,-14.453 10.184,-26.093 24.055,-26.093 14.842,0 23.377,11.834 23.377,26.48 0,0.971 0,1.553 -0.096,2.426 l -39.771,0 c 1.068,10.863 8.73,16.975 17.654,16.975 6.887,0 11.738,-2.813 15.813,-7.081 l 4.654,4.171 c -5.043,5.626 -11.154,9.409 -20.66,9.409 -13.774,0 -25.026,-10.573 -25.026,-26.093 z m 39.867,-2.91 c -0.777,-9.118 -6.016,-17.072 -16.006,-17.072 -8.73,0 -15.326,7.275 -16.297,17.072 l 32.303,0 z"
   inkscape:connector-curvature="0" />

	<path
   id="path4251"
   d="m 1102.385,324.843 49.082,0 0,6.984 -41.42,0 0,23.183 37.055,0 0,6.984 -37.055,0 0,23.765 41.904,0 0,6.984 -49.566,0 0,-67.9 z"
   inkscape:connector-curvature="0" />

	<path
   id="path4253"
   d="m 1162.234,367.814 0,-0.194 c 0,-16.393 11.932,-26.093 23.959,-26.093 9.313,0 15.326,5.044 19.205,10.67 l 0,-30.265 7.471,0 0,70.811 -7.471,0 0,-10.088 c -4.072,6.014 -9.99,11.155 -19.205,11.155 -12.027,10e-4 -23.959,-9.506 -23.959,-25.996 z m 43.455,-0.097 0,-0.193 c 0,-11.543 -8.826,-19.304 -18.139,-19.304 -9.699,0 -17.654,7.179 -17.654,19.304 l 0,0.193 c 0,11.834 8.246,19.4 17.654,19.4 9.313,0 18.139,-7.857 18.139,-19.4 z"
   inkscape:connector-curvature="0" />

	<path
   id="path4255"
   d="m 1228.775,373.731 0,-31.138 7.469,0 0,29.294 c 0,9.313 5.043,15.133 13.871,15.133 8.535,0 15.035,-6.306 15.035,-15.715 l 0,-28.712 7.371,0 0,50.149 -7.371,0 0,-8.73 c -3.396,5.433 -8.537,9.798 -17.17,9.798 -12.125,10e-4 -19.205,-8.148 -19.205,-20.079 z"
   inkscape:connector-curvature="0" />

	<path
   id="path4257"
   d="m 1286.199,367.911 0,-0.194 c 0,-14.162 11.057,-26.189 25.705,-26.189 9.506,0 15.422,3.977 20.078,8.924 l -4.947,5.238 c -3.977,-4.171 -8.439,-7.566 -15.229,-7.566 -10.186,0 -17.945,8.633 -17.945,19.4 l 0,0.193 c 0,10.864 7.955,19.497 18.43,19.497 6.402,0 11.35,-3.201 15.326,-7.469 l 4.754,4.462 c -5.045,5.626 -11.059,9.7 -20.467,9.7 -14.648,0 -25.705,-11.93 -25.705,-25.996 z"
   inkscape:connector-curvature="0" />

	<path
   id="path4259"
   d="m 1340.906,378.193 0,-0.194 c 0,-10.573 8.73,-16.199 21.438,-16.199 6.402,0 10.961,0.873 15.422,2.135 l 0,-1.746 c 0,-9.021 -5.529,-13.678 -14.938,-13.678 -5.916,0 -10.572,1.553 -15.229,3.687 l -2.23,-6.111 c 5.527,-2.521 10.961,-4.171 18.234,-4.171 7.082,0 12.514,1.843 16.199,5.529 3.395,3.395 5.141,8.245 5.141,14.646 l 0,30.652 -7.178,0 0,-7.566 c -3.492,4.56 -9.311,8.634 -18.139,8.634 -9.312,0 -18.72,-5.335 -18.72,-15.618 z m 36.957,-3.88 0,-4.851 c -3.686,-1.066 -8.633,-2.134 -14.744,-2.134 -9.408,0 -14.646,4.074 -14.646,10.379 l 0,0.194 c 0,6.305 5.82,9.991 12.609,9.991 9.215,0.002 16.781,-5.624 16.781,-13.579 z"
   inkscape:connector-curvature="0" />

	<path
   id="path4261"
   d="m 1402.986,379.454 0,-30.264 -6.984,0 0,-6.597 6.984,0 0,-15.132 7.469,0 0,15.132 15.908,0 0,6.597 -15.908,0 0,29.294 c 0,6.11 3.396,8.342 8.439,8.342 2.521,0 4.656,-0.485 7.275,-1.746 l 0,6.402 c -2.619,1.357 -5.432,2.134 -9.021,2.134 -8.05,0 -14.162,-3.976 -14.162,-14.162 z"
   inkscape:connector-curvature="0" />

	<path
   id="path4263"
   d="m 1439.75,323.388 8.535,0 0,8.245 -8.535,0 0,-8.245 z m 0.484,19.206 7.469,0 0,50.149 -7.469,0 0,-50.149 z"
   inkscape:connector-curvature="0" />

	<path
   id="path4265"
   d="m 1461.961,367.911 0,-0.194 c 0,-14.162 11.059,-26.189 26.189,-26.189 15.035,0 26.094,11.834 26.094,25.996 l 0,0.193 c 0,14.162 -11.154,26.19 -26.287,26.19 -15.035,0 -25.996,-11.834 -25.996,-25.996 z m 44.621,0 0,-0.194 c 0,-10.767 -8.053,-19.594 -18.625,-19.594 -10.863,0 -18.332,8.827 -18.332,19.4 l 0,0.193 c 0,10.768 7.953,19.497 18.525,19.497 10.866,10e-4 18.432,-8.729 18.432,-19.302 z"
   inkscape:connector-curvature="0" />

	<path
   id="path4267"
   d="m 1527.727,342.594 7.469,0 0,8.73 c 3.299,-5.432 8.537,-9.797 17.17,-9.797 12.125,0 19.207,8.147 19.207,20.079 l 0,31.137 -7.471,0 0,-29.294 c 0,-9.313 -5.043,-15.132 -13.871,-15.132 -8.633,0 -15.035,6.305 -15.035,15.714 l 0,28.712 -7.469,0 0,-50.149 z"
   inkscape:connector-curvature="0" />

</g>
  </g>
  <g
     inkscape:groupmode="layer"
     id="layer2"
     inkscape:label="ornl">
    <g
       id="layer1-3"
       transform="matrix(10.03838,0,0,10.03838,-416.65873,-5426.9921)">
      <g
         id="g2795"
         transform="matrix(1.05744,0,0,1.05744,363.28403,549.78713)">
        <path
           style="fill:#31875a"
           id="path2797"
           d="m 14.592,23.114 c 0.292,0.014 0.418,0.163 0.418,0.163 0,0 -0.058,-0.149 -0.049,0.256 0.009,0.405 -0.45,0.22 -1.37,-0.174 -1.644,-0.703 -2.6,-2.725 -3.01,-3.608 0,0 -0.435,-0.754 -1.058,-1.292 -0.358,-0.31 -1.02,-0.484 -1.02,-0.484 0,0 -0.516,-0.252 -1.308,-0.53 C 6.441,17.181 3.702,17.336 3.702,17.336 L 4.599,17.04 c 0,0 -0.956,-0.523 -1.688,-0.837 C 2.578,16.061 4.51,15.798 4.51,15.798 L 4.482,15.131 c 0,0 0.604,0.328 1.317,0.455 0.715,0.127 1.342,0.534 1.816,0.139 C 8.09,15.332 8.442,14.805 7.97,14.353 7.498,13.901 6.972,13.549 6.103,13.468 5.234,13.387 2.173,13.615 2.173,13.615 L 0.415,12.529 c 0,0 0.28,0.086 0.801,-0.152 0.521,-0.238 0.974,-0.711 0.974,-0.711 0,0 0.132,-0.123 -0.261,-0.598 C 1.533,10.593 0.211,9.547 0.211,9.547 l 0.69,0.049 c 0,0 -0.248,-0.264 -0.541,-0.685 C 0.069,8.491 0,8.257 0,8.257 l 0.93,0.571 c 0,0 0.55,0.429 0.411,-0.037 L 1.203,8.324 c 0,0 0.915,0.237 1.776,0.574 0.859,0.338 1.903,1.297 2.379,0.903 C 5.833,9.407 6.473,8.711 5.53,7.807 4.586,6.902 4.028,6.729 3.347,6.424 2.664,6.118 2.564,6.064 1.905,5.835 1.246,5.607 1.117,4.885 1.117,4.885 c 0,0 0.998,0.804 1.194,0.323 C 2.506,4.727 2.392,4.339 2.099,3.919 1.806,3.498 1.59,3.055 1.59,3.055 c 0,0 0.022,0.078 0.58,0.251 C 2.73,3.479 2.69,3.913 2.73,3.479 2.771,3.044 2.555,2.601 2.555,2.601 c 0,0 0.37,0.397 0.92,0.827 C 4.025,3.857 4.51,4.642 4.853,4.372 5.196,4.102 5.707,4.12 5.276,3.233 4.844,2.346 4.656,1.135 4.656,1.135 L 5.182,1.486 4.993,0.274 c 0,0 0.257,0.009 0.627,0.406 L 5.992,1.078 6.211,0.675 c 0,0 0.618,0.662 0.733,1.051 0.115,0.388 0.81,1.028 0.828,0.516 0.018,-0.513 -0.151,-0.8 -0.151,-0.8 l 0.448,0.374 c 0,0 0.334,-0.014 0.228,-0.659 C 8.191,0.512 8.208,0 8.208,0 L 9.235,1.472 9.307,0.859 c 0,0 0.472,0.452 0.234,1.367 -0.234,0.914 -0.325,2.04 -0.53,2.776 -0.204,0.738 0.076,2.26 0.684,1.742 0.608,-0.517 0.858,-1.099 1.219,-1.881 0.36,-0.783 1.278,-1.392 1.278,-1.392 0,0 -0.446,1.061 -0.205,0.736 0.242,-0.325 0.366,-0.192 0.764,-0.563 0.398,-0.371 1.782,-1.118 1.782,-1.118 0,0 -0.475,0.393 -0.695,0.796 C 13.62,3.725 13.717,4.626 14.015,4.2 14.311,3.774 14.7,3.659 14.7,3.659 c 0,0 -0.315,0.939 -0.744,1.488 -0.429,0.549 -1.37,1.081 -0.898,1.533 0.472,0.453 0.773,0.617 1.163,0.502 0.388,-0.115 0.8,-0.152 0.8,-0.152 l -0.321,0.348 0.877,-0.175 -1.27,1.136 0.705,0.383 c 0,0 -1.103,-0.012 -1.725,0.172 -0.622,0.183 -1.129,0.756 -1.837,1.219 -0.709,0.463 -1.651,3.277 -0.367,2.475 1.284,-0.802 2.641,-2.545 2.641,-2.545 0,0 -0.24,0.92 0.226,0.782 0.466,-0.137 1.53,-0.805 1.53,-0.805 0,0 -0.189,0.662 -0.773,1.419 -0.37,0.481 -0.833,1.389 -0.567,1.142 0.265,-0.248 1.418,-0.301 1.418,-0.301 0,0 -0.608,0.518 -1.317,0.981 -0.708,0.463 -1.891,1.319 -2.11,1.722 -0.22,0.403 0.459,1.555 1.332,0.79 0.872,-0.765 1.613,-1.406 1.754,-1.786 0.142,-0.38 0.749,-0.898 0.749,-0.898 l 0.074,0.823 1.212,-0.189 -0.72,1.565 c 0,0 -0.034,0.272 0.479,0.197 0.567,-0.084 0.591,-0.006 0.591,-0.006 0,0 -0.85,0.843 -1.729,1.018 -0.878,0.175 -5.116,1.098 -4.917,3.093 0.04,0.41 1.111,3.002 3.252,3.481 l 0.384,0.043 z"
           inkscape:connector-curvature="0" />
        <line
           style="fill:none;stroke:#31875a;stroke-width:0.60900003;stroke-linecap:round"
           x1="16.068001"
           y1="23.534"
           x2="57.877998"
           y2="23.534"
           id="line2799" />
        <path
           style="fill:#31875a"
           id="path2801"
           d="m 16.372,26.222 c 0,0.834 0.039,1.52 0.049,1.672 0.01,0.245 0.069,0.363 0.245,0.363 l 0.128,0 c 0.039,0 0.039,0.02 0.039,0.044 l 0,0.113 c 0,0.029 0,0.039 -0.039,0.039 -0.049,0 -0.344,-0.015 -0.53,-0.015 -0.127,0 -0.461,0.015 -0.51,0.015 -0.019,0 -0.029,-0.01 -0.029,-0.044 l 0,-0.123 c 0,-0.009 0.011,-0.029 0.029,-0.029 l 0.167,0 c 0.127,0 0.196,-0.108 0.221,-0.407 0.004,-0.088 0.034,-0.775 0.034,-1.559 l 0,-0.623 c 0,-0.294 -0.167,-0.52 -0.383,-0.52 l -0.157,0 c -0.019,-0.005 -0.029,-0.014 -0.029,-0.034 l 0,-0.132 c 0,-0.02 0.011,-0.03 0.029,-0.03 0.025,0 0.064,0.005 0.152,0.01 0.089,0.005 0.221,0.005 0.437,0.005 0.083,0 0.157,-0.005 0.216,-0.01 0.063,0 0.107,-0.005 0.138,-0.005 0.059,0 0.088,0.015 0.118,0.044 0.049,0.049 1.01,1.255 1.107,1.393 0.068,0.078 0.833,1.03 0.912,1.128 l 0.02,0 0,-0.51 c 0,-0.432 0,-0.677 -0.01,-0.922 -0.01,-0.187 -0.029,-0.667 -0.054,-0.75 -0.035,-0.118 -0.142,-0.187 -0.26,-0.187 l -0.157,0 c -0.029,0 -0.029,-0.019 -0.029,-0.044 l 0,-0.113 c 0,-0.029 0,-0.039 0.039,-0.039 0.06,0 0.215,0.015 0.549,0.015 0.294,0 0.412,-0.015 0.472,-0.015 0.039,0 0.049,0.02 0.049,0.034 l 0,0.113 c 0,0.03 -0.01,0.049 -0.03,0.049 l -0.137,0 c -0.098,0 -0.147,0.079 -0.162,0.26 -0.024,0.334 -0.073,1.157 -0.073,1.657 l 0,1.295 c 0,0.069 0,0.137 -0.059,0.137 -0.069,0 -0.128,-0.039 -0.167,-0.078 -0.039,-0.049 -0.304,-0.353 -0.608,-0.716 -0.343,-0.422 -0.726,-0.883 -0.785,-0.961 -0.067,-0.069 -0.853,-1.05 -0.911,-1.118 l -0.029,0 0,0.598 -0.002,0 z"
           inkscape:connector-curvature="0" />
        <path
           style="fill:#31875a"
           id="path2803"
           d="m 20.818,28.198 c -0.107,0.118 -0.235,0.201 -0.427,0.265 -0.112,0.034 -0.216,0.034 -0.313,0.034 -0.181,0 -0.338,-0.147 -0.338,-0.421 0,-0.226 0.098,-0.447 0.451,-0.603 0.304,-0.148 0.489,-0.226 0.598,-0.304 l 0,-0.255 c -0.01,-0.099 -0.021,-0.216 -0.078,-0.275 -0.049,-0.054 -0.138,-0.074 -0.246,-0.074 -0.088,0 -0.206,0.03 -0.284,0.089 -0.068,0.049 -0.02,0.122 -0.02,0.24 0,0.177 -0.088,0.284 -0.294,0.284 -0.088,0 -0.166,-0.058 -0.166,-0.166 0,-0.138 0.078,-0.295 0.225,-0.402 0.206,-0.157 0.472,-0.275 0.794,-0.275 0.275,0 0.363,0.059 0.451,0.137 0.108,0.098 0.118,0.236 0.118,0.368 l 0.01,0.775 0,0.235 c 0,0.265 0.039,0.343 0.127,0.343 0.069,0 0.139,-0.039 0.157,-0.078 0.02,-0.029 0.03,-0.029 0.049,-0.02 l 0.06,0.04 c 0.02,0.009 0.029,0.029 0.01,0.078 -0.049,0.088 -0.167,0.284 -0.451,0.284 -0.186,0 -0.343,-0.088 -0.412,-0.299 l -0.021,0 0,0 z M 20.789,27.35 c -0.216,0.137 -0.539,0.221 -0.539,0.579 0,0.201 0.107,0.299 0.225,0.299 0.139,-0.01 0.314,-0.147 0.314,-0.236 l 0,-0.642 z"
           inkscape:connector-curvature="0" />
        <path
           style="fill:#31875a"
           id="path2805"
           d="m 21.916,26.664 c -0.039,0 -0.068,-0.02 -0.068,-0.069 0,-0.039 0.029,-0.068 0.094,-0.093 0.137,-0.049 0.563,-0.412 0.671,-0.618 0.02,-0.039 0.049,-0.049 0.079,-0.049 0.039,0 0.059,0.03 0.059,0.069 l -0.02,0.485 0.646,0 c 0.03,0 0.039,0.02 0.035,0.04 l -0.049,0.206 c -0.005,0.019 -0.021,0.029 -0.05,0.029 l -0.593,0 c -0.01,0.206 -0.015,0.441 -0.015,0.657 l 0,0.441 c 0,0.383 0.162,0.461 0.26,0.461 0.108,0 0.217,-0.024 0.285,-0.059 0.034,-0.014 0.049,-0.014 0.06,0.01 l 0.028,0.059 c 0.011,0.029 0,0.049 -0.02,0.069 -0.068,0.049 -0.274,0.196 -0.617,0.196 -0.295,0 -0.515,-0.236 -0.515,-0.441 0,-0.177 0.014,-0.569 0.014,-0.756 l 0,-0.637 -0.284,0 z"
           inkscape:connector-curvature="0" />
        <path
           style="fill:#31875a"
           id="path2807"
           d="m 23.926,27.041 c 0,-0.147 -0.029,-0.245 -0.255,-0.304 -0.044,-0.01 -0.049,-0.024 -0.049,-0.044 l 0,-0.054 c 0,-0.02 0.01,-0.029 0.035,-0.039 0.067,-0.03 0.554,-0.201 0.637,-0.235 0.049,-0.02 0.088,-0.03 0.118,-0.03 0.028,0 0.044,0.02 0.039,0.059 -0.011,0.078 -0.011,0.392 -0.011,0.799 l 0,0.53 c 0,0.186 0,0.363 0.011,0.421 0.01,0.089 0.028,0.128 0.078,0.128 l 0.196,0 c 0.039,0 0.049,0.01 0.049,0.034 l 0,0.098 c 0,0.03 -0.01,0.049 -0.039,0.049 -0.039,0 -0.265,-0.014 -0.594,-0.014 -0.283,0 -0.471,0.014 -0.529,0.014 -0.024,0 -0.039,-0.01 -0.039,-0.049 l 0,-0.093 c 0,-0.029 0.02,-0.039 0.049,-0.039 l 0.216,0 c 0.049,0 0.074,-0.02 0.079,-0.098 0.004,-0.147 0.009,-0.304 0.009,-0.441 l 0,-0.692 z m 0.167,-1.211 c -0.152,0 -0.299,-0.108 -0.299,-0.275 0,-0.142 0.132,-0.274 0.328,-0.274 0.197,0 0.29,0.142 0.29,0.255 0,0.142 -0.099,0.294 -0.319,0.294"
           inkscape:connector-curvature="0" />
        <path
           style="fill:#31875a"
           id="path2809"
           d="m 26.897,26.625 c 0.229,0.23 0.338,0.485 0.338,0.775 0,0.274 -0.117,0.539 -0.304,0.745 -0.201,0.226 -0.495,0.353 -0.824,0.353 -0.308,0 -0.573,-0.088 -0.794,-0.353 -0.216,-0.255 -0.265,-0.461 -0.265,-0.76 0,-0.235 0.117,-0.579 0.411,-0.814 0.241,-0.196 0.495,-0.235 0.696,-0.235 0.33,-10e-4 0.575,0.126 0.742,0.289 m -0.259,0.759 c 0,-0.539 -0.284,-0.853 -0.511,-0.853 -0.127,0 -0.226,0.039 -0.309,0.132 -0.152,0.172 -0.211,0.378 -0.211,0.736 0,0.284 0.02,0.471 0.152,0.681 0.084,0.133 0.191,0.211 0.388,0.211 0.324,0.001 0.491,-0.407 0.491,-0.907"
           inkscape:connector-curvature="0" />
        <path
           style="fill:#31875a"
           id="path2811"
           d="m 28.216,26.375 c 0.039,-0.02 0.069,-0.039 0.098,-0.039 0.029,0 0.049,0.019 0.06,0.059 l 0.039,0.255 0.028,0 c 0.06,-0.069 0.148,-0.148 0.246,-0.197 0.117,-0.068 0.245,-0.117 0.393,-0.117 0.167,0 0.323,0.029 0.432,0.117 0.215,0.157 0.269,0.305 0.269,0.506 l 0,0.706 c 0,0.157 -0.005,0.372 -0.005,0.47 0,0.108 0.06,0.138 0.118,0.138 l 0.137,0 c 0.044,0 0.06,0.01 0.06,0.034 l 0,0.113 c 0,0.024 -0.01,0.034 -0.039,0.034 -0.039,0 -0.187,-0.015 -0.53,-0.015 -0.294,0 -0.451,0.015 -0.479,0.015 -0.03,0 -0.039,-0.02 -0.039,-0.059 l 0,-0.083 c 0,-0.029 0.009,-0.039 0.058,-0.039 l 0.098,0 c 0.04,0 0.079,-0.03 0.09,-0.118 0.015,-0.128 0.019,-0.265 0.019,-0.461 l 0,-0.564 c 0,-0.196 -0.01,-0.323 -0.127,-0.421 -0.098,-0.089 -0.186,-0.089 -0.294,-0.089 -0.079,0 -0.196,0.02 -0.314,0.128 -0.079,0.078 -0.103,0.215 -0.103,0.348 l 0,1.01 c 0,0.108 0.023,0.167 0.093,0.167 l 0.088,0 c 0.04,0 0.049,0.01 0.049,0.044 l 0,0.088 c 0,0.029 -0.009,0.049 -0.038,0.049 -0.029,0 -0.168,-0.015 -0.462,-0.015 -0.304,0 -0.461,0.015 -0.489,0.015 -0.021,0 -0.03,-0.02 -0.03,-0.049 l 0,-0.093 c 0,-0.029 0.01,-0.039 0.049,-0.039 l 0.099,0 c 0.059,0 0.128,-0.02 0.128,-0.098 l 0,-1.105 c 0,-0.147 -0.089,-0.225 -0.206,-0.284 l -0.039,-0.02 c -0.03,-0.009 -0.039,-0.029 -0.039,-0.049 l 0,-0.039 c 0,-0.019 0.019,-0.039 0.049,-0.049 l 0.533,-0.254 z"
           inkscape:connector-curvature="0" />
        <path
           style="fill:#31875a"
           id="path2813"
           d="m 31.524,28.198 c -0.106,0.118 -0.235,0.201 -0.426,0.265 -0.113,0.034 -0.216,0.034 -0.314,0.034 -0.181,0 -0.338,-0.147 -0.338,-0.421 0,-0.226 0.099,-0.447 0.451,-0.603 0.304,-0.148 0.49,-0.226 0.598,-0.304 l 0,-0.255 c -0.01,-0.099 -0.02,-0.216 -0.077,-0.275 -0.05,-0.054 -0.139,-0.074 -0.246,-0.074 -0.088,0 -0.206,0.03 -0.284,0.089 -0.069,0.049 -0.021,0.122 -0.021,0.24 0,0.177 -0.088,0.284 -0.294,0.284 -0.088,0 -0.167,-0.058 -0.167,-0.166 0,-0.138 0.079,-0.295 0.227,-0.402 0.206,-0.157 0.471,-0.275 0.794,-0.275 0.274,0 0.362,0.059 0.451,0.137 0.107,0.098 0.117,0.236 0.117,0.368 l 0.011,0.775 0,0.235 c 0,0.265 0.039,0.343 0.127,0.343 0.068,0 0.138,-0.039 0.156,-0.078 0.021,-0.029 0.03,-0.029 0.05,-0.02 l 0.059,0.04 c 0.021,0.009 0.03,0.029 0.01,0.078 -0.049,0.088 -0.167,0.284 -0.451,0.284 -0.186,0 -0.343,-0.088 -0.411,-0.299 l -0.022,0 0,0 z M 31.495,27.35 c -0.216,0.137 -0.539,0.221 -0.539,0.579 0,0.201 0.107,0.299 0.226,0.299 0.138,-0.01 0.313,-0.147 0.313,-0.236 l 0,-0.642 0,0 z"
           inkscape:connector-curvature="0" />
        <path
           style="fill:#31875a"
           id="path2815"
           d="m 32.883,26.561 c 0,-0.343 -0.01,-0.765 -0.021,-0.892 -0.009,-0.167 -0.093,-0.245 -0.25,-0.295 l -0.098,-0.029 c -0.029,-0.01 -0.029,-0.02 -0.029,-0.039 l 0,-0.059 c 0,-0.01 0.01,-0.03 0.039,-0.039 0.196,-0.059 0.579,-0.187 0.735,-0.285 0.059,-0.019 0.089,-0.029 0.107,-0.029 0.03,0 0.05,0.02 0.05,0.088 -0.01,0.265 -0.02,1.285 -0.02,1.554 l 0,0.707 c 0,0.225 0,0.725 0.01,0.872 0.01,0.089 0.02,0.157 0.127,0.157 l 0.187,0 c 0.049,0 0.059,0.01 0.059,0.045 l 0,0.088 c 0,0.029 -0.01,0.049 -0.028,0.049 -0.039,0 -0.256,-0.015 -0.599,-0.015 -0.373,0 -0.568,0.015 -0.607,0.015 -0.03,0 -0.039,-0.02 -0.039,-0.049 l 0,-0.094 c 0,-0.029 0.009,-0.039 0.067,-0.039 l 0.187,0 c 0.049,0 0.123,-0.039 0.123,-0.176 l 0,-1.344 0,-0.191 0,0 z"
           inkscape:connector-curvature="0" />
        <path
           style="fill:#31875a"
           id="path2817"
           d="m 38.104,27.428 c 0.01,0.01 0.01,0.02 0.01,0.049 -0.021,0.029 -0.216,0.843 -0.245,0.976 -0.128,-0.005 -1.54,-0.015 -2.04,-0.015 -0.442,0 -0.618,0.015 -0.677,0.015 -0.039,0 -0.039,-0.01 -0.039,-0.044 l 0,-0.113 c 0,-0.03 0,-0.039 0.028,-0.039 l 0.196,0 c 0.177,0 0.206,-0.069 0.206,-0.133 0,-0.088 0.021,-1.314 0.021,-1.608 l 0,-0.275 c 0,-0.313 -0.011,-0.833 -0.021,-0.917 -0.009,-0.127 -0.029,-0.176 -0.157,-0.176 l -0.205,0 c -0.029,0 -0.04,-0.029 -0.04,-0.044 l 0,-0.113 c 0,-0.029 0.011,-0.039 0.04,-0.039 0.05,0 0.226,0.014 0.677,0.014 0.529,0 0.735,-0.014 0.774,-0.014 0.039,0 0.049,0.019 0.049,0.044 l 0,0.113 c 0,0.019 -0.01,0.039 -0.049,0.039 l -0.265,0 c -0.147,0 -0.167,0.049 -0.167,0.181 0,0.069 -0.02,0.804 -0.02,1.148 l 0,0.421 c 0,0.089 0,1.148 0.02,1.359 l 0.275,0 c 0.274,0 0.628,0 0.823,-0.025 0.274,-0.039 0.588,-0.627 0.657,-0.814 0.02,-0.019 0.029,-0.029 0.059,-0.019 l 0.09,0.029 z"
           inkscape:connector-curvature="0" />
        <path
           style="fill:#31875a"
           id="path2819"
           d="m 39.579,28.198 c -0.107,0.118 -0.235,0.201 -0.427,0.265 -0.112,0.034 -0.216,0.034 -0.313,0.034 -0.182,0 -0.338,-0.147 -0.338,-0.421 0,-0.226 0.098,-0.447 0.451,-0.603 0.304,-0.148 0.489,-0.226 0.598,-0.304 l 0,-0.255 c -0.01,-0.099 -0.021,-0.216 -0.078,-0.275 -0.049,-0.054 -0.138,-0.074 -0.246,-0.074 -0.088,0 -0.206,0.03 -0.284,0.089 -0.068,0.049 -0.02,0.122 -0.02,0.24 0,0.177 -0.088,0.284 -0.294,0.284 -0.088,0 -0.166,-0.058 -0.166,-0.166 0,-0.138 0.078,-0.295 0.225,-0.402 0.206,-0.157 0.471,-0.275 0.794,-0.275 0.275,0 0.363,0.059 0.452,0.137 0.107,0.098 0.117,0.236 0.117,0.368 l 0.01,0.775 0,0.235 c 0,0.265 0.039,0.343 0.127,0.343 0.069,0 0.138,-0.039 0.157,-0.078 0.02,-0.029 0.03,-0.029 0.049,-0.02 l 0.06,0.04 c 0.02,0.009 0.029,0.029 0.01,0.078 -0.049,0.088 -0.167,0.284 -0.451,0.284 -0.187,0 -0.343,-0.088 -0.412,-0.299 l -0.021,0 0,0 z M 39.55,27.35 c -0.216,0.137 -0.539,0.221 -0.539,0.579 0,0.201 0.107,0.299 0.225,0.299 0.139,-0.01 0.314,-0.147 0.314,-0.236 l 0,-0.642 z"
           inkscape:connector-curvature="0" />
        <path
           style="fill:#31875a"
           id="path2821"
           d="m 41.02,28.482 c -0.023,0.015 -0.044,0.015 -0.063,0.015 l -0.069,-0.02 c -0.02,-0.01 -0.02,-0.019 -0.02,-0.039 0.01,-0.069 0.015,-0.48 0.015,-0.833 l -0.01,-1.79 c 0,-0.334 -0.054,-0.393 -0.211,-0.442 l -0.06,-0.019 c -0.058,-0.01 -0.067,-0.02 -0.067,-0.039 l 0,-0.049 c 0,-0.01 0.01,-0.03 0.049,-0.04 0.196,-0.068 0.479,-0.196 0.637,-0.274 0.069,-0.039 0.108,-0.059 0.148,-0.059 0.039,0 0.058,0.029 0.049,0.078 0,0.04 -0.021,0.599 -0.025,1.025 l -0.005,0.589 c 0.167,-0.162 0.422,-0.25 0.672,-0.25 0.305,0 0.564,0.171 0.717,0.411 0.088,0.138 0.142,0.344 0.142,0.613 0,0.54 -0.481,1.138 -1.079,1.138 -0.294,0 -0.49,-0.059 -0.627,-0.128 l -0.193,0.113 z m 0.368,-1.103 c 0,0.412 0.01,0.569 0.069,0.716 0.059,0.118 0.196,0.221 0.363,0.221 0.155,0 0.333,-0.059 0.445,-0.251 0.104,-0.176 0.127,-0.333 0.127,-0.549 0,-0.569 -0.234,-0.887 -0.622,-0.887 -0.138,0 -0.274,0.049 -0.383,0.147 l 0,0.603 10e-4,0 z"
           inkscape:connector-curvature="0" />
        <path
           style="fill:#31875a"
           id="path2823"
           d="m 45.178,26.625 c 0.229,0.23 0.338,0.485 0.338,0.775 0,0.274 -0.117,0.539 -0.304,0.745 -0.201,0.226 -0.495,0.353 -0.824,0.353 -0.308,0 -0.573,-0.088 -0.794,-0.353 -0.215,-0.255 -0.265,-0.461 -0.265,-0.76 0,-0.235 0.117,-0.579 0.411,-0.814 0.241,-0.196 0.496,-0.235 0.697,-0.235 0.329,-10e-4 0.574,0.126 0.741,0.289 m -0.26,0.759 c 0,-0.539 -0.284,-0.853 -0.511,-0.853 -0.127,0 -0.226,0.039 -0.309,0.132 -0.152,0.172 -0.211,0.378 -0.211,0.736 0,0.284 0.02,0.471 0.152,0.681 0.084,0.133 0.191,0.211 0.388,0.211 0.324,0.001 0.491,-0.407 0.491,-0.907"
           inkscape:connector-curvature="0" />
        <path
           style="fill:#31875a"
           id="path2825"
           d="m 46.192,27.178 c 0,-0.226 -0.039,-0.304 -0.187,-0.383 l -0.089,-0.049 c -0.029,-0.009 -0.039,-0.019 -0.039,-0.039 l 0,-0.029 c 0,-0.02 0.01,-0.03 0.039,-0.044 l 0.594,-0.28 c 0.029,-0.01 0.049,-0.019 0.078,-0.019 0.03,0 0.039,0.029 0.044,0.058 l 0.045,0.353 0.02,0 c 0.167,-0.274 0.373,-0.441 0.589,-0.441 0.156,0 0.255,0.108 0.255,0.245 0,0.138 -0.138,0.265 -0.265,0.265 -0.069,0 -0.128,-0.02 -0.167,-0.039 -0.039,-0.03 -0.088,-0.039 -0.138,-0.039 -0.059,0 -0.146,0.039 -0.206,0.142 -0.039,0.068 -0.059,0.176 -0.059,0.24 l 0,0.946 c 0,0.157 0.039,0.206 0.137,0.206 l 0.216,0 c 0.029,0 0.039,0.01 0.039,0.035 l 0,0.112 c 0,0.025 -0.01,0.035 -0.033,0.035 -0.034,0 -0.25,-0.015 -0.608,-0.015 -0.343,0 -0.535,0.015 -0.574,0.015 -0.023,0 -0.034,-0.01 -0.034,-0.035 l 0,-0.107 c 0,-0.03 0.011,-0.04 0.044,-0.04 l 0.173,0 c 0.077,0 0.127,-0.039 0.127,-0.132 l 0,-0.961 -10e-4,0 z"
           inkscape:connector-curvature="0" />
        <path
           style="fill:#31875a"
           id="path2827"
           d="m 48.893,28.198 c -0.106,0.118 -0.234,0.201 -0.426,0.265 -0.113,0.034 -0.216,0.034 -0.313,0.034 -0.182,0 -0.339,-0.147 -0.339,-0.421 0,-0.226 0.099,-0.447 0.451,-0.603 0.305,-0.148 0.49,-0.226 0.599,-0.304 l 0,-0.255 c -0.011,-0.099 -0.021,-0.216 -0.078,-0.275 -0.049,-0.054 -0.139,-0.074 -0.246,-0.074 -0.088,0 -0.206,0.03 -0.284,0.089 -0.069,0.049 -0.02,0.122 -0.02,0.24 0,0.177 -0.089,0.284 -0.294,0.284 -0.089,0 -0.166,-0.058 -0.166,-0.166 0,-0.138 0.077,-0.295 0.225,-0.402 0.206,-0.157 0.471,-0.275 0.794,-0.275 0.275,0 0.363,0.059 0.452,0.137 0.106,0.098 0.117,0.236 0.117,0.368 l 0.01,0.775 0,0.235 c 0,0.265 0.039,0.343 0.127,0.343 0.069,0 0.138,-0.039 0.157,-0.078 0.02,-0.029 0.029,-0.029 0.049,-0.02 l 0.059,0.04 c 0.021,0.009 0.03,0.029 0.011,0.078 -0.05,0.088 -0.167,0.284 -0.451,0.284 -0.187,0 -0.344,-0.088 -0.412,-0.299 l -0.022,0 0,0 z M 48.864,27.35 c -0.217,0.137 -0.539,0.221 -0.539,0.579 0,0.201 0.106,0.299 0.225,0.299 0.138,-0.01 0.314,-0.147 0.314,-0.236 l 0,-0.642 z"
           inkscape:connector-curvature="0" />
        <path
           style="fill:#31875a"
           id="path2829"
           d="m 49.991,26.664 c -0.039,0 -0.068,-0.02 -0.068,-0.069 0,-0.039 0.029,-0.068 0.094,-0.093 0.137,-0.049 0.563,-0.412 0.671,-0.618 0.02,-0.039 0.049,-0.049 0.079,-0.049 0.038,0 0.059,0.03 0.059,0.069 l -0.021,0.485 0.647,0 c 0.03,0 0.04,0.02 0.035,0.04 l -0.049,0.206 c -0.006,0.019 -0.021,0.029 -0.05,0.029 l -0.594,0 c -0.01,0.206 -0.014,0.441 -0.014,0.657 l 0,0.441 c 0,0.383 0.161,0.461 0.259,0.461 0.108,0 0.216,-0.024 0.285,-0.059 0.034,-0.014 0.049,-0.014 0.059,0.01 l 0.029,0.059 c 0.01,0.029 0,0.049 -0.02,0.069 -0.068,0.049 -0.274,0.196 -0.617,0.196 -0.295,0 -0.516,-0.236 -0.516,-0.441 0,-0.177 0.016,-0.569 0.016,-0.756 l 0,-0.637 -0.284,0 z"
           inkscape:connector-curvature="0" />
        <path
           style="fill:#31875a"
           id="path2831"
           d="m 53.546,26.625 c 0.229,0.23 0.338,0.485 0.338,0.775 0,0.274 -0.117,0.539 -0.304,0.745 -0.201,0.226 -0.495,0.353 -0.824,0.353 -0.308,0 -0.573,-0.088 -0.794,-0.353 -0.216,-0.255 -0.265,-0.461 -0.265,-0.76 0,-0.235 0.117,-0.579 0.411,-0.814 0.24,-0.196 0.495,-0.235 0.696,-0.235 0.33,-10e-4 0.575,0.126 0.742,0.289 m -0.26,0.759 c 0,-0.539 -0.284,-0.853 -0.511,-0.853 -0.127,0 -0.226,0.039 -0.309,0.132 -0.152,0.172 -0.211,0.378 -0.211,0.736 0,0.284 0.02,0.471 0.152,0.681 0.084,0.133 0.191,0.211 0.388,0.211 0.324,0.001 0.491,-0.407 0.491,-0.907"
           inkscape:connector-curvature="0" />
        <path
           style="fill:#31875a"
           id="path2833"
           d="m 54.561,27.178 c 0,-0.226 -0.039,-0.304 -0.187,-0.383 l -0.089,-0.049 c -0.029,-0.009 -0.039,-0.019 -0.039,-0.039 l 0,-0.029 c 0,-0.02 0.01,-0.03 0.039,-0.044 l 0.594,-0.28 c 0.029,-0.01 0.049,-0.019 0.078,-0.019 0.029,0 0.039,0.029 0.044,0.058 l 0.044,0.353 0.021,0 c 0.167,-0.274 0.373,-0.441 0.589,-0.441 0.156,0 0.254,0.108 0.254,0.245 0,0.138 -0.137,0.265 -0.264,0.265 -0.069,0 -0.129,-0.02 -0.167,-0.039 -0.039,-0.03 -0.089,-0.039 -0.138,-0.039 -0.059,0 -0.146,0.039 -0.206,0.142 -0.04,0.068 -0.059,0.176 -0.059,0.24 l 0,0.946 c 0,0.157 0.039,0.206 0.137,0.206 l 0.216,0 c 0.029,0 0.039,0.01 0.039,0.035 l 0,0.112 c 0,0.025 -0.01,0.035 -0.034,0.035 -0.034,0 -0.25,-0.015 -0.607,-0.015 -0.343,0 -0.535,0.015 -0.574,0.015 -0.025,0 -0.034,-0.01 -0.034,-0.035 l 0,-0.107 c 0,-0.03 0.009,-0.04 0.044,-0.04 l 0.172,0 c 0.078,0 0.128,-0.039 0.128,-0.132 l 0,-0.961 -10e-4,0 z"
           inkscape:connector-curvature="0" />
        <path
           style="fill:#31875a"
           id="path2835"
           d="m 56.084,29.508 c 0,-0.137 0.108,-0.245 0.235,-0.245 0.079,0 0.157,0.029 0.216,0.059 0.039,0.019 0.099,0.019 0.128,-0.01 0.059,-0.059 0.313,-0.598 0.372,-0.785 C 57.007,28.38 56.437,26.85 56.403,26.767 56.349,26.64 56.3,26.561 56.202,26.561 l -0.098,0 c -0.03,0 -0.04,-0.015 -0.04,-0.039 l 0,-0.108 c 0,-0.02 0.01,-0.035 0.04,-0.035 0.039,0 0.157,0.015 0.519,0.015 0.285,0 0.433,-0.015 0.491,-0.015 0.029,0 0.039,0.01 0.039,0.04 l 0,0.108 c 0,0.019 -0.01,0.034 -0.034,0.034 l -0.073,0 c -0.05,0 -0.089,0.029 -0.073,0.103 0.014,0.098 0.309,1.098 0.357,1.206 l 0.02,0 c 0.088,-0.186 0.432,-1.02 0.456,-1.123 0.028,-0.127 -0.016,-0.186 -0.104,-0.186 l -0.078,0 c -0.029,0 -0.04,-0.015 -0.04,-0.034 l 0,-0.108 c 0,-0.025 0.011,-0.04 0.04,-0.04 0.06,0 0.157,0.015 0.423,0.015 0.165,0 0.283,-0.015 0.327,-0.015 0.024,0 0.034,0.015 0.034,0.04 l 0,0.103 c 0,0.029 -0.01,0.039 -0.028,0.039 l -0.06,0 c -0.049,0 -0.123,0.015 -0.176,0.083 -0.098,0.128 -0.433,0.863 -0.785,1.658 -0.245,0.529 -0.451,0.99 -0.539,1.147 -0.079,0.128 -0.177,0.324 -0.442,0.324 -0.176,-0.001 -0.294,-0.108 -0.294,-0.265"
           inkscape:connector-curvature="0" />
        <path
           style="fill:#31875a"
           id="path2837"
           d="m 26.43,1.542 c 1.014,0.824 1.839,2.163 1.839,4.003 0,1 -0.271,2.055 -1,2.975 -0.866,1.082 -2.029,1.92 -4.059,1.92 -0.811,0 -1.974,-0.243 -3.056,-0.892 C 19.194,8.966 18.18,7.492 18.18,5.545 18.18,4.733 18.409,3.448 19.424,2.191 20.613,0.73 22.073,0.46 23.237,0.46 24.238,0.459 25.32,0.648 26.43,1.542 m -5.194,0.27 c -0.825,0.798 -1.217,2.191 -1.217,3.273 0,3.516 2.164,4.76 3.3,4.76 2.731,0 3.164,-3.029 3.164,-4.165 0,-2.948 -2.001,-4.625 -3.3,-4.625 C 22.94,1.054 22.156,0.918 21.236,1.812"
           inkscape:connector-curvature="0" />
        <path
           style="fill:#31875a"
           id="path2839"
           d="m 30.292,7.215 c -0.088,0.252 -0.627,1.823 -0.682,2.12 -0.022,0.088 -0.022,0.176 -0.022,0.231 0,0.143 0.177,0.264 0.396,0.264 l 0.461,0 c 0.088,0 0.11,0.022 0.11,0.055 l 0,0.274 c 0,0.066 -0.022,0.11 -0.088,0.11 -0.153,0 -0.615,-0.033 -1.385,-0.033 -0.813,0 -1.055,0.033 -1.209,0.033 -0.065,0 -0.065,-0.066 -0.065,-0.143 l 0,-0.208 c 0,-0.066 0.021,-0.088 0.065,-0.088 l 0.33,0 c 0.308,0 0.505,-0.154 0.703,-0.495 0.11,-0.197 0.901,-2.175 1.231,-3.099 0.076,-0.219 0.967,-2.593 1.076,-2.878 0.022,-0.11 0.089,-0.308 0.022,-0.374 -0.033,-0.033 -0.066,-0.099 -0.066,-0.132 0,-0.044 0.022,-0.088 0.11,-0.11 0.351,-0.088 0.956,-0.417 1.087,-0.549 0.066,-0.066 0.11,-0.11 0.165,-0.11 0.066,0 0.11,0.132 0.132,0.198 0.198,0.681 1.056,3.142 1.253,3.846 0.264,0.857 0.968,2.901 1.12,3.197 0.198,0.374 0.484,0.506 0.704,0.506 l 0.352,0 c 0.065,0 0.088,0.022 0.088,0.077 l 0,0.23 c 0,0.066 -0.022,0.132 -0.109,0.132 -0.198,0 -0.418,-0.033 -1.627,-0.033 -0.923,0 -1.296,0.033 -1.538,0.033 -0.088,0 -0.11,-0.066 -0.11,-0.132 l 0,-0.219 c 0,-0.066 0.022,-0.088 0.089,-0.088 l 0.285,0 c 0.308,0 0.396,-0.11 0.329,-0.407 C 33.411,9.028 32.973,7.621 32.84,7.215 l -2.548,0 z m 2.439,-0.44 C 32.621,6.456 31.874,3.951 31.808,3.731 31.764,3.599 31.742,3.533 31.698,3.533 c -0.066,0 -0.11,0.044 -0.143,0.143 -0.044,0.143 -1.033,2.846 -1.11,3.099 l 2.286,0 z"
           inkscape:connector-curvature="0" />
        <path
           style="fill:#31875a"
           id="path2841"
           d="m 38.797,7.27 c 0,0.549 0.021,2.154 0.032,2.319 0.012,0.153 0.121,0.241 0.254,0.241 l 0.416,0 c 0.045,0 0.089,0.022 0.089,0.055 l 0,0.297 c 0,0.044 -0.022,0.088 -0.066,0.088 -0.132,0 -0.461,-0.033 -1.406,-0.033 -0.944,0 -1.297,0.033 -1.407,0.033 -0.044,0 -0.065,-0.022 -0.065,-0.077 l 0,-0.297 c 0,-0.044 0.021,-0.066 0.065,-0.066 l 0.396,0 c 0.197,0 0.286,-0.088 0.297,-0.208 0.011,-0.088 0.032,-2.088 0.032,-3.451 l 0,-0.637 c 0,-0.198 -0.021,-2.308 -0.021,-2.407 0,-0.131 -0.065,-0.263 -0.329,-0.263 l -0.33,0 c -0.066,0 -0.089,-0.022 -0.089,-0.077 l 0,-0.297 c 0,-0.044 0.022,-0.066 0.089,-0.066 0.132,0 0.462,0.033 1.406,0.033 0.857,0 1.208,-0.033 1.362,-0.033 0.066,0 0.088,0.022 0.088,0.077 l 0,0.275 c 0,0.066 -0.021,0.088 -0.088,0.088 l -0.351,0 c -0.221,0 -0.33,0.066 -0.33,0.318 0,0.176 -0.044,1.89 -0.044,2.418 l 0,0.483 0.197,0 c 0.133,0 0.241,-0.044 0.373,-0.154 0.209,-0.175 2.121,-2.56 2.242,-2.725 0.154,-0.219 0.022,-0.351 -0.176,-0.351 l -0.165,0 c -0.044,0 -0.055,-0.022 -0.055,-0.077 l 0,-0.264 c 0,-0.066 0.021,-0.088 0.065,-0.088 0.132,0 0.572,0.033 1.297,0.033 0.44,0 0.813,-0.033 0.945,-0.033 0.066,0 0.088,0.022 0.088,0.077 l 0,0.275 c 0,0.066 -0.044,0.088 -0.088,0.088 l -0.22,0 c -0.154,0 -0.396,0.044 -0.615,0.186 -0.517,0.341 -2.066,2.132 -2.484,2.682 0.44,0.549 2.683,3.45 3.012,3.834 0.197,0.242 0.483,0.264 0.659,0.264 l 0.241,0 c 0.066,0 0.088,0.044 0.088,0.077 l 0,0.275 c 0,0.066 -0.021,0.088 -0.088,0.088 -0.108,0 -0.505,-0.033 -1.516,-0.033 -0.923,0 -1.341,0.033 -1.495,0.033 -0.043,0 -0.065,-0.022 -0.065,-0.088 l 0,-0.275 c 0,-0.044 0.022,-0.066 0.065,-0.066 l 0.154,0 c 0.197,0 0.22,-0.197 0.176,-0.285 -0.11,-0.22 -1.89,-2.769 -2.066,-2.945 -0.109,-0.11 -0.24,-0.154 -0.373,-0.154 l -0.197,0 0,0.813 10e-4,0 z"
           inkscape:connector-curvature="0" />
        <path
           style="fill:#31875a"
           id="path2843"
           d="m 20.857,18.02 c 0,0.812 0.027,2.326 0.055,2.529 0.041,0.271 0.135,0.514 0.352,0.514 l 0.676,0 c 0.081,0 0.108,0.04 0.108,0.095 l 0,0.324 c 0,0.095 -0.041,0.122 -0.149,0.122 -0.176,0 -0.445,-0.041 -1.852,-0.041 -1.326,0 -1.65,0.041 -1.786,0.041 -0.081,0 -0.108,-0.041 -0.108,-0.122 l 0,-0.312 c 0,-0.068 0.027,-0.108 0.081,-0.108 l 0.46,0 c 0.299,0 0.515,-0.081 0.515,-0.446 0.026,-1.353 0.026,-2.624 0.026,-3.895 l 0,-3.557 c 0,-0.46 -0.188,-0.676 -0.433,-0.676 l -0.527,0 c -0.067,0 -0.095,-0.027 -0.095,-0.081 l 0,-0.365 c 0,-0.068 0.027,-0.095 0.095,-0.095 0.096,0 0.527,0.041 1.854,0.041 0.757,0 2.001,-0.041 2.407,-0.041 1.082,0 1.92,0.365 2.461,0.852 0.486,0.433 0.73,1.001 0.73,1.515 0,1.704 -1.027,2.407 -2.516,2.65 l 0,0.054 c 0.379,0.136 0.622,0.379 0.811,0.622 0.163,0.217 1.001,1.488 1.11,1.65 0.081,0.136 0.946,1.353 1.149,1.542 0.257,0.23 0.636,0.257 0.96,0.257 0.081,0 0.107,0.041 0.107,0.095 l 0,0.284 c 0,0.094 -0.026,0.135 -0.107,0.135 -0.108,0 -0.46,-0.041 -1.325,-0.041 -0.379,0 -0.894,0.028 -1.19,0.041 -0.163,-0.122 -0.42,-0.487 -0.595,-0.771 C 23.887,20.454 23.36,19.48 23.237,19.263 23.102,19.02 22.723,18.398 22.508,18.1 22.17,17.627 21.859,17.262 21.291,17.262 c -0.055,0 -0.284,0.013 -0.434,0.027 l 0,0.731 0,0 z m 0.028,-1.218 c 0.189,0.027 0.352,0.054 0.514,0.054 2.11,0 2.542,-1.704 2.542,-2.326 0,-0.622 -0.257,-1.204 -0.595,-1.515 -0.487,-0.432 -1.109,-0.581 -1.785,-0.581 -0.216,0 -0.378,0.013 -0.486,0.081 -0.108,0.068 -0.162,0.23 -0.162,0.392 l -0.028,3.895 z"
           inkscape:connector-curvature="0" />
        <path
           style="fill:#31875a"
           id="path2845"
           d="m 29.981,18.002 c 0,0.11 0.021,2.637 0.021,2.758 0,0.352 0.176,0.396 0.439,0.396 l 0.462,0 c 0.044,0 0.088,0.022 0.088,0.076 l 0,0.275 c 0,0.066 -0.044,0.088 -0.11,0.088 -0.132,0 -0.571,-0.033 -1.604,-0.033 -1.1,0 -1.583,0.033 -1.692,0.033 -0.066,0 -0.088,-0.022 -0.088,-0.077 l 0,-0.297 c 0,-0.043 0.021,-0.065 0.088,-0.065 l 0.439,0 c 0.22,0 0.462,-0.022 0.506,-0.319 0.021,-0.154 0.044,-2.527 0.044,-3.121 l 0,-0.769 c 0,-0.264 -0.022,-2.242 -0.033,-2.384 -0.033,-0.264 -0.143,-0.374 -0.451,-0.374 l -0.57,0 c -0.065,0 -0.088,-0.022 -0.088,-0.077 l 0,-0.286 c 0,-0.054 0.022,-0.076 0.066,-0.076 0.131,0 0.703,0.032 1.78,0.032 1.055,0 1.405,-0.032 1.56,-0.032 0.066,0 0.088,0.043 0.088,0.098 l 0,0.253 c 0,0.066 -0.044,0.088 -0.088,0.088 l -0.417,0 c -0.242,0 -0.418,0.088 -0.418,0.297 0,0.11 -0.021,2.527 -0.021,2.659 l 0,0.857 -10e-4,0 z"
           inkscape:connector-curvature="0" />
        <path
           style="fill:#31875a"
           id="path2847"
           d="m 32.915,16.508 c 0,-0.286 -0.044,-1.846 -0.066,-2.011 -0.021,-0.263 -0.176,-0.307 -0.396,-0.307 l -0.593,0 c -0.044,0 -0.088,-0.022 -0.088,-0.077 l 0,-0.297 c 0,-0.044 0.044,-0.066 0.099,-0.066 0.318,0 0.89,0.033 1.659,0.033 0.549,0 1.099,-0.033 1.647,-0.033 1.473,0 2.659,0.143 3.67,1 0.726,0.593 1.231,1.516 1.231,2.791 0,1.253 -0.353,2.088 -1.077,2.879 -1.077,1.165 -2.791,1.176 -3.538,1.176 -0.418,0 -1.539,-0.033 -2.088,-0.033 -0.967,0 -1.406,0.033 -1.56,0.033 -0.044,0 -0.066,-0.022 -0.066,-0.099 l 0,-0.275 c 0,-0.044 0.022,-0.066 0.088,-0.066 l 0.637,0 c 0.221,0 0.33,-0.088 0.362,-0.275 0.034,-0.219 0.078,-2.703 0.078,-3.538 l 0,-0.835 10e-4,0 z m 1.384,1.077 c 0,0.132 0.022,2 0.022,2.681 0,0.22 0.044,0.396 0.197,0.615 0.133,0.209 0.55,0.297 0.968,0.297 0.856,0 1.735,-0.385 2.284,-1.11 0.463,-0.593 0.791,-1.494 0.791,-2.505 0,-0.879 -0.372,-1.824 -0.879,-2.396 -0.593,-0.637 -1.56,-1.032 -2.461,-1.032 -0.242,0 -0.526,0 -0.703,0.11 -0.153,0.087 -0.197,0.263 -0.197,0.483 -0.022,0.462 -0.022,1.89 -0.022,2.066 l 0,0.791 z"
           inkscape:connector-curvature="0" />
        <path
           style="fill:#31875a"
           id="path2849"
           d="m 48.649,20.475 c 0,0.154 0.044,0.264 0.044,0.352 0,0.088 -0.066,0.131 -0.176,0.175 -0.901,0.462 -1.802,0.726 -3.12,0.726 -1.077,0 -2.418,-0.374 -3.165,-1.275 -0.681,-0.747 -1.011,-1.692 -1.011,-2.989 0,-1.011 0.438,-2.066 1.253,-2.769 0.791,-0.703 1.802,-1.077 3.12,-1.077 1.055,0 1.89,0.33 2.241,0.594 0.133,0.099 0.198,0.065 0.265,-0.022 l 0.131,-0.176 c 0.055,-0.077 0.088,-0.11 0.154,-0.11 0.109,0 0.132,0.066 0.132,0.154 l 0.109,2.197 c 0,0.088 0,0.143 -0.044,0.154 l -0.264,0.044 c -0.066,0.011 -0.088,-0.022 -0.11,-0.088 -0.152,-0.439 -0.438,-1.054 -0.879,-1.516 -0.373,-0.396 -0.987,-0.769 -1.824,-0.769 -0.681,0 -1.273,0.176 -1.867,0.857 -0.527,0.593 -0.901,1.516 -0.901,2.483 0,1.297 0.352,2.418 0.989,3.055 0.527,0.505 1.055,0.747 1.758,0.747 0.704,0 1.121,-0.088 1.495,-0.286 0.242,-0.131 0.264,-0.439 0.264,-1.01 l 0,-0.803 c 0,-0.395 -0.111,-0.505 -0.396,-0.505 l -0.462,0 c -0.065,0 -0.088,-0.044 -0.088,-0.099 l 0,-0.253 c 0,-0.066 0.022,-0.087 0.065,-0.087 0.132,0 0.66,0.032 1.562,0.032 0.923,0 1.296,-0.032 1.405,-0.032 0.088,0 0.11,0.021 0.11,0.076 l 0,0.275 c 0,0.066 -0.022,0.088 -0.088,0.088 l -0.373,0 c -0.198,0 -0.33,0.088 -0.33,0.406 l 0,1.451 10e-4,0 z"
           inkscape:connector-curvature="0" />
        <path
           style="fill:#31875a"
           id="path2851"
           d="m 52.418,18.376 c 0.011,0.593 0.033,1.67 0.033,1.868 0,0.571 0.197,0.791 0.439,0.857 0.175,0.044 0.439,0.088 0.857,0.088 0.196,0 0.703,-0.022 0.923,-0.044 0.197,-0.022 0.615,-0.132 0.9,-0.374 0.197,-0.175 0.813,-0.901 1.022,-1.164 0.043,-0.055 0.076,-0.066 0.12,-0.044 l 0.176,0.11 c 0.033,0.022 0.044,0.055 0.022,0.109 l -0.527,1.649 c -0.033,0.099 -0.11,0.164 -0.242,0.164 -0.055,0 -0.297,-0.011 -0.978,-0.021 -0.692,0 -1.824,-0.011 -3.659,-0.011 -0.407,0 -0.703,0.011 -0.935,0.011 -0.22,0.01 -0.373,0.021 -0.472,0.021 -0.065,0 -0.088,-0.021 -0.088,-0.087 l 0,-0.264 c 0,-0.066 0.022,-0.088 0.11,-0.088 l 0.373,0 c 0.506,0 0.549,-0.066 0.549,-0.473 l 0,-2.615 0,-1.076 c 0,-0.902 -0.021,-2.264 -0.043,-2.418 -0.044,-0.297 -0.154,-0.385 -0.484,-0.385 l -0.414,0 c -0.045,0 -0.065,-0.022 -0.065,-0.076 l 0,-0.286 c 0,-0.055 0.011,-0.077 0.065,-0.077 0.241,0 0.637,0.044 1.538,0.033 l 0.307,0 c 0.484,0 3.012,-0.022 3.495,-0.022 0.177,0 0.385,-0.011 0.439,-0.011 0.054,0 0.077,0.022 0.088,0.066 0.044,0.143 0.462,1.637 0.506,1.747 0.022,0.066 0.011,0.099 -0.033,0.121 l -0.197,0.088 c -0.033,0.011 -0.066,0 -0.1,-0.055 C 56.099,15.651 55.199,14.64 54.934,14.486 54.705,14.354 54.408,14.211 54.099,14.2 l -1.67,-0.044 -0.021,3.176 c 0.329,0 1.12,-0.022 1.253,-0.055 0.24,-0.044 0.373,-0.132 0.505,-0.395 0.065,-0.143 0.176,-0.418 0.176,-0.616 0,-0.066 0.044,-0.088 0.088,-0.088 l 0.286,0.022 c 0.044,0 0.077,0.022 0.066,0.088 -0.022,0.176 -0.022,0.901 -0.022,1.187 0,0.44 0.044,0.967 0.065,1.209 0,0.055 -0.021,0.066 -0.088,0.077 l -0.241,0.044 c -0.044,0.011 -0.066,-0.011 -0.088,-0.077 -0.045,-0.176 -0.121,-0.418 -0.177,-0.55 -0.099,-0.22 -0.308,-0.373 -0.549,-0.395 -0.396,-0.044 -0.923,-0.066 -1.274,-0.066 l 0.01,0.659 z"
           inkscape:connector-curvature="0" />
      </g>
    </g>
  </g>
  <g
     inkscape:groupmode="layer"
     id="layer3"
     inkscape:label="ut">
    <g
       id="g6135"
       transform="matrix(1.0127409,0,0,1.0127409,149.63614,38.691611)">
      <path
         id="path6109"
         d="m 65.2,291.4 c 1,0.8 1.8,2.5 2.4,5.2 0.2,1.1 0.7,1.7 1.4,1.7 0.8,-0.1 1.3,-0.7 1.1,-1.8 0,-0.6 -0.1,-1.5 -0.3,-2.8 -0.2,-1 -0.2,-2.6 -0.2,-4.8 0,-2.2 -0.2,-3.6 -0.7,-4 -0.5,-0.4 -1.7,-0.7 -3.8,-0.7 l -60.4,0 c -1.3,0 -2.1,0.2 -2.5,0.8 -0.3,0.6 -0.6,1.7 -0.6,3.4 0,1.7 -0.2,4 -0.8,6.7 -0.5,2.1 -0.7,3.6 -0.7,4.4 0,0.9 0.3,1.5 1,1.5 0.7,0 1.1,-0.7 1.5,-2.2 0.8,-3.3 1.8,-5.6 3.2,-6.9 1.4,-1.3 3.6,-1.8 6.5,-1.8 l 14.9,0 c 1.4,0 2.3,0.2 2.8,0.6 0.3,0.3 0.6,1.3 0.6,2.6 l 0,1.5 0,55.7 c 0,3.1 -0.5,5.3 -1.5,6.5 -1,1.2 -3,2.1 -5.8,2.4 -1.3,0.1 -1.8,0.5 -1.8,1.1 0,0.8 0.6,1.1 1.7,1.1 0.3,0 1.6,-0.1 3.8,-0.3 1,-0.1 2.4,-0.1 4,-0.1 l 4.4,0 4.1,0 c 2.6,0 4.4,0 5,0.1 1.4,0.2 2.3,0.3 2.8,0.3 1,0 1.6,-0.5 1.6,-1.3 0,-0.6 -0.7,-1 -1.9,-1.3 -4.7,-0.8 -7.1,-3.4 -7.3,-7.8 l 0,-2.2 0,-55 c 0,-1.7 0.2,-2.9 0.7,-3.3 0.5,-0.4 1.5,-0.7 3.1,-0.7 l 15.7,0 c 2.8,0.2 4.9,0.6 6,1.4 l 0,0 z m 30.4,-2.1 c 0.7,-0.6 2.2,-0.9 4.5,-0.9 l 8.8,0 c 5.7,0 9.7,0.2 11.9,0.8 2.2,0.6 3.6,1.7 4.4,3.3 0.5,1 0.7,2.2 0.7,3.4 l 0,1.5 c 0,1.1 0.3,1.7 1,1.7 0.7,0 1,-0.3 1.3,-0.9 0.3,-0.6 0.3,-1.9 0.6,-4 l 0.2,-3.3 c 0.2,-2.4 0.3,-3.9 0.5,-4.5 0.1,-0.6 0.1,-0.9 0.1,-1.3 0,-1 -0.6,-1.6 -1.8,-1.6 -0.5,0 -1.3,0.1 -2.3,0.2 -0.5,0.1 -1.8,0.1 -4,0.2 l -7.9,0.3 c -3.6,0.1 -7.6,0.2 -12.2,0.2 -7.6,0 -14,-0.3 -19.3,-0.9 -1.6,-0.2 -2.9,-0.2 -3.8,-0.2 -1.7,0 -2.5,0.5 -2.5,1.5 0,0.7 0.6,1 1.6,1 3.4,0 5.7,0.9 6.9,2.8 1.2,1.9 1.7,5.5 1.7,10.8 l 0,47.6 0,3.7 c 0,4.5 -1.4,7.1 -4,7.9 l -2.2,0.6 c -0.9,0.2 -1.5,0.7 -1.5,1.3 0,0.8 0.6,1.3 1.8,1.3 0.6,0 1.5,-0.1 2.9,-0.3 2.6,-0.5 7.3,-0.7 13.9,-0.7 4.7,0 10.5,0.3 17.8,1 1.8,0.1 3.3,0.2 4.4,0.2 5,0 9.2,-2.1 12.5,-6.1 2.8,-3.3 4.1,-6.2 4.1,-8.7 0,-1 -0.3,-1.5 -1,-1.5 -0.5,0 -0.8,0.3 -1.3,1 -4.1,6.7 -13.6,10 -28.3,10 -4.6,0 -7.6,-0.3 -8.6,-1.1 -1.1,-0.8 -1.7,-2.8 -1.7,-6 l 0,-20.6 0,-2 c 0,-1.1 0.3,-1.8 0.9,-2.3 0.6,-0.3 1.8,-0.6 3.7,-0.6 l 12.4,0 c 3.2,0 5.5,0.5 6.9,1.4 1.4,0.9 2.3,2.6 2.6,5.2 l 0.3,1.6 c 0.1,0.8 0.7,1.3 1.5,1.3 0.7,0 1.1,-0.5 1.1,-1.4 0,-0.3 0,-0.9 -0.1,-1.6 -0.2,-2.3 -0.3,-4.5 -0.3,-6.8 0,-3 0.1,-6.3 0.5,-9.9 0,-0.6 0.1,-0.9 0.1,-1.3 0,-0.9 -0.3,-1.5 -1.1,-1.5 -0.8,0 -1.3,0.5 -1.4,1.4 -0.5,2.5 -1,4 -1.6,4.7 -0.6,0.7 -1.9,1.3 -3.9,1.6 -2.3,0.5 -5.4,0.7 -9.3,0.7 l -8.6,0 c -1.6,0 -2.5,-0.2 -2.9,-0.6 -0.4,-0.4 -0.5,-1.4 -0.5,-3.1 l 0,-22.6 c -0.5,-2.1 -0.2,-3.3 0.5,-3.9 l 0,0 z m 113.9,12.8 0,-6.1 c 0,-3.6 0.3,-6.1 1.1,-7.3 0.7,-1.3 2.2,-2.3 4.5,-2.8 0.8,-0.2 1.1,-0.6 1.1,-1 -0.1,-0.8 -0.6,-1.1 -1.6,-1.1 -0.7,0 -1.6,0.1 -2.8,0.3 -1.4,0.2 -3.2,0.3 -5.5,0.3 -4.4,0 -7.8,-0.1 -10.4,-0.5 -1,-0.1 -1.8,-0.1 -2.4,-0.1 -1,0 -1.6,0.3 -1.6,1 0,0.7 0.6,1.1 1.6,1.4 3.9,0.7 6.5,1.6 8,3 1.5,1.4 2.4,3.6 2.8,6.8 l 0.7,13 -0.1,7.6 0,27.8 c 0,0.7 -0.2,1 -0.6,1 -0.2,0 -0.8,-0.5 -1.6,-1.4 l -51.6,-58.5 c -0.9,-1 -1.8,-1.6 -2.8,-1.6 -0.5,0 -1.1,0 -2.1,0.1 l -0.9,0 -3.8,-0.1 -2.3,0 c -0.5,0 -0.7,0 -0.9,0 -0.8,0 -1.3,0.3 -1.3,1 0,0.7 0.5,1.1 1.5,1.3 3.9,0.6 6.9,2.6 8.9,6.4 2.1,3.7 3.1,8.8 3.1,15.3 l 0,38.2 c 0,4 -0.6,7 -1.6,8.8 -1.1,1.8 -3.2,3.2 -6.4,4.4 -1,0.3 -1.6,0.8 -1.6,1.4 0.1,0.7 0.6,1 1.6,1 0.5,0 1.1,-0.1 2.1,-0.2 1.3,-0.1 2.6,-0.2 4.1,-0.2 l 2.6,-0.1 5.7,0.2 c 2.9,0.1 4.5,0.2 4.9,0.3 0.6,0.1 1.1,0.1 1.7,0.1 0.8,0 1.1,-0.3 1.1,-1.1 0,-0.8 -0.6,-1.3 -1.8,-1.4 -3,-0.5 -4.9,-1.1 -6,-2.1 -1,-0.9 -1.6,-2.6 -1.9,-5.2 l -0.1,-4 0,-2.4 0,-38.1 c 0,-1.7 0.3,-2.5 1,-2.5 0.3,0 0.6,0.1 0.8,0.3 l 0.6,0.6 47.2,54.1 1.3,1.5 c 0.3,0.3 0.7,0.5 1.3,0.5 0.8,0 1.4,-0.5 1.6,-1.4 0.2,-0.9 0.2,-3.4 0.2,-7.7 l 0,-47 0.6,-3.8 0,0 z m 81.3,0 0,-6.1 c 0,-3.6 0.3,-6.1 1.1,-7.3 0.7,-1.3 2.2,-2.3 4.5,-2.8 0.8,-0.2 1.1,-0.6 1.1,-1 -0.1,-0.8 -0.6,-1.1 -1.6,-1.1 -0.7,0 -1.6,0.1 -2.8,0.3 -1.4,0.2 -3.2,0.3 -5.5,0.3 -4.4,0 -7.8,-0.1 -10.4,-0.5 -1,-0.1 -1.8,-0.1 -2.4,-0.1 -1,0 -1.6,0.3 -1.6,1 0,0.7 0.6,1.1 1.6,1.4 3.9,0.7 6.5,1.6 8,3 1.5,1.4 2.4,3.6 2.8,6.8 l 0.7,13 0,7.6 0,27.8 c 0,0.7 -0.2,1 -0.6,1 -0.2,0 -0.8,-0.5 -1.6,-1.4 l -51.6,-58.5 c -0.9,-1 -1.8,-1.6 -2.8,-1.6 -0.5,0 -1.1,0 -2.1,0.1 l -0.9,0 -3.8,-0.1 -2.3,0 c -0.5,0 -0.7,0 -0.9,0 -0.8,0 -1.3,0.3 -1.3,1 0,0.7 0.5,1.1 1.5,1.3 3.9,0.6 6.9,2.6 8.9,6.4 2.1,3.7 3.1,8.8 3.1,15.3 l 0,38.2 c 0,4 -0.6,7 -1.6,8.8 -1.1,1.8 -3.2,3.2 -6.4,4.4 -1,0.3 -1.6,0.8 -1.6,1.4 0.1,0.7 0.6,1 1.6,1 0.5,0 1.1,-0.1 2.1,-0.2 1.3,-0.1 2.6,-0.2 4.1,-0.2 l 2.6,-0.1 5.7,0.2 c 2.9,0.1 4.5,0.2 4.9,0.3 0.6,0.1 1.1,0.1 1.7,0.1 0.8,0 1.1,-0.3 1.1,-1.1 0,-0.8 -0.6,-1.3 -1.8,-1.4 -3,-0.5 -4.9,-1.1 -6,-2.1 -1,-0.9 -1.6,-2.6 -1.9,-5.2 l -0.1,-4 0.1,-2.4 0,-38.1 c 0,-1.7 0.3,-2.5 1,-2.5 0.3,0 0.6,0.1 0.8,0.3 l 0.6,0.6 47.2,54.1 1.3,1.5 c 0.3,0.3 0.7,0.5 1.3,0.5 0.8,0 1.4,-0.5 1.6,-1.4 0.2,-0.9 0.2,-3.4 0.2,-7.7 l 0,-47 0.4,-3.8 0,0 z m 30.7,-12.8 c 0.7,-0.6 2.2,-0.9 4.5,-0.9 l 8.8,0 c 5.7,0 9.7,0.2 11.9,0.8 2.2,0.6 3.6,1.7 4.4,3.3 0.5,1 0.7,2.2 0.7,3.4 l 0,1.5 c 0,1.1 0.3,1.7 1,1.7 0.7,0 1,-0.3 1.3,-0.9 0.2,-0.6 0.3,-1.9 0.6,-4 l 0.2,-3.3 c 0.2,-2.4 0.3,-3.9 0.5,-4.5 0.1,-0.6 0.1,-0.9 0.1,-1.3 0,-1 -0.6,-1.6 -1.8,-1.6 -0.5,0 -1.3,0.1 -2.3,0.2 -0.5,0.1 -1.8,0.1 -4,0.2 l -7.9,0.3 c -3.6,0.1 -7.6,0.2 -12.2,0.2 -7.6,0 -14,-0.3 -19.3,-0.9 -1.6,-0.2 -2.9,-0.2 -3.8,-0.2 -1.7,0 -2.5,0.5 -2.5,1.5 0,0.7 0.6,1 1.6,1 3.4,0 5.7,0.9 6.9,2.8 1.2,1.9 1.7,5.5 1.7,10.8 l 0,47.6 -0.1,3.7 c 0,4.5 -1.4,7.1 -4,7.9 l -2.2,0.6 c -0.9,0.2 -1.5,0.7 -1.5,1.3 0,0.8 0.6,1.3 1.8,1.3 0.6,0 1.5,-0.1 2.9,-0.3 2.6,-0.5 7.3,-0.7 13.9,-0.7 4.7,0 10.5,0.3 17.8,1 1.8,0.1 3.3,0.2 4.4,0.2 5,0 9.2,-2.1 12.5,-6.1 2.8,-3.3 4.1,-6.2 4.1,-8.7 0,-1 -0.3,-1.5 -1,-1.5 -0.5,0 -0.8,0.3 -1.3,1 -4.1,6.7 -13.6,10 -28.3,10 -4.6,0 -7.6,-0.3 -8.6,-1.1 -1.1,-0.8 -1.7,-2.8 -1.7,-6 l 0,-20.6 0,-2 c 0,-1.1 0.3,-1.8 0.9,-2.3 0.6,-0.3 1.8,-0.6 3.7,-0.6 l 12.4,0 c 3.2,0 5.5,0.5 6.9,1.4 1.4,0.9 2.3,2.6 2.6,5.2 l 0.3,1.6 c 0.1,0.8 0.6,1.3 1.5,1.3 0.7,0 1.1,-0.5 1.1,-1.4 0,-0.3 0,-0.9 -0.1,-1.6 -0.2,-2.3 -0.3,-4.5 -0.3,-6.8 0,-3 0.1,-6.3 0.5,-9.9 0,-0.6 0.1,-0.9 0.1,-1.3 0,-0.9 -0.3,-1.5 -1.1,-1.5 -0.8,0 -1.3,0.5 -1.4,1.4 -0.5,2.5 -1,4 -1.6,4.7 -0.6,0.7 -1.9,1.3 -3.9,1.6 -2.3,0.5 -5.4,0.7 -9.3,0.7 l -8.6,0 c -1.6,0 -2.5,-0.2 -2.9,-0.6 -0.4,-0.4 -0.5,-1.4 -0.5,-3.1 l 0,-22.6 c -0.3,-2.1 -0.1,-3.3 0.6,-3.9 l 0,0 z m 57.6,-0.7 c -4.5,3.8 -6.8,8.7 -6.8,14.8 0,5.4 1.7,9.9 5.2,13.2 3.4,3.4 9.3,6.5 17.7,9.3 8,2.6 12.8,4.8 14.6,6.2 3.3,2.9 4.9,6.3 4.9,10.5 0,4.4 -1.8,8 -5.4,11 -3.6,3 -7.9,4.6 -13.1,4.6 -5,0 -9.7,-1.6 -14.1,-4.7 -4.4,-3.1 -7.1,-7.1 -8.5,-11.7 -0.6,-1.8 -1.1,-2.8 -1.8,-2.8 -0.8,0 -1.1,0.5 -1.1,1.6 0,1.4 0.5,3.8 1.5,7.2 0.9,3.1 1.4,4.8 1.4,5.2 0.5,2.1 0.8,3.4 1,3.9 0.2,0.5 0.7,1 1.4,1.4 1.6,1 4.1,2.1 7.6,2.9 3.4,0.8 6.7,1.3 9.5,1.3 7.9,0 14.4,-2.2 19.6,-6.7 5,-4.5 7.7,-10.2 7.7,-17.2 0,-10.3 -6.9,-17.8 -20.8,-22.2 -7.1,-2.4 -11.6,-4 -13.4,-4.9 -1.8,-0.9 -3.4,-2.3 -5,-4.2 -1.7,-2.3 -2.6,-5 -2.6,-8.1 0,-3.6 1.4,-6.5 4,-8.9 2.8,-2.4 6.1,-3.6 10.1,-3.6 5,0 9.6,1.3 13.8,3.9 4.2,2.6 6.9,6 8.1,10 0.6,1.8 1.3,2.8 1.8,2.8 0.8,0 1.1,-0.6 1.1,-1.7 0,-0.3 -0.1,-1 -0.2,-2.3 l -0.9,-5.7 c -0.5,-3.1 -0.7,-5 -0.7,-5.6 0,-1.8 -0.5,-2.8 -1.4,-2.8 -0.3,0 -0.5,0.1 -0.6,0.2 l -0.8,0.7 c -0.5,0.3 -0.9,0.6 -1.4,0.6 -0.3,0 -0.7,-0.1 -1,-0.2 l -3.9,-1.6 c -2.8,-1.1 -6.2,-1.7 -10.2,-1.7 -7,-0.4 -12.7,1.4 -17.3,5.3 l 0,0 z m 60.4,0 c -4.5,3.8 -6.8,8.7 -6.8,14.8 0,5.4 1.7,9.9 5.2,13.2 3.4,3.4 9.3,6.5 17.7,9.3 8,2.6 12.8,4.8 14.6,6.2 3.3,2.9 4.9,6.3 4.9,10.5 0,4.4 -1.8,8 -5.4,11 -3.6,3 -7.9,4.6 -13.1,4.6 -5,0 -9.7,-1.6 -14.1,-4.7 -4.4,-3.1 -7.1,-7.1 -8.5,-11.7 -0.6,-1.8 -1.1,-2.8 -1.8,-2.8 -0.8,0 -1.1,0.5 -1.1,1.6 0,1.4 0.5,3.8 1.5,7.2 0.8,3.1 1.4,4.8 1.4,5.2 0.5,2.1 0.8,3.4 1,3.9 0.2,0.5 0.7,1 1.4,1.4 1.6,1 4.1,2.1 7.6,2.9 3.4,0.8 6.7,1.3 9.5,1.3 7.9,0 14.4,-2.2 19.6,-6.7 5,-4.5 7.7,-10.2 7.7,-17.2 0,-10.3 -6.9,-17.8 -20.8,-22.2 -7.1,-2.4 -11.6,-4 -13.4,-4.9 -1.8,-0.9 -3.4,-2.3 -5,-4.2 -1.7,-2.3 -2.6,-5 -2.6,-8.1 0,-3.6 1.4,-6.5 4,-8.9 2.8,-2.4 6.1,-3.6 10.1,-3.6 5,0 9.6,1.3 13.8,3.9 4.2,2.6 6.9,6 8.1,10 0.6,1.8 1.3,2.8 1.8,2.8 0.8,0 1.1,-0.6 1.1,-1.7 0,-0.3 -0.1,-1 -0.2,-2.3 l -0.9,-5.7 c -0.5,-3.1 -0.7,-5 -0.7,-5.6 0,-1.8 -0.5,-2.8 -1.4,-2.8 -0.3,0 -0.5,0.1 -0.6,0.2 l -0.8,0.7 c -0.5,0.3 -0.9,0.6 -1.4,0.6 -0.3,0 -0.7,-0.1 -1,-0.2 L 467,285 c -2.8,-1.1 -6.2,-1.7 -10.2,-1.7 -6.9,-0.4 -12.7,1.4 -17.3,5.3 l 0,0 z m 68.3,0.7 c 0.7,-0.6 2.2,-0.9 4.5,-0.9 l 8.8,0 c 5.7,0 9.7,0.2 11.9,0.8 2.2,0.6 3.6,1.7 4.4,3.3 0.5,1 0.7,2.2 0.7,3.4 l 0,1.5 c 0,1.1 0.3,1.7 1,1.7 0.7,0 1,-0.3 1.3,-0.9 0.2,-0.6 0.3,-1.9 0.6,-4 l 0.2,-3.3 c 0.2,-2.4 0.3,-3.9 0.5,-4.5 0.1,-0.6 0.1,-0.9 0.1,-1.3 0,-1 -0.6,-1.6 -1.8,-1.6 -0.5,0 -1.3,0.1 -2.3,0.2 -0.5,0.1 -1.8,0.1 -4,0.2 l -7.9,0.3 c -3.6,0.1 -7.6,0.2 -12.2,0.2 -7.6,0 -14,-0.3 -19.3,-0.9 -1.6,-0.2 -2.9,-0.2 -3.8,-0.2 -1.7,0 -2.5,0.5 -2.5,1.5 0,0.7 0.6,1 1.6,1 3.4,0 5.7,0.9 6.9,2.8 1.2,1.9 1.7,5.5 1.7,10.8 l 0,47.6 -0.1,3.7 c 0,4.5 -1.4,7.1 -4,7.9 l -2.1,0.7 c -1,0.2 -1.5,0.7 -1.5,1.3 0,0.8 0.6,1.3 1.8,1.3 0.6,0 1.5,-0.1 2.9,-0.3 2.6,-0.5 7.3,-0.7 13.9,-0.7 4.7,0 10.5,0.3 17.8,1 1.8,0.1 3.3,0.2 4.4,0.2 5,0 9.2,-2.1 12.5,-6.1 2.8,-3.3 4.1,-6.2 4.1,-8.7 0,-1 -0.3,-1.5 -1,-1.5 -0.5,0 -0.8,0.3 -1.3,1 -4.1,6.7 -13.6,10 -28.3,10 -4.6,0 -7.6,-0.3 -8.6,-1.1 -1.1,-0.8 -1.7,-2.8 -1.7,-6 l 0,-20.7 0,-1.8 c 0,-1.1 0.3,-1.8 0.9,-2.3 0.6,-0.3 1.8,-0.6 3.7,-0.6 l 12.4,0 c 3.2,0 5.5,0.5 6.9,1.4 1.4,0.9 2.3,2.6 2.6,5.2 l 0.3,1.6 c 0.1,0.8 0.6,1.3 1.5,1.3 0.7,0 1.1,-0.5 1.1,-1.4 0,-0.3 0,-0.9 -0.1,-1.6 -0.2,-2.3 -0.3,-4.5 -0.3,-6.8 0,-3 0.1,-6.3 0.5,-9.9 0,-0.6 0.1,-0.9 0.1,-1.3 0,-0.9 -0.3,-1.5 -1.1,-1.5 -0.8,0 -1.3,0.5 -1.4,1.4 -0.5,2.5 -1,4 -1.6,4.7 -0.6,0.7 -1.9,1.3 -3.9,1.6 -2.3,0.5 -5.4,0.7 -9.3,0.7 l -8.6,0 c -1.6,0 -2.5,-0.2 -2.9,-0.6 -0.4,-0.4 -0.5,-1.4 -0.5,-3.1 l 0,-22.6 c -0.6,-2.3 -0.2,-3.5 0.5,-4.1 l 0,0 z m 64.3,0 c 0.7,-0.6 2.2,-0.9 4.5,-0.9 l 8.8,0 c 5.7,0 9.7,0.2 11.9,0.8 2.2,0.6 3.6,1.7 4.4,3.3 0.5,1 0.7,2.2 0.7,3.4 l 0,1.5 c 0,1.1 0.3,1.7 1,1.7 0.7,0 1,-0.3 1.3,-0.9 0.2,-0.6 0.3,-1.9 0.6,-4 l 0.2,-3.3 c 0.2,-2.4 0.3,-3.9 0.5,-4.5 0.1,-0.6 0.1,-0.9 0.1,-1.3 0,-1 -0.6,-1.6 -1.8,-1.6 -0.5,0 -1.3,0.1 -2.3,0.2 -0.5,0.1 -1.8,0.1 -4,0.2 l -7.9,0.3 c -3.6,0.1 -7.6,0.2 -12.2,0.2 -7.6,0 -14,-0.3 -19.3,-0.9 -1.6,-0.2 -2.9,-0.2 -3.8,-0.2 -1.7,0 -2.5,0.5 -2.5,1.5 0,0.7 0.6,1 1.6,1 3.4,0 5.7,0.9 6.9,2.8 1.1,1.8 1.7,5.5 1.7,10.8 l 0,47.6 0,3.7 c 0,4.5 -1.4,7.1 -4,7.9 l -2.2,0.6 c -0.9,0.2 -1.5,0.7 -1.5,1.3 0,0.8 0.6,1.3 1.8,1.3 0.6,0 1.5,-0.1 2.9,-0.3 2.6,-0.5 7.3,-0.7 13.9,-0.7 4.7,0 10.5,0.3 17.8,1 1.8,0.1 3.3,0.2 4.4,0.2 5,0 9.2,-2.1 12.5,-6.1 2.8,-3.3 4.1,-6.2 4.1,-8.7 0,-1 -0.3,-1.5 -1,-1.5 -0.5,0 -0.8,0.3 -1.3,1 -4.1,6.7 -13.6,10 -28.3,10 -4.6,0 -7.6,-0.3 -8.6,-1.1 -1.1,-0.8 -1.7,-2.8 -1.7,-6 l 0,-20.6 0,-2 c 0,-1.1 0.3,-1.8 0.9,-2.3 0.6,-0.3 1.8,-0.6 3.7,-0.6 l 12.4,0 c 3.2,0 5.5,0.5 6.9,1.4 1.4,0.9 2.3,2.6 2.6,5.2 l 0.3,1.6 c 0.1,0.8 0.7,1.3 1.5,1.3 0.7,0 1.1,-0.5 1.1,-1.4 0,-0.3 0,-0.9 -0.1,-1.6 -0.2,-2.3 -0.3,-4.5 -0.3,-6.8 0,-3 0.1,-6.3 0.5,-9.9 0,-0.6 0.1,-0.9 0.1,-1.3 0,-0.9 -0.3,-1.5 -1.1,-1.5 -0.8,0 -1.3,0.5 -1.5,1.4 -0.5,2.5 -1,4 -1.6,4.7 -0.6,0.7 -1.9,1.3 -3.9,1.6 -2.3,0.5 -5.4,0.7 -9.3,0.7 l -8.6,0 c -1.6,0 -2.5,-0.2 -2.9,-0.6 -0.4,-0.4 -0.5,-1.4 -0.5,-3.1 l 0,-22.6 c -0.4,-2.1 -0.1,-3.3 0.6,-3.9 l 0,0 z"
         inkscape:connector-curvature="0"
         style="fill:#5c5d60" />
      <path
         id="path6111"
         d="m 20,237.5 c 0.6,-0.3 2.2,-0.6 4.6,-0.6 1.8,0 3.2,0.3 4.2,1 0.9,0.7 1.6,1.7 1.9,3.3 0.1,0.6 0.5,0.9 0.8,0.9 0.5,0 0.7,-0.2 0.7,-0.8 0,-0.6 -0.1,-1.3 -0.1,-2.1 -0.1,-1 -0.2,-1.7 -0.2,-1.9 l -0.1,-1.7 c 0,-0.8 -0.6,-1.1 -1.4,-1.1 -0.2,0 -0.8,0 -1.6,0 -4.2,0.2 -8.4,0.3 -12.2,0.3 l -6,-0.1 -4.9,0 c -1.1,0 -2.1,0 -2.8,-0.1 -0.3,0 -0.7,0 -0.8,0 -0.6,0 -0.9,0.3 -1,0.9 L 1,237 0.7,239.2 0.2,241.1 C 0.1,241.9 0,242.6 0,243 c 0,0.4 0.2,0.8 0.8,0.8 0.3,0 0.7,-0.3 0.8,-1 l 0.2,-0.7 c 0.5,-1.8 0.9,-2.9 1.1,-3.3 0.2,-0.5 0.8,-0.8 1.7,-1.3 1.1,-0.5 3.4,-0.7 6.7,-0.7 1.4,0 2.1,0.7 2.1,1.9 l 0,21.7 0,1.1 c 0,1.5 -0.3,2.6 -1,3.4 -0.7,0.8 -1.7,1.3 -3,1.4 -0.5,0 -0.8,0.1 -0.9,0.2 -0.1,0.1 -0.2,0.3 -0.2,0.7 0,0.5 0.2,0.7 0.7,0.7 0.2,0 0.6,0 1.1,-0.1 l 5.4,-0.3 c 0.8,0 1.6,-0.1 2.5,-0.1 0.5,0 0.7,0 1,0 l 3.1,0.2 1.8,0.1 c 0.3,0 0.5,0 0.6,0 0.5,0 0.8,-0.2 0.8,-0.6 0,-0.6 -0.3,-0.8 -0.9,-0.9 -2.1,-0.1 -3.4,-0.8 -4.2,-1.9 -0.8,-1.1 -1.1,-3.1 -1.1,-5.8 l 0,-18.3 c -0.1,-1.5 0.3,-2.4 0.9,-2.7 l 0,0 z m 47.8,14.1 c 0.2,0.3 0.3,1.3 0.3,2.9 l 0,5.4 0,1.3 c 0,1.7 -0.2,3 -0.7,3.8 -0.5,0.8 -1.3,1.4 -2.4,1.5 -0.5,0 -0.6,0.2 -0.6,0.6 0,0.6 0.2,0.8 0.8,0.8 0.2,0 0.9,-0.1 1.8,-0.1 1.7,-0.2 3,-0.2 4,-0.2 1.6,0 3.3,0.1 5.3,0.3 0.8,0.1 1.4,0.1 1.7,0.1 0.8,0 1.3,-0.2 1.3,-0.8 0,-0.5 -0.3,-0.7 -0.9,-0.7 -1.7,0 -2.9,-0.5 -3.7,-1.5 -0.7,-1 -1.1,-2.6 -1.1,-4.9 l 0,-21 c 0,-2.1 0.9,-3.3 2.9,-3.7 0.5,-0.1 0.7,-0.3 0.7,-0.7 0,-0.5 -0.3,-0.7 -0.9,-0.7 -0.6,0 -1.5,0.1 -2.6,0.1 -1.9,0.2 -3.2,0.3 -3.9,0.3 -1.7,0 -3.3,-0.1 -4.7,-0.3 -0.8,-0.1 -1.3,-0.2 -1.6,-0.2 -0.6,0 -0.8,0.2 -0.8,0.7 0,0.3 0.2,0.7 0.7,0.7 l 1.1,0.2 c 2.3,0.5 3.4,1.7 3.4,3.8 l 0,5.3 c 0,1.8 -0.1,2.9 -0.3,3.3 -0.2,0.3 -0.8,0.6 -1.8,0.6 l -11.4,0 c -1.4,0 -2.1,-0.1 -2.4,-0.5 -0.2,-0.2 -0.3,-1.3 -0.3,-2.9 l 0,-6.3 c 0,-2.1 0.9,-3.3 2.9,-3.7 0.5,-0.1 0.7,-0.3 0.7,-0.7 0,-0.5 -0.3,-0.7 -0.9,-0.7 -0.6,0 -1.5,0.1 -2.6,0.1 -1.9,0.2 -3.2,0.3 -3.9,0.3 -1.7,0 -3.3,-0.1 -4.6,-0.3 -0.8,-0.1 -1.3,-0.2 -1.6,-0.2 -0.6,0 -0.8,0.2 -0.8,0.7 0,0.3 0.2,0.6 0.7,0.7 1.7,0.3 3,0.8 3.6,1.4 0.7,0.6 0.9,1.5 0.9,2.6 l 0,20.3 0,1.4 c 0,1.7 -0.2,3 -0.7,3.8 -0.5,0.8 -1.3,1.4 -2.4,1.5 -0.5,0 -0.6,0.2 -0.6,0.6 0,0.6 0.2,0.8 0.8,0.8 0.2,0 0.9,-0.1 1.8,-0.1 1.7,-0.2 3,-0.2 4,-0.2 1.6,0 3.3,0.1 5.3,0.3 0.9,0.1 1.5,0.1 1.7,0.1 0.8,0 1.3,-0.2 1.3,-0.8 0,-0.5 -0.2,-0.7 -0.8,-0.7 -1.7,0 -3,-0.5 -3.7,-1.5 -0.8,-1 -1.1,-2.6 -1.1,-4.9 l 0,-6.1 c 0,-1.3 0.1,-2.1 0.5,-2.4 0.2,-0.3 1,-0.5 2.2,-0.5 l 11.6,0 c 0.9,0.5 1.5,0.7 1.8,1 l 0,0 z M 98.5,239 c 0,-1.4 0.5,-2.2 1.3,-2.5 l 1.6,-0.2 3,0 c 2.6,0 4.6,0.3 5.7,1.1 1.1,0.7 1.7,1.9 1.7,3.6 0,0.7 0.1,1.1 0.5,1 0.7,0 0.9,-0.7 0.9,-1.9 0,-0.6 -0.1,-1.6 -0.2,-3.1 -0.1,-0.9 -0.1,-1.6 -0.1,-1.9 0,-0.6 -0.2,-0.8 -0.7,-0.8 -0.1,0 -0.2,0 -0.3,0 -1.3,0.1 -4.5,0.2 -9.9,0.2 l -9.3,-0.1 -2.5,-0.1 c -0.5,0 -0.9,0 -1.1,0 -0.3,0 -0.6,0 -0.7,0 -0.6,0 -0.8,0.2 -0.8,0.6 0,0.5 0.2,0.7 0.7,0.7 1.8,0.2 3.1,0.7 3.7,1.4 0.6,0.7 0.9,1.8 0.9,3.7 l 0,19.4 c 0,1.5 -0.1,2.6 -0.2,3.6 -0.2,1 -0.5,1.7 -0.8,2.2 -0.3,0.3 -0.9,0.8 -1.9,1.1 -0.3,0.1 -0.6,0.3 -0.6,0.7 0,0.4 0.2,0.6 0.7,0.6 0.3,0 0.8,0 1.5,-0.1 2.4,-0.1 4.2,-0.2 5.4,-0.2 1.7,0 3.2,0 4.2,0.1 l 2.9,0.2 c 1.3,0.1 2.4,0.2 3.4,0.2 1.7,0 3.2,-0.2 4.2,-0.8 1,-0.6 1.9,-1.5 2.6,-2.8 0.9,-1.5 1.3,-3.1 1.3,-4.7 0,-0.2 -0.1,-0.3 -0.2,-0.6 -0.1,-0.1 -0.3,-0.2 -0.5,-0.1 -0.1,0 -0.2,0.1 -0.3,0.3 -2.1,4 -6.3,6.1 -13,6.1 -0.8,0 -1.4,-0.1 -1.7,-0.3 -0.3,-0.2 -0.7,-0.8 -1,-1.5 -0.3,-1 -0.6,-2.6 -0.6,-4.9 l 0,-2.2 c 0,-1.7 0,-3 0.1,-3.9 0.1,-0.7 0.3,-1.1 0.6,-1.4 0.2,-0.2 0.8,-0.3 1.6,-0.3 l 1.6,0 c 1.7,0 2.9,0.1 3.4,0.1 0.6,0.1 1.1,0.3 1.6,0.8 0.8,0.7 1.3,1.7 1.5,3.1 0.1,0.7 0.3,0.9 0.8,0.9 0.2,0 0.3,-0.1 0.3,-0.2 0,-0.1 0.1,-0.2 0.1,-0.5 l 0,-1.3 c 0,-0.9 0,-2.1 -0.1,-3.3 -0.1,-1.9 -0.2,-3.1 -0.2,-3.7 0,-0.3 0,-0.7 0,-1 0,-0.6 0.1,-0.9 0.1,-1 0,-0.5 -0.2,-0.7 -0.6,-0.7 -0.4,0 -0.6,0.1 -0.7,0.5 l -0.6,1.1 c -0.9,1.7 -2.2,2.6 -3.8,2.6 l -2.1,0 -1,0 -0.7,0 c -0.8,0 -1.4,-0.2 -1.6,-0.6 -0.2,-0.5 -0.3,-1.4 -0.3,-2.9 l 0,-5.3 0.2,-1 0,0 z m 71.3,-4.3 c 0,0.5 0.3,0.7 0.9,0.7 1.5,0 2.6,0.5 3.4,1.3 0.8,0.8 1.4,2.1 1.4,3.6 l 0.1,5 0,1.9 c 0,4.5 -0.2,7.9 -0.8,10.3 -0.6,2.4 -1.5,4.2 -2.8,5.5 -1.9,1.8 -4.5,2.8 -7.6,2.8 -3.1,0 -5.6,-0.9 -7.6,-2.8 -1.3,-1.1 -2.2,-2.6 -2.5,-4.2 -0.5,-1.7 -0.6,-4.5 -0.6,-8.4 l 0,-4.4 0.3,-6.2 c 0.1,-1.6 0.3,-2.6 0.7,-3.2 0.3,-0.6 1,-0.9 1.9,-1.1 0.5,-0.1 0.8,-0.2 0.9,-0.3 0.1,-0.1 0.2,-0.2 0.2,-0.6 0,-0.5 -0.5,-0.7 -1.3,-0.7 -0.3,0 -0.9,0 -1.7,0.1 -1.9,0.2 -3.7,0.2 -5.3,0.2 -1.1,0 -2.8,-0.1 -4.8,-0.3 -0.5,0 -0.8,-0.1 -1,-0.1 -0.6,0 -0.8,0.2 -0.8,0.7 0,0.3 0.3,0.7 0.9,0.8 1,0.1 1.8,0.5 2.6,0.8 0.7,0.3 1.1,0.7 1.4,1.1 0.3,0.4 0.3,1.3 0.3,2.3 l 0.1,4.5 -0.2,9.4 c 0,6.1 1.6,10.3 4.7,12.4 2.3,1.6 5.5,2.3 9.6,2.3 5.8,0 10.1,-1.9 12.5,-5.7 1,-1.6 1.7,-3.8 2.2,-6.7 0.5,-2.9 0.7,-6.7 0.7,-11.4 l 0,-3 0,-2.2 c 0,-2.5 0.7,-3.9 1.9,-4.1 l 0.9,-0.1 c 0.5,-0.1 0.6,-0.2 0.6,-0.6 0,-0.5 -0.2,-0.7 -0.7,-0.7 -0.2,0 -0.5,0 -0.8,0 -0.6,0.1 -1.4,0.1 -2.2,0.2 l -2.4,0.1 -2.6,-0.1 c -1,0 -1.6,-0.1 -1.9,-0.1 -0.2,-0.1 -0.5,-0.1 -0.6,-0.1 0.1,0.5 0,0.8 0,1.1 l 0,0 0,0 z m 34.5,3.8 -1.7,-1.9 c -0.9,-1.1 -1.6,-1.8 -1.8,-2.1 -0.3,-0.2 -0.7,-0.3 -1.1,-0.3 -0.3,0 -0.8,0 -1.4,0.1 -1.5,0.1 -2.9,0.2 -4.1,0.2 l -1,0 -1.7,-0.1 c -0.6,0 -0.8,0.2 -0.8,0.7 0,0.3 0.2,0.6 0.8,0.6 3.7,0.2 5.5,2.9 5.5,7.9 l 0,10.5 -0.1,5.8 c 0,1.9 -0.2,3.6 -0.8,4.6 -0.6,1 -1.4,1.7 -2.6,2.1 -0.5,0.1 -0.7,0.3 -0.7,0.7 0,0.3 0.2,0.6 0.7,0.6 0.2,0 0.7,0 1.3,-0.1 1.3,-0.2 2.8,-0.3 4.4,-0.3 1.7,0 3.2,0.1 4.6,0.3 0.5,0.1 0.8,0.1 0.9,0.1 0.5,0 0.8,-0.2 0.8,-0.7 0,-0.3 -0.2,-0.6 -0.7,-0.6 -2.6,-0.2 -4.2,-1.3 -4.8,-3.1 -0.5,-1.7 -0.8,-5 -0.8,-10.1 l 0,-9.5 0,-0.7 c 0,-0.7 0.2,-1.1 0.6,-1.1 0.1,0 0.5,0.2 0.8,0.7 l 22.2,24.7 c 0.3,0.3 0.6,0.6 0.9,0.6 0.3,0 0.5,-0.2 0.5,-0.7 l -0.1,-3.1 0,-1.8 0,-2.8 0.1,-2.1 0.3,-15.3 0,-1.1 c 0,-3.3 1,-5.2 3.1,-5.6 0.6,-0.1 0.8,-0.3 0.8,-0.8 0,-0.5 -0.2,-0.7 -0.8,-0.7 -0.1,0 -0.3,0 -0.7,0 -2.4,0.3 -4.2,0.5 -5.4,0.5 -0.6,0 -1.3,0 -2.1,-0.1 -1.3,-0.1 -2.3,-0.2 -2.9,-0.2 -0.5,0 -0.7,0.2 -0.7,0.7 0,0.3 0.2,0.6 0.8,0.6 2.3,0.1 3.8,0.9 4.6,2.3 0.8,1.4 1.1,3.9 1.1,7.8 0,3.2 -0.1,6.7 -0.2,10.3 0,1 -0.2,1.5 -0.6,1.5 -0.3,0 -1.1,-0.6 -2.2,-1.8 l -0.8,-0.9 -13,-14.4 c -0.1,-0.6 -0.6,-1.1 -1.2,-1.9 l 0,0 0,0 z m 44.4,0.9 c 0,-1.4 0.1,-2.3 0.5,-2.8 0.4,-0.5 1,-0.8 2.3,-1 0.3,0 0.6,-0.1 0.6,-0.2 0.1,-0.1 0.1,-0.3 0.1,-0.6 0,-0.3 -0.2,-0.6 -0.8,-0.6 -0.9,0 -2.2,0.1 -3.9,0.2 l -1.8,0.1 c -1.4,0.1 -2.5,0.1 -3.4,0.1 -1.4,0 -2.4,-0.1 -3,-0.2 -0.6,-0.1 -1,-0.2 -1.3,-0.2 -0.3,0 -0.6,0.2 -0.6,0.7 0,0.3 0.1,0.5 0.3,0.7 0.2,0.1 0.8,0.2 1.6,0.3 1.4,0.2 2.3,0.7 2.9,1.3 0.6,0.7 0.8,1.7 0.8,3.2 l 0,19.4 0,2.2 c 0,1.4 -0.2,2.4 -0.6,3 -0.3,0.6 -1.1,1.1 -2.3,1.6 l -0.7,0.6 0,0.2 c 0.1,0.3 0.3,0.6 0.7,0.6 0.3,0 0.9,-0.1 1.7,-0.2 0.9,-0.1 2.2,-0.2 3.9,-0.2 1.3,0 3,0.1 5.2,0.3 0.8,0.1 1.5,0.1 1.9,0.1 1,0 1.6,-0.2 1.6,-0.7 0,-0.5 -0.3,-0.8 -1.1,-0.8 -1.3,0 -2.2,-0.3 -3,-1 -0.8,-0.7 -1.3,-1.6 -1.4,-2.9 l -0.2,-2.4 0,-20.8 0,0 z m 24,-1.7 c 0,-1.1 0.6,-1.8 1.8,-2.1 0.7,-0.1 1,-0.3 1,-0.8 0,-0.5 -0.2,-0.7 -0.7,-0.7 -0.3,0 -1,0 -2.1,0.1 l -2.5,0.1 -4.2,-0.1 c -1.1,0 -2.1,0 -2.9,-0.1 -0.3,0 -0.6,0 -0.7,0 -0.5,0 -0.7,0.2 -0.7,0.7 0,0.5 0.3,0.7 1,0.8 1.1,0.2 2.1,0.8 2.8,1.8 0.7,0.9 1.6,3 2.6,6 0.9,2.5 2.2,5.4 3.6,8.7 l 5.7,13.1 0.6,1.5 0.6,1.3 c 0.2,0.3 0.5,0.6 0.7,0.6 0.5,0 0.8,-0.3 1.1,-1.1 0.1,-0.2 0.6,-1.3 1.5,-3.1 0.1,-0.2 0.8,-1.8 2.2,-4.8 l 4.1,-9.2 3.7,-8.4 c 1.1,-2.5 1.9,-4.1 2.5,-4.9 0.6,-0.8 1.4,-1.3 2.3,-1.5 0.5,-0.1 0.7,-0.3 0.7,-0.7 0,-0.5 -0.1,-0.6 -0.5,-0.6 -0.2,0 -0.6,0 -1,0.1 -1,0.2 -2.4,0.3 -3.9,0.3 -0.5,0 -1.3,0 -2.4,-0.1 l -2.5,-0.1 c -0.7,0 -1.1,0 -1.4,0 -0.5,0 -0.6,0.2 -0.6,0.6 0,0.3 0.3,0.6 0.8,0.7 1.4,0.2 2.3,0.6 3.1,1.3 0.7,0.7 1,1.5 1,2.5 0,1.7 -0.9,4.7 -2.8,8.7 l -5.5,12.2 c -0.2,0.5 -0.5,0.7 -0.6,0.7 -0.2,0 -0.5,-0.3 -0.7,-0.9 L 274.9,247 c -1.3,-4.9 -2.2,-7.8 -2.2,-9.3 l 0,0 0,0 z m 44.5,1.3 c 0,-1.4 0.5,-2.2 1.3,-2.5 l 1.6,-0.2 3,0 c 2.6,0 4.6,0.3 5.7,1.1 1.1,0.7 1.7,1.9 1.7,3.6 0,0.7 0.1,1.1 0.5,1 0.7,0 0.9,-0.7 0.9,-1.9 0,-0.6 -0.1,-1.6 -0.2,-3.1 -0.1,-0.9 -0.1,-1.6 -0.1,-1.9 0,-0.6 -0.2,-0.8 -0.7,-0.8 -0.1,0 -0.2,0 -0.3,0 -1.3,0.1 -4.5,0.2 -9.9,0.2 l -9.3,-0.1 -2.5,-0.1 c -0.5,0 -0.9,0 -1.1,0 -0.3,0 -0.6,0 -0.7,0 -0.6,0 -0.8,0.2 -0.8,0.6 0,0.5 0.2,0.7 0.7,0.7 1.8,0.2 3.1,0.7 3.7,1.4 0.6,0.7 0.9,1.8 0.9,3.7 l 0,19.4 c 0,1.5 -0.1,2.6 -0.2,3.6 -0.2,1 -0.5,1.7 -0.8,2.2 -0.3,0.3 -0.9,0.8 -1.9,1.1 -0.3,0.1 -0.6,0.3 -0.6,0.7 0,0.4 0.2,0.6 0.7,0.6 0.3,0 0.8,0 1.5,-0.1 2.4,-0.1 4.2,-0.2 5.4,-0.2 1.7,0 3.2,0 4.2,0.1 l 2.9,0.2 c 1.3,0.1 2.4,0.2 3.4,0.2 1.7,0 3.2,-0.2 4.2,-0.8 1,-0.6 1.9,-1.5 2.6,-2.8 0.9,-1.5 1.3,-3.1 1.3,-4.7 0,-0.2 -0.1,-0.3 -0.2,-0.6 -0.1,-0.1 -0.3,-0.2 -0.5,-0.1 -0.1,0 -0.2,0.1 -0.3,0.3 -2.1,4 -6.3,6.1 -13,6.1 -0.8,0 -1.4,-0.1 -1.7,-0.3 -0.3,-0.2 -0.7,-0.8 -1,-1.5 -0.3,-1 -0.6,-2.6 -0.6,-4.9 l 0,-2.2 c 0,-1.7 0,-3 0.1,-3.9 0.1,-0.7 0.3,-1.1 0.6,-1.4 0.2,-0.2 0.8,-0.3 1.6,-0.3 l 1.6,0 c 1.7,0 2.9,0.1 3.4,0.1 0.6,0 1.1,0.3 1.6,0.8 0.8,0.7 1.3,1.7 1.5,3.1 0.1,0.7 0.3,0.9 0.8,0.9 0.2,0 0.3,-0.1 0.3,-0.2 0,-0.1 0.1,-0.2 0.1,-0.5 l 0,-1.3 c 0,-0.9 0,-2.1 -0.1,-3.3 -0.1,-1.9 -0.2,-3.1 -0.2,-3.7 0,-0.3 0,-0.7 0,-1 0,-0.6 0.1,-0.9 0.1,-1 0,-0.5 -0.2,-0.7 -0.6,-0.7 -0.3,0 -0.6,0.1 -0.7,0.5 l -0.6,1.1 c -0.9,1.7 -2.2,2.6 -3.8,2.6 l -2.1,0 -1,0 -0.7,0 c -0.8,0 -1.4,-0.2 -1.6,-0.6 -0.2,-0.5 -0.3,-1.4 -0.3,-2.9 l 0,-5.3 0.2,-1 0,0 z m 36.2,14.3 c 0,-0.7 0.1,-1 0.3,-1.1 l 1.1,-0.2 1.5,0 c 1.3,0 2.2,0.2 2.8,0.7 0.6,0.5 1.3,1.6 2.2,3.4 2.3,4.6 4.1,7.7 5.5,9.3 1.4,1.6 3,2.5 4.6,2.5 1,0 2.2,-0.3 3.6,-0.9 1.4,-0.6 1.9,-1.1 1.9,-1.6 0,-0.3 -0.1,-0.6 -0.5,-0.6 -0.1,0 -0.3,0 -0.6,0.1 -0.3,0.1 -0.7,0.1 -1,0.1 -0.9,0 -1.7,-0.3 -2.4,-0.9 -0.7,-0.6 -1.5,-1.6 -2.3,-3.1 l -2.5,-4.5 -2.2,-3.9 c -0.3,-0.6 -0.5,-0.9 -0.7,-1.1 -0.1,-0.2 -0.2,-0.5 -0.2,-0.6 0,-0.2 0.1,-0.3 0.5,-0.5 1.6,-0.7 2.9,-1.7 3.7,-3 0.9,-1.4 1.4,-2.8 1.4,-4.4 0,-2.5 -1,-4.7 -3.1,-6.4 -2.1,-1.7 -4.6,-2.5 -7.7,-2.5 -1,0 -3,0.1 -5.7,0.3 -2.3,0.2 -4.4,0.2 -6,0.2 -1.5,0 -2.9,-0.1 -4.1,-0.2 -0.5,0 -0.7,-0.1 -0.9,-0.1 -0.5,0 -0.7,0.2 -0.7,0.7 0,0.5 0.3,0.7 1,0.8 1.8,0.2 3.1,0.9 3.9,1.9 0.5,0.7 0.7,1.9 0.7,3.9 l 0,17.8 0,0.9 0,2.3 c 0,1.1 -0.2,2.1 -0.7,2.6 -0.5,0.6 -1.1,1 -2.3,1.4 -0.3,0.1 -0.5,0.3 -0.5,0.7 0,0.5 0.3,0.7 0.9,0.7 0.2,0 0.5,0 0.9,-0.1 l 1.6,-0.1 2.1,-0.2 c 0.8,-0.1 1.8,-0.1 2.9,-0.1 1.3,0 2.6,0 4,0.1 0.5,0 0.8,0.1 1,0.1 0.6,0 0.8,-0.2 0.8,-0.7 0,-0.5 -0.3,-0.7 -1,-0.8 -1.7,-0.1 -2.8,-0.8 -3.3,-1.8 -0.6,-1.1 -0.8,-3.2 -0.8,-6.3 l 0,-4.8 0.3,0 z m 0.7,-16.6 c 0.5,-0.5 1.1,-0.7 2.3,-0.7 2.5,0 4.5,0.8 6.1,2.4 1.6,1.6 2.4,3.7 2.4,6.1 0,1.8 -0.6,3.3 -1.8,4.5 -0.6,0.6 -1.3,0.9 -1.9,1 -0.7,0.1 -2.5,0.1 -5.4,0.1 -1,0 -1.6,-0.1 -1.9,-0.5 -0.2,-0.2 -0.5,-0.9 -0.5,-1.9 l 0,-8.5 c 0,-1.3 0.2,-2.1 0.7,-2.5 l 0,0 z m 34.4,-0.3 c -1.7,1.8 -2.6,4 -2.6,6.8 0,2.3 0.6,4.1 1.8,5.5 1.3,1.4 3.7,2.9 7.1,4.5 l 3.7,1.6 c 1.6,0.7 2.9,1.5 3.6,2.3 0.7,0.8 1,1.8 1,3.2 0,1.6 -0.7,3.1 -1.9,4.4 -1.3,1.3 -2.8,1.8 -4.4,1.8 -2.1,0 -4.1,-0.9 -6.2,-2.9 -1.9,-1.9 -3.3,-4.2 -4.1,-7 -0.1,-0.3 -0.2,-0.6 -0.5,-0.6 -0.5,0 -0.8,0.3 -0.8,1.1 0,0.6 0.3,2.1 0.9,4.2 0.5,1.5 0.7,2.5 0.7,3.3 0.1,0.7 0.2,1.1 0.3,1.3 0.1,0.1 0.6,0.2 1.3,0.5 0.6,0.1 1.4,0.3 2.5,0.7 2.4,0.8 4.2,1.1 5.4,1.1 2.8,0 5.2,-1 7.2,-3.1 2,-2.1 3.1,-4.6 3.1,-7.5 0,-2.5 -0.7,-4.8 -2.2,-6.7 -1.3,-1.5 -3.8,-3.1 -7.7,-4.6 -3.2,-1.4 -5.2,-2.3 -5.8,-2.9 -0.9,-0.9 -1.5,-1.9 -1.5,-3.2 0,-1.4 0.6,-2.5 1.6,-3.6 1.1,-1 2.4,-1.5 3.8,-1.5 2.2,0 4.1,0.8 6.1,2.5 1.9,1.7 3.1,3.7 3.6,5.8 0.1,0.6 0.3,0.9 0.7,0.9 0.5,0 0.6,-0.3 0.6,-1 0,-0.1 0,-0.3 0,-0.5 l -0.2,-2.2 -0.3,-2.4 c 0,-0.2 0,-0.6 0,-0.9 l 0,-1.9 c 0,-0.6 -0.1,-0.8 -0.5,-0.8 -0.1,0 -0.2,0 -0.3,0.1 l -0.9,0.5 c -0.2,0.1 -0.5,0.1 -0.7,0.1 -0.3,0 -0.8,-0.1 -1.6,-0.5 l -1.6,-0.7 c -1.5,-0.6 -3,-0.9 -4.5,-0.9 -2.8,0.6 -4.9,1.5 -6.7,3.2 l 0,0 z m 38.4,3 c 0,-1.4 0.1,-2.3 0.5,-2.8 0.4,-0.5 1,-0.8 2.3,-1 0.3,0 0.6,-0.1 0.6,-0.2 0.1,-0.1 0.1,-0.3 0.1,-0.6 0,-0.3 -0.2,-0.6 -0.8,-0.6 -0.9,0 -2.2,0.1 -3.9,0.2 l -1.8,0.1 c -1.4,0.1 -2.5,0.1 -3.4,0.1 -1.4,0 -2.4,-0.1 -3,-0.2 -0.6,-0.1 -1,-0.2 -1.4,-0.2 -0.3,0 -0.6,0.2 -0.6,0.7 0,0.3 0.1,0.5 0.3,0.7 0.2,0.1 0.8,0.2 1.6,0.3 1.4,0.2 2.3,0.7 2.9,1.3 0.6,0.7 0.8,1.7 0.8,3.2 l 0,19.4 0,2.2 c 0,1.4 -0.2,2.4 -0.6,3 -0.3,0.6 -1.1,1.1 -2.3,1.6 l -0.7,0.6 0,0.2 c 0.1,0.3 0.3,0.6 0.7,0.6 0.3,0 0.9,-0.1 1.7,-0.2 0.9,-0.1 2.2,-0.2 3.9,-0.2 1.4,0 3,0.1 5.2,0.3 0.8,0.1 1.5,0.1 1.9,0.1 1,0 1.6,-0.2 1.6,-0.7 0,-0.5 -0.3,-0.8 -1.1,-0.8 -1.3,0 -2.2,-0.3 -3,-1 -0.8,-0.7 -1.3,-1.6 -1.4,-2.9 l -0.2,-2.4 0,-20.8 0.1,0 z m 33,-1.9 c 0.6,-0.3 2.2,-0.6 4.6,-0.6 1.8,0 3.2,0.3 4.2,1 0.9,0.7 1.6,1.7 1.9,3.3 0.1,0.6 0.5,0.9 0.8,0.9 0.5,0 0.7,-0.2 0.7,-0.8 0,-0.6 -0.1,-1.3 -0.1,-2.1 -0.1,-1 -0.2,-1.7 -0.2,-1.9 l -0.1,-1.7 c 0,-0.8 -0.6,-1.1 -1.4,-1.1 -0.2,0 -0.8,0 -1.6,0 -4.2,0.2 -8.4,0.3 -12.2,0.3 l -6,-0.1 -4.9,0 c -1.1,0 -2.1,0 -2.8,-0.1 -0.3,0 -0.7,0 -0.8,0 -0.6,0 -0.9,0.3 -1,0.9 l 0,1.5 -0.3,2.2 -0.2,2.2 c -0.1,0.8 -0.2,1.5 -0.2,1.9 0,0.5 0.2,0.8 0.8,0.8 0.3,0 0.7,-0.3 0.8,-1 l 0.2,-0.7 c 0.5,-1.8 0.9,-2.9 1.1,-3.3 0.2,-0.5 0.8,-0.8 1.7,-1.3 1.1,-0.5 3.4,-0.7 6.7,-0.7 1.4,0 2.1,0.7 2.1,1.9 l 0,21.7 0,1.1 c 0,1.5 -0.3,2.6 -1,3.4 -0.7,0.8 -1.7,1.3 -3,1.4 -0.5,0 -0.8,0.1 -0.9,0.2 -0.1,0.1 -0.2,0.3 -0.2,0.7 0,0.5 0.2,0.7 0.7,0.7 0.2,0 0.6,0 1.1,-0.1 l 5.4,-0.3 c 0.8,0 1.6,-0.1 2.5,-0.1 0.5,0 0.7,0 1,0 l 3.1,0.2 1.8,0.1 c 0.3,0 0.5,0 0.6,0 0.5,0 0.8,-0.2 0.8,-0.6 0,-0.6 -0.3,-0.8 -0.9,-0.9 -2.1,-0.1 -3.4,-0.8 -4.2,-1.9 -0.8,-1.1 -1.1,-3.1 -1.1,-5.8 l 0,-18.3 c -0.4,-1.8 -0.1,-2.7 0.5,-3 l 0,0 z m 39.5,15.6 c 0.1,-0.3 0.2,-0.7 0.6,-1.3 1.7,-2.8 3.7,-6.1 5.7,-10.1 1.1,-2.2 2.1,-3.8 2.9,-4.6 0.8,-0.8 1.7,-1.4 3,-1.6 0.6,-0.1 0.9,-0.3 0.9,-0.7 0,-0.3 -0.2,-0.6 -0.7,-0.6 -0.8,0 -1.4,0 -1.9,0 l -2.1,0.1 c -0.7,0 -1.3,0.1 -1.8,0.1 -1,0 -1.8,0 -2.4,-0.1 l -1.6,-0.2 c -0.3,0 -0.8,-0.1 -1.3,-0.1 -0.5,0 -0.7,0.2 -0.7,0.8 0,0.3 0.2,0.6 0.8,0.6 1,0.1 1.9,0.5 2.8,1 0.8,0.6 1.1,1.3 1.1,1.9 0,0.8 -0.9,2.9 -2.6,6.1 -0.9,1.6 -1.4,2.5 -1.6,3 -0.8,1.6 -1.5,2.5 -2.1,2.5 -0.6,0 -1,-0.6 -1.6,-1.7 -0.2,-0.3 -0.7,-1.4 -1.5,-2.9 l -1.9,-3.7 c -1.1,-2.3 -1.8,-3.8 -1.8,-4.5 0,-0.8 0.6,-1.4 1.8,-1.6 0.6,-0.1 0.8,-0.3 0.8,-0.7 0,-0.5 -0.3,-0.6 -1,-0.6 -0.3,0 -1,0 -2.1,0.1 -1.4,0.1 -2.8,0.2 -4,0.2 -1.4,0 -3,-0.1 -4.8,-0.3 -0.8,-0.1 -1.5,-0.1 -1.9,-0.1 -0.5,0 -0.7,0.2 -0.7,0.8 0,0.5 0.3,0.7 0.9,0.7 1.9,0.2 3.7,1.7 5.2,4.5 l 3.7,7 c 1,1.9 1.9,3.7 2.8,5 0.7,1.1 1,2.3 1,3.4 l 0,4.7 c 0,2.2 -0.3,3.7 -0.9,4.6 -0.7,0.9 -1.8,1.5 -3.7,1.7 -0.5,0.1 -0.7,0.2 -0.7,0.6 0,0.6 0.2,0.8 0.6,0.8 0.4,0 0.8,-0.1 1.5,-0.1 1,-0.2 3,-0.2 6.1,-0.2 1.3,0 2.2,0 2.9,0.1 l 3.4,0.3 c 0.5,0 0.9,0.1 1.3,0.1 0.7,0 1.1,-0.2 1.1,-0.7 0,-0.5 -0.2,-0.7 -0.8,-0.7 -3,-0.1 -4.6,-1.1 -4.9,-3 l -0.1,-1.6 0,-7.2 c 0.2,-1 0.2,-1.6 0.3,-1.8 l 0,0 z m 51,-17.9 c -2.4,1 -4.5,2.3 -6,4.1 -1.4,1.5 -2.4,3.3 -3.2,5.5 -0.8,2.2 -1.1,4.4 -1.1,6.7 0,5.2 1.6,9.3 4.7,12.4 3.2,3.1 7.3,4.6 12.6,4.6 5.5,0 9.9,-1.7 13,-5.3 3.2,-3.7 4.8,-8 4.8,-13.3 0,-4.8 -1.6,-8.7 -4.7,-11.7 -3.1,-3 -7.2,-4.5 -12.3,-4.5 -2.7,0 -5.4,0.6 -7.8,1.5 l 0,0 z m 14,3.5 c 1.5,1.4 2.8,3.3 3.7,5.8 0.9,2.4 1.4,4.9 1.4,7.5 0,4.5 -1,7.9 -3,10.7 -1.9,2.6 -4.7,4 -8,4 -3.7,0 -6.7,-1.6 -9.1,-4.8 -2.3,-3.2 -3.4,-7.3 -3.4,-12.5 0,-4.4 0.9,-7.7 2.8,-10.1 1.8,-2.4 4.4,-3.7 7.7,-3.7 3,-0.1 5.6,0.9 7.9,3.1 l 0,0 0,0 z m 29.9,0.1 c 0,-0.9 0.2,-1.5 0.6,-1.8 0.3,-0.3 1,-0.6 1.9,-0.6 l 1,0 3.2,0 c 3.7,0 5.7,1 6.4,3.2 0.1,0.2 0.1,0.6 0.1,0.8 l 0,0.8 c 0,0.5 0.1,0.7 0.5,0.7 0.6,0 0.9,-0.7 0.9,-2.1 0,-0.2 0,-0.6 -0.1,-0.9 l -0.2,-1.8 c 0,-0.1 -0.1,-0.8 -0.1,-1.8 0,-0.8 -0.2,-1.3 -0.7,-1.3 -0.5,0 -1,0 -1.8,0.1 -2.3,0.2 -4.6,0.2 -6.8,0.2 l -6.4,0 -4.2,0.1 c -1.1,0 -2.2,0 -3.1,-0.1 -0.7,0 -1.1,-0.1 -1.3,-0.1 -0.6,0 -0.8,0.2 -0.8,0.7 0,0.3 0.2,0.6 0.7,0.6 1.6,0.1 2.8,0.5 3.6,1.1 0.7,0.6 1,1.9 1,4 l 0,20.1 c 0,1.9 -0.1,3.3 -0.5,4.1 -0.3,0.8 -1,1.4 -1.9,1.7 -0.5,0.1 -0.7,0.3 -0.7,0.7 0,0.5 0.2,0.7 0.8,0.7 0.5,0 1.1,-0.1 2.4,-0.2 0.9,-0.1 1.9,-0.1 3.1,-0.1 l 2.8,0 c 1.7,0 3,0 3.6,0.1 0.6,0.1 1.1,0.1 1.4,0.1 0.3,0 0.6,-0.2 0.6,-0.7 0,-0.3 -0.2,-0.6 -0.8,-0.7 -1.8,-0.1 -3.1,-0.6 -3.7,-1.5 -0.8,-1.1 -1.3,-2.9 -1.3,-5.3 l 0,-2.9 0,-1.9 c 0,-2.1 0.2,-3.2 0.6,-3.6 0.3,-0.3 1.8,-0.5 4.2,-0.5 1.9,0 3.2,0.3 4,0.9 0.8,0.6 1.3,1.7 1.6,3.4 0.1,0.5 0.2,0.7 0.6,0.7 0.5,0 0.7,-0.2 0.7,-0.6 0,-0.2 0,-0.6 0,-1 l -0.3,-4.6 c -0.1,-1.3 -0.1,-2.4 -0.1,-3.3 0,-0.3 0,-0.6 0,-0.8 0,-0.3 0,-0.6 0,-0.7 0,-0.5 -0.2,-0.7 -0.7,-0.7 -0.2,0 -0.3,0.2 -0.6,0.6 -0.6,1.5 -1.3,2.5 -1.8,3.1 -0.6,0.6 -1.5,0.8 -2.8,0.8 l -2.6,0 -0.9,0 c -0.7,0 -1.1,-0.1 -1.4,-0.5 -0.2,-0.3 -0.3,-0.9 -0.3,-1.8 l 0,-7.6 -0.4,0 z"
         inkscape:connector-curvature="0"
         style="fill:#5c5d60" />
      <path
         id="path6113"
         d="m 162.8,385.7 c 0,-1.8 0.1,-3.1 0.5,-3.7 0.3,-0.6 1.3,-1 2.6,-1.4 0.5,-0.1 0.6,-0.3 0.6,-0.6 0,-0.5 -0.2,-0.7 -0.7,-0.7 -0.3,0 -0.7,0 -1,0.1 -1.5,0.1 -3.2,0.2 -5.2,0.2 -2.2,0 -4.1,-0.1 -5.8,-0.2 -0.5,0 -0.8,-0.1 -1.3,-0.1 -0.5,0 -0.7,0.2 -0.7,0.6 0,0.4 0,0.6 0.1,0.7 0.1,0.1 0.3,0.2 0.7,0.2 1.3,0.1 2.2,0.5 2.9,0.9 0.7,0.4 1.1,1.1 1.4,1.9 l 0.2,1.4 0,0.9 0,19.5 c 0,2.1 -0.2,3.6 -0.7,4.4 -0.5,0.8 -1.3,1.4 -2.4,1.5 -0.5,0.1 -0.7,0.2 -0.7,0.6 0,0.5 0.3,0.7 0.9,0.7 0.7,0 1.5,0 2.5,-0.1 1.6,-0.1 3.3,-0.2 5.2,-0.2 1.4,0 2.5,0.1 3.3,0.2 0.7,0.1 1.3,0.2 1.5,0.2 0.6,0 0.8,-0.2 0.8,-0.7 0,-0.5 -0.5,-0.7 -1.4,-0.7 -1.4,-0.1 -2.3,-0.7 -2.9,-1.8 -0.6,-1.1 -0.8,-3 -0.8,-5.6 l 0,-1 c 0,-1.4 0,-2.3 0.1,-2.8 0.1,-0.5 0.3,-0.9 0.8,-1.3 l 1,-1 0.7,-0.7 c 0.3,-0.3 0.6,-0.5 0.7,-0.5 0.3,0 0.7,0.3 1.1,1.1 0.6,0.9 1.8,2.8 4.1,5.7 2.2,3 4,5.3 5.4,6.9 0.6,0.7 0.8,1 0.9,1.1 0.7,0.8 1.5,1.3 2.3,1.3 0.2,0 0.9,-0.1 1.9,-0.2 0.6,-0.1 1.1,-0.1 1.6,-0.1 1.1,0 2.4,0.1 4,0.2 0.3,0 0.6,0 0.7,0 0.5,0 0.7,-0.2 0.8,-0.6 0,-0.5 -0.2,-0.7 -0.6,-0.8 l -0.5,-0.1 c -2.3,-0.7 -4.1,-1.6 -5.4,-2.9 -1.8,-1.8 -4.8,-5.5 -8.8,-11.1 l -1.7,-2.4 c -0.7,-1 -1.1,-1.7 -1.1,-2.1 0,-0.6 0.7,-1.4 2.1,-2.5 0.5,-0.3 1.3,-1.1 2.5,-2.3 2.6,-2.5 4.7,-4.2 6.2,-5.3 1.5,-1 2.8,-1.6 3.9,-1.8 0.7,-0.1 1,-0.3 1,-0.7 0,-0.5 -0.2,-0.7 -0.8,-0.7 -0.7,0 -1.8,0.1 -3.4,0.3 -0.8,0.1 -1.4,0.1 -1.9,0.1 -0.7,0 -1.9,-0.1 -3.7,-0.3 -0.7,-0.1 -1.4,-0.1 -2.1,-0.1 -0.6,0 -0.9,0.2 -0.9,0.6 0,0.5 0.2,0.7 0.8,0.7 0.7,0 1.3,0.1 1.7,0.5 0.5,0.3 0.7,0.7 0.7,1.1 0,1.5 -2.2,4.2 -6.7,8.1 l -3.4,3 -2.4,2.2 c -0.7,0.5 -1,0.7 -1.1,0.7 -0.2,0 -0.5,-0.3 -0.5,-0.9 l 0,-8.8 0.4,-0.8 0,0 z m 43.4,-2 -1.7,-1.9 c -0.9,-1.1 -1.6,-1.8 -1.8,-1.9 -0.3,-0.2 -0.7,-0.3 -1.1,-0.3 -0.3,0 -0.8,0 -1.4,0.1 -1.5,0.1 -2.8,0.2 -4.1,0.2 l -1,0 -1.7,-0.1 c -0.6,0 -0.8,0.2 -0.8,0.7 0,0.3 0.2,0.6 0.8,0.6 3.7,0.2 5.5,2.9 5.5,7.9 l 0,10.5 -0.1,5.7 c 0,1.9 -0.2,3.6 -0.8,4.6 -0.6,1 -1.4,1.7 -2.6,2.1 -0.5,0.1 -0.7,0.3 -0.7,0.7 0,0.4 0.2,0.6 0.7,0.6 0.2,0 0.7,0 1.3,-0.1 1.3,-0.2 2.8,-0.3 4.4,-0.3 1.6,0 3.2,0.1 4.6,0.3 0.5,0.1 0.8,0.1 0.9,0.1 0.5,0 0.8,-0.2 0.8,-0.7 0,-0.3 -0.2,-0.6 -0.7,-0.6 -2.6,-0.2 -4.2,-1.3 -4.7,-3.1 -0.5,-1.7 -0.8,-5 -0.8,-10.1 l 0,-9.4 0,-0.7 c 0,-0.7 0.2,-1.1 0.6,-1.1 0.1,0 0.5,0.2 0.8,0.7 l 22.1,24.5 c 0.3,0.3 0.6,0.6 0.9,0.6 0.3,0 0.5,-0.2 0.5,-0.7 l -0.1,-3 0,-1.8 0,-2.8 0.1,-2.1 0.3,-15.1 0,-1.1 c 0,-3.3 1,-5.2 3.1,-5.6 0.6,-0.1 0.8,-0.3 0.8,-0.7 0,-0.5 -0.2,-0.7 -0.8,-0.7 -0.1,0 -0.3,0 -0.7,0 -2.4,0.3 -4.2,0.5 -5.4,0.5 -0.6,0 -1.3,0 -2.1,-0.1 -1.3,-0.1 -2.3,-0.2 -2.9,-0.2 -0.5,0 -0.7,0.2 -0.7,0.7 0,0.3 0.2,0.6 0.8,0.6 2.3,0.1 3.8,0.9 4.6,2.3 0.8,1.4 1.1,3.9 1.1,7.7 0,3.2 -0.1,6.7 -0.2,10.2 0,1 -0.2,1.5 -0.6,1.5 -0.3,0 -1.1,-0.6 -2.2,-1.8 l -0.8,-0.9 -12.8,-14.4 c -0.4,-0.9 -0.8,-1.3 -1.4,-2.1 l 0,0 0,0 z m 39.4,-3.4 c -2.4,1 -4.5,2.3 -6,4.1 -1.4,1.5 -2.4,3.3 -3.2,5.5 -0.8,2.2 -1.1,4.4 -1.1,6.5 0,5.2 1.6,9.3 4.7,12.3 3.1,3.1 7.3,4.6 12.6,4.6 5.5,0 9.9,-1.7 13,-5.3 3.2,-3.7 4.8,-8 4.8,-13.2 0,-4.8 -1.6,-8.6 -4.7,-11.6 -3.1,-3 -7.2,-4.5 -12.3,-4.5 -2.7,0.2 -5.3,0.7 -7.8,1.6 l 0,0 z m 14,3.6 c 1.5,1.4 2.8,3.3 3.7,5.7 0.9,2.4 1.4,4.9 1.4,7.5 0,4.4 -1,7.9 -3,10.5 -1.9,2.6 -4.7,3.9 -8,3.9 -3.7,0 -6.7,-1.6 -8.9,-4.8 -2.3,-3.2 -3.4,-7.3 -3.4,-12.4 0,-4.4 0.9,-7.7 2.8,-10.1 1.8,-2.4 4.4,-3.7 7.7,-3.7 2.8,0.2 5.4,1.2 7.7,3.4 l 0,0 0,0 z m 36,-3.8 c 0,0.5 0.2,0.7 0.8,0.8 l 1.1,0.1 c 1.4,0.2 2.1,0.8 2.1,1.8 0,0.6 -0.1,1.1 -0.5,1.6 -0.3,0.6 -1.1,1.6 -2.5,3.1 l -2.5,3 -1.1,1.3 c -0.2,0.3 -0.5,0.5 -0.7,0.5 -0.2,0 -0.7,-0.3 -1.1,-1 l -1.7,-2.5 -1.7,-2.3 c -1.1,-1.7 -1.7,-3.1 -1.8,-4 0,-0.5 0.1,-0.8 0.6,-1.1 0.3,-0.3 0.9,-0.6 1.5,-0.7 0.6,-0.1 0.9,-0.3 0.9,-0.8 0,-0.5 -0.2,-0.7 -0.8,-0.7 -0.3,0 -0.9,0 -1.6,0.1 l -2.3,0.2 c -0.9,0.1 -1.9,0.1 -3.2,0.1 -1.3,0 -3.2,-0.1 -5.8,-0.3 -0.7,0 -1,-0.1 -1.4,-0.1 -0.6,0 -0.8,0.2 -0.8,0.7 0,0.5 0.3,0.7 0.9,0.8 1.5,0.3 2.8,0.9 3.7,1.8 0.9,0.9 2.9,3.4 6,7.7 1,1.5 1.9,2.8 2.8,3.8 1.3,1.6 1.8,2.5 1.8,2.9 0,0.4 -0.6,1.1 -1.8,2.4 -0.8,0.8 -2.1,2.4 -4,4.6 -2.2,2.5 -3.8,4.4 -5,5.4 -1.2,1 -2.5,1.7 -3.8,1.9 -0.5,0.1 -0.7,0.3 -0.7,0.7 0,0.2 0.1,0.3 0.2,0.5 l 0.7,0.1 1.1,0 2.2,-0.1 c 0.9,0 1.7,-0.1 2.2,-0.1 1.9,0 3.9,0.1 6,0.3 0.5,0 0.8,0.1 0.9,0.1 0.3,0 0.5,-0.2 0.5,-0.6 0,-0.5 -0.2,-0.7 -0.8,-0.7 -2.5,-0.2 -3.8,-0.9 -3.8,-2.3 0,-1.3 1.8,-3.9 5.5,-8.1 0.6,-0.7 1,-1.3 1.5,-1.7 0.2,-0.3 0.5,-0.5 0.6,-0.5 0.1,0 0.2,0.1 0.5,0.5 l 1.3,1.6 c 2.1,2.6 3.6,4.6 4.2,5.8 0.8,1.3 1.1,2.2 1.1,2.8 0,1.1 -0.7,1.7 -1.9,1.8 -0.6,0 -0.9,0.3 -0.9,0.8 0,0.3 0.2,0.6 0.8,0.6 0.5,0 1,0 1.9,-0.1 l 2.6,-0.1 c 0.7,0 1.4,-0.1 2.2,-0.1 1,0 2.4,0.1 3.8,0.1 l 3.1,0.2 c 0.5,0 0.8,0 1,0 0.6,0 0.9,-0.2 0.9,-0.7 0,-0.5 -0.2,-0.8 -0.8,-0.8 -1.8,-0.1 -3.2,-0.8 -4.5,-1.9 -1.8,-1.8 -4.1,-4.7 -6.9,-8.5 -1.7,-2.4 -2.8,-3.9 -3.2,-4.5 -0.9,-1.1 -1.4,-1.9 -1.4,-2.2 0,-0.2 0.3,-0.8 1.1,-1.6 0.2,-0.2 1.3,-1.5 3.2,-3.8 2.6,-3.1 4.9,-5.5 7,-7.1 0.7,-0.6 1.8,-0.9 3.2,-1.1 0.6,-0.1 0.8,-0.3 0.8,-0.8 0,-0.5 -0.2,-0.7 -0.7,-0.7 -0.5,0 -0.9,0 -1.5,0.1 l -3,0.2 c -0.8,0 -1.5,0.1 -2.2,0.1 -1.4,0 -2.8,-0.1 -4.2,-0.1 -0.5,0 -0.7,0 -0.9,0 -0.5,0.1 -0.8,0.4 -0.8,0.8 l 0,0 0,0 z m 29.4,2.8 c 0,-1.1 0.6,-1.8 1.8,-2.1 0.7,-0.1 1,-0.3 1,-0.8 0,-0.5 -0.2,-0.7 -0.7,-0.7 -0.3,0 -1,0 -2.1,0.1 l -2.5,0.1 -4.1,-0.1 c -1.1,0 -2.1,0 -2.9,-0.1 -0.3,0 -0.6,0 -0.7,0 -0.5,0 -0.7,0.2 -0.7,0.7 0,0.5 0.3,0.7 0.9,0.8 1.1,0.2 2.1,0.8 2.6,1.8 0.7,0.9 1.5,2.9 2.6,5.8 0.9,2.5 2.1,5.4 3.6,8.6 l 5.7,13.1 0.6,1.5 0.6,1.3 c 0.2,0.3 0.5,0.6 0.7,0.6 0.5,0 0.8,-0.3 1.1,-1.1 0.1,-0.2 0.6,-1.3 1.5,-3.1 0.1,-0.2 0.8,-1.8 2.2,-4.8 l 4.1,-9.2 3.7,-8.4 c 1.1,-2.5 1.9,-4.1 2.5,-4.9 0.6,-0.8 1.4,-1.3 2.3,-1.5 0.5,-0.1 0.7,-0.3 0.7,-0.7 0,-0.5 -0.1,-0.6 -0.5,-0.6 -0.2,0 -0.6,0 -0.9,0.1 -1,0.2 -2.4,0.3 -3.8,0.3 -0.5,0 -1.3,0 -2.4,-0.1 l -2.5,-0.1 c -0.7,0 -1.1,0 -1.4,0 -0.5,0 -0.6,0.2 -0.6,0.6 0,0.4 0.2,0.6 0.8,0.7 1.3,0.2 2.3,0.6 3,1.3 0.7,0.7 1,1.5 1,2.5 0,1.7 -0.9,4.6 -2.8,8.6 l -5.5,12.2 c -0.2,0.5 -0.5,0.7 -0.6,0.7 -0.2,0 -0.5,-0.3 -0.7,-0.9 l -5.4,-13.3 c -1.3,-4.6 -2.2,-7.4 -2.2,-8.9 l 0,0 0,0 z m 41,1.7 c 0,-1.4 0.1,-2.3 0.5,-2.8 0.3,-0.5 1,-0.8 2.3,-0.9 0.3,0 0.6,-0.1 0.6,-0.2 0.1,-0.1 0.1,-0.3 0.1,-0.6 0,-0.3 -0.2,-0.6 -0.8,-0.6 -0.9,0 -2.2,0.1 -3.9,0.2 l -1.7,0.1 c -1.4,0.1 -2.5,0.1 -3.3,0.1 -1.4,0 -2.4,-0.1 -3,-0.2 -0.6,-0.1 -1,-0.2 -1.3,-0.2 -0.3,0 -0.6,0.2 -0.6,0.7 0,0.3 0.1,0.5 0.3,0.6 0.2,0.1 0.8,0.2 1.6,0.3 1.4,0.2 2.3,0.7 2.9,1.3 0.6,0.7 0.8,1.7 0.8,3.2 l 0,19.4 0,2.2 c 0,1.4 -0.2,2.4 -0.6,3 -0.3,0.6 -1.1,1.1 -2.3,1.5 l -0.7,0.6 0,0.2 c 0.1,0.3 0.3,0.6 0.7,0.6 0.3,0 0.9,-0.1 1.7,-0.2 0.9,-0.1 2.2,-0.2 3.8,-0.2 1.3,0 3,0.1 5.2,0.3 0.8,0.1 1.5,0.1 1.9,0.1 1,0 1.6,-0.2 1.6,-0.7 0,-0.5 -0.3,-0.7 -1.1,-0.7 -1.3,0 -2.2,-0.3 -3,-1 -0.8,-0.7 -1.3,-1.6 -1.4,-2.9 l -0.2,-2.4 0,-20.8 -0.1,0 z m 21.4,-0.5 c 0,-2.2 0.8,-3.2 2.4,-3.3 0.7,0 1,-0.2 1,-0.7 0,-0.5 -0.5,-0.7 -1.5,-0.7 -1.3,0 -2.6,0.1 -3.9,0.2 -1.7,0.2 -3,0.3 -3.8,0.3 -0.5,0 -1.3,0 -2.2,-0.1 l -1,-0.1 c -0.5,0 -0.7,-0.1 -0.9,-0.1 -0.3,0 -0.6,-0.1 -0.7,-0.1 -0.5,0 -0.7,0.2 -0.7,0.7 0,0.3 0.3,0.7 0.9,0.7 l 1.5,0.2 c 2.2,0.3 3.2,1.8 3.2,4.4 l 0,20.3 c 0,1.9 -0.2,3.2 -0.6,4.1 -0.3,0.8 -1.1,1.4 -2.2,1.7 -0.5,0.1 -0.7,0.3 -0.7,0.6 0,0.5 0.2,0.7 0.7,0.7 0.2,0 0.7,0 1.4,-0.1 2.2,-0.2 4.2,-0.3 6.1,-0.3 1.1,0 2.2,0 3.1,0.1 l 2.6,0.1 c 1.6,0.1 2.6,0.1 2.9,0.1 1.1,0.1 1.8,0.1 2.3,0.1 2.1,0 3.7,-0.7 4.8,-2.2 1.4,-1.6 2.1,-3.4 2.1,-5.5 0,-0.7 -0.1,-1 -0.5,-1 -0.2,0 -0.6,0.5 -1.4,1.5 -2.3,3.2 -6.2,4.8 -11.7,4.8 -1.1,0 -1.9,-0.1 -2.4,-0.3 -0.7,-0.3 -1.1,-2.1 -1.1,-5 l 0,-21 0.3,0 z m 30.9,0 c 0,-2.2 0.8,-3.2 2.4,-3.3 0.7,0 1,-0.2 1,-0.7 0,-0.5 -0.5,-0.7 -1.5,-0.7 -1.3,0 -2.6,0.1 -3.9,0.2 -1.7,0.2 -3,0.3 -3.8,0.3 -0.5,0 -1.3,0 -2.2,-0.1 l -1,-0.1 c -0.5,0 -0.7,-0.1 -0.9,-0.1 -0.3,0 -0.6,-0.1 -0.7,-0.1 -0.5,0 -0.7,0.2 -0.7,0.7 0,0.3 0.3,0.7 0.9,0.7 l 1.5,0.2 c 2.2,0.3 3.2,1.8 3.2,4.4 l 0,20.3 c 0,1.9 -0.2,3.2 -0.6,4.1 -0.3,0.8 -1.1,1.4 -2.2,1.7 -0.5,0.1 -0.7,0.3 -0.7,0.6 0,0.5 0.2,0.7 0.7,0.7 0.2,0 0.7,0 1.4,-0.1 2.2,-0.2 4.2,-0.3 6.1,-0.3 1.1,0 2.2,0 3.1,0.1 l 2.6,0.1 c 1.6,0.1 2.6,0.1 2.9,0.1 1.1,0.1 1.8,0.1 2.3,0.1 2.1,0 3.7,-0.7 4.8,-2.2 1.4,-1.6 2.1,-3.4 2.1,-5.5 0,-0.7 -0.1,-1 -0.5,-1 -0.2,0 -0.6,0.5 -1.4,1.5 -2.3,3.2 -6.2,4.8 -11.7,4.8 -1.1,0 -1.9,-0.1 -2.4,-0.3 -0.7,-0.3 -1.1,-2.1 -1.1,-5 l 0,-21 0.3,0 z m 31.1,0 c 0,-1.4 0.5,-2.2 1.3,-2.4 l 1.6,-0.2 3,0 c 2.6,0 4.5,0.3 5.7,1 1.1,0.7 1.7,1.9 1.7,3.6 0,0.7 0.1,1.1 0.5,1 0.7,0 0.9,-0.7 0.9,-1.9 0,-0.6 -0.1,-1.6 -0.2,-3.1 -0.1,-0.9 -0.1,-1.6 -0.1,-1.9 0,-0.6 -0.2,-0.8 -0.7,-0.8 -0.1,0 -0.2,0 -0.3,0 -1.3,0.1 -4.5,0.2 -9.7,0.2 l -9.2,-0.1 -2.4,-0.1 c -0.5,0 -0.9,0 -1.1,0 -0.3,0 -0.6,0 -0.7,0 -0.6,0 -0.8,0.2 -0.8,0.6 0,0.5 0.2,0.7 0.7,0.7 1.8,0.2 3.1,0.7 3.7,1.4 0.6,0.7 0.9,1.8 0.9,3.7 l 0,19.3 c 0,1.5 -0.1,2.6 -0.2,3.4 -0.2,1 -0.5,1.7 -0.8,2.2 -0.3,0.3 -0.9,0.8 -1.8,1.1 -0.3,0.1 -0.6,0.3 -0.6,0.7 0,0.3 0.2,0.6 0.7,0.6 0.3,0 0.8,0 1.5,-0.1 2.4,-0.1 4.2,-0.2 5.4,-0.2 1.7,0 3.2,0 4.2,0.1 l 2.9,0.2 c 1.3,0.1 2.4,0.2 3.4,0.2 1.7,0 3.2,-0.2 4.2,-0.8 1,-0.6 1.9,-1.5 2.6,-2.8 0.8,-1.5 1.3,-3 1.3,-4.6 0,-0.2 -0.1,-0.3 -0.2,-0.6 -0.1,-0.1 -0.3,-0.2 -0.5,-0.1 -0.1,0 -0.2,0.1 -0.3,0.3 -2.1,4 -6.3,6 -13,6 -0.8,0 -1.4,-0.1 -1.7,-0.3 -0.3,-0.2 -0.7,-0.8 -0.9,-1.5 -0.3,-1 -0.6,-2.6 -0.6,-4.9 l 0,-2.2 c 0,-1.7 0,-3 0.1,-3.8 0.1,-0.7 0.2,-1.1 0.6,-1.4 0.2,-0.2 0.8,-0.3 1.6,-0.3 l 1.6,0 c 1.7,0 2.9,0.1 3.4,0.1 0.6,0.1 1.1,0.3 1.5,0.8 0.8,0.7 1.3,1.7 1.5,3.1 0.1,0.7 0.3,0.9 0.8,0.9 0.2,0 0.3,-0.1 0.3,-0.1 0,-0.1 0.1,-0.2 0.1,-0.5 l 0,-1.3 c 0,-0.9 0,-2.1 -0.1,-3.2 -0.1,-1.9 -0.2,-3.1 -0.2,-3.7 0,-0.3 0,-0.7 0,-1 0,-0.6 0.1,-0.9 0.1,-1 0,-0.5 -0.2,-0.7 -0.6,-0.7 -0.4,0 -0.6,0.1 -0.7,0.5 l -0.6,1.1 c -0.9,1.7 -2.1,2.6 -3.7,2.6 l -2.1,0 -1,0 -0.7,0 c -0.8,0 -1.4,-0.2 -1.6,-0.6 -0.2,-0.5 -0.3,-1.4 -0.3,-2.9 l 0,-5.3 -0.4,-1 0,0 z"
         inkscape:connector-curvature="0"
         style="fill:#58595b" />
      <polygon
         id="polygon6115"
         points="394.7,183 394.7,3.8 215.5,3.8 215.5,183 "
         style="fill:#ff8200" />
      <path
         id="path6117"
         d="m 372.1,26.4 0,45.2 -16.7,0 c 0,-8.4 -8.3,-15 -18.5,-15 -7.5,0 -13.9,3.6 -16.7,8.8 l 0,56.5 c 0,12 9.3,21.8 20.9,21.8 l 0,0 0,16.7 -72,0 0,-16.7 0,0 c 11.6,0 20.9,-9.7 20.9,-21.8 l 0,-56.6 c -2.9,-5.2 -9.3,-8.8 -16.7,-8.8 -10.2,0 -18.5,6.8 -18.5,15 l -16.7,0 0,-45.1 134,0 0,0 z"
         inkscape:connector-curvature="0"
         style="fill:#ffffff" />
    </g>
  </g>
</svg>
