<?xml version="1.0" encoding="UTF-8" standalone="no"?>
<!-- Created with Inkscape (http://www.inkscape.org/) -->

<svg
   xmlns:dc="http://purl.org/dc/elements/1.1/"
   xmlns:cc="http://creativecommons.org/ns#"
   xmlns:rdf="http://www.w3.org/1999/02/22-rdf-syntax-ns#"
   xmlns:svg="http://www.w3.org/2000/svg"
   xmlns="http://www.w3.org/2000/svg"
   xmlns:sodipodi="http://sodipodi.sourceforge.net/DTD/sodipodi-0.dtd"
   xmlns:inkscape="http://www.inkscape.org/namespaces/inkscape"
   width="60%"
   height="60%"
   viewBox="0 0 851 315"
   id="svg2"
   version="1.1"
   inkscape:version="0.91 r13725"
   sodipodi:docname="logo.svg"
   inkscape:export-filename="D:\Dropbox (ORNL)\UT\myCPP\logo-idea-2-orange.png"
   inkscape:export-xdpi="126.91"
   inkscape:export-ydpi="126.91">
  <defs
     id="defs4" />
  <sodipodi:namedview
     id="base"
     pagecolor="#ffffff"
     bordercolor="#666666"
     borderopacity="1.0"
     inkscape:pageopacity="0.0"
     inkscape:pageshadow="2"
     inkscape:zoom="0.7"
     inkscape:cx="277.43189"
     inkscape:cy="111.21825"
     inkscape:document-units="px"
     inkscape:current-layer="g4151"
     showgrid="false"
     units="px"
     inkscape:window-width="1366"
     inkscape:window-height="715"
     inkscape:window-x="-8"
     inkscape:window-y="-8"
     inkscape:window-maximized="1" />
  <metadata
     id="metadata7">
    <rdf:RDF>
      <cc:Work
         rdf:about="">
        <dc:format>image/svg+xml</dc:format>
        <dc:type
           rdf:resource="http://purl.org/dc/dcmitype/StillImage" />
        <dc:title />
      </cc:Work>
    </rdf:RDF>
  </metadata>
  <g
     inkscape:label="Layer 1"
     inkscape:groupmode="layer"
     id="layer1"
     transform="translate(0,-737.36219)"
     style="display:inline" />
  <g
     inkscape:groupmode="layer"
     id="layer3"
     inkscape:label="shadow"
     style="display:none">
    <path
       style="fill:#2197a9;fill-opacity:1;fill-rule:evenodd;stroke:none;stroke-width:1.08904195px;stroke-linecap:butt;stroke-linejoin:miter;stroke-opacity:1"
       d="m 157.67053,210.17931 c 9.20429,24.98767 86.51902,72.1159 128.48388,106.27653 l 565.95822,0.83683 0.22671,-137.96576 C 838.43091,166.67829 708.36461,20.068636 687.70616,19.779168 l -9.12641,5.86998 -25.93452,36.320725 -8.44552,-7.61146 -14.10211,-12.864638 -8.44388,-6.03363 C 612.65445,26.009531 601.88856,16.700096 596.7786,20.137484 583.37824,26.534238 568.45384,42.951834 561.28778,58.115113 552.13416,51.081248 549.64886,43.464972 537.01824,40.015039 535.18079,53.37918 523.18809,34.936556 513.72571,30.070097 508.61034,25.616321 496.73309,21.703314 491.30014,20.948499 465.36478,22.895053 466.7742,34.064271 449.77043,43.202081 L 434.3656,102.67481 c -5.44612,0.58121 -25.56538,-37.454381 -32.60535,-29.939915 -10.22656,10.915839 -9.36387,34.224505 -22.69819,32.825665 -16.97173,-1.78042 -43.9754,-43.78624 -52.90577,-38.584298 -9.6475,5.619677 10.56347,58.421258 -0.55711,59.120748 -14.86113,0.93477 -27.39029,-58.43348 -57.64489,-55.604418 -19.94838,1.865344 -17.98598,40.028348 -33.90748,36.256528 -14.78039,-3.50149 -22.01229,-29.25681 -38.58062,-24.647822 -8.10058,2.253424 -8.22409,15.467748 -15.65904,18.553212 L 160.65513,67.319473 Z"
       id="path4150"
       inkscape:connector-curvature="0"
       sodipodi:nodetypes="cccccccccccccccccsssssssccc" />
  </g>
  <g
     inkscape:groupmode="layer"
     id="layer2"
     inkscape:label="text"
     style="display:inline">
    <g
       id="g4151"
       transform="translate(-70.608043,-19.626963)">
      <g
         transform="scale(0.98101742,1.0193499)"
         style="font-style:normal;font-variant:normal;font-weight:normal;font-stretch:normal;font-size:144.75209045px;line-height:125%;font-family:Luna;-inkscape-font-specification:'Luna, Normal';text-align:start;letter-spacing:0px;word-spacing:0px;writing-mode:lr-tb;text-anchor:start;fill:#58595b;fill-opacity:1;stroke:#58595b;stroke-width:5;stroke-linecap:butt;stroke-linejoin:miter;stroke-miterlimit:4;stroke-dasharray:none;stroke-opacity:1"
         id="text4139">
        <path
           d="m 174.37464,121.8722 q 1.15802,-2.89505 2.02653,-5.21108 0.86852,-2.46078 1.88178,-4.92157 2.17128,-5.06632 4.34256,-10.13265 2.17128,-5.06632 4.77682,-9.843139 2.02653,-3.763554 5.06632,-6.658596 3.18455,-3.039794 7.38236,-4.632067 3.18455,-1.447521 6.80335,0 1.59227,0.72376 3.03979,1.447521 1.44752,0.72376 3.0398,1.447521 1.88177,1.013264 2.89504,2.750289 1.15802,1.592273 2.31603,3.184546 8.10612,12.882935 8.25087,27.937155 0,2.46078 0,4.92157 0.14475,2.46079 0.28951,4.92157 0,0.28951 0.43425,1.73703 1.15802,-2.89505 2.02653,-5.50058 1.01327,-2.75029 2.02653,-5.21108 3.3293,-8.25087 7.09285,-16.06748 3.90831,-7.961366 9.26414,-15.19897 3.6188,-4.921571 7.96136,-8.685125 4.34256,-3.908307 9.84314,-6.803349 3.76356,-2.026529 7.67186,-2.171281 3.90831,-0.289504 7.96137,0.868512 2.17128,0.723761 3.6188,2.316034 1.44752,1.447521 2.46079,3.47405 6.65859,11.724919 7.52711,24.897359 0.2895,5.50058 0.72376,11.00116 0.57901,5.35583 0.86851,10.85641 0.2895,6.65859 0.14475,13.17244 -0.14475,6.51384 -1.15802,13.02768 -0.86851,6.6586 -1.01326,13.3172 0,6.65859 0.2895,13.46194 0.28951,3.3293 0.28951,6.6586 0.14475,3.3293 0.43425,6.65859 0,0.86852 0.14476,1.73703 0.14475,0.86851 0.2895,1.73702 0.28951,1.30277 0.14475,2.60554 0,1.15802 -0.86851,2.46079 -0.72376,0.86851 -1.15802,2.02653 -0.2895,1.01326 -0.579,2.02653 -0.57901,1.73702 -1.73703,3.18454 -1.15802,1.44752 -2.60554,1.88178 -2.02653,0.72376 -4.19781,1.59227 -2.17128,0.86851 -4.63206,0.14475 -2.31604,-0.579 -3.0398,-3.32929 -1.44752,-4.77682 -2.31603,-9.55364 -0.86851,-4.92157 -1.01327,-9.9879 0,-3.76355 -0.14475,-7.52711 0,-3.9083 0.28951,-7.67186 0.2895,-4.92157 0.72376,-9.84314 0.43425,-4.92157 0.72376,-9.84314 0.2895,-3.18455 0.2895,-6.22434 0,-3.03979 0.2895,-6.22434 0.28951,-3.3293 0.86852,-6.80335 0.57901,-3.47405 1.01326,-6.80335 0.57901,-4.63206 1.15802,-8.97463 0.57901,-4.48731 1.01326,-9.11938 0.28951,-4.19781 0.43426,-8.395619 0.2895,-4.197811 0.57901,-8.395621 0.2895,-4.197811 -0.72376,-7.527109 -0.43426,-1.447521 -1.88178,-1.302769 -1.59227,0.144752 -3.03979,0.579009 -1.44752,0.289504 -2.89505,1.158016 -6.07958,3.763555 -10.42215,9.119382 -4.19781,5.211075 -7.67186,11.290661 -2.46078,4.48732 -4.77682,9.11938 -2.17128,4.63207 -4.34256,9.40889 -1.59227,3.47405 -2.89504,7.09285 -1.30277,3.47405 -2.46079,7.09285 -1.59227,5.06633 -2.89504,10.13265 -1.30277,4.92157 -2.46078,9.98789 -0.86852,3.90831 -1.30277,7.81662 -0.43426,3.9083 -0.72376,7.81661 -0.57901,6.36909 -1.01327,12.59343 -0.2895,6.22434 -1.01326,12.59343 -0.28951,3.47405 -1.88178,6.51385 -1.59227,3.03979 -4.92157,5.06632 -1.01326,0.57901 -1.88178,1.30277 -0.86851,0.57901 -1.73702,1.30277 -0.28951,0.2895 -0.57901,0.43426 -0.2895,0 -0.57901,0.14475 -2.17128,0.72376 -5.21107,-0.43426 -3.0398,-1.15802 -4.19781,-3.18454 -1.88178,-2.89505 -2.60554,-5.93484 -0.57901,-3.18455 -1.01327,-6.51384 -0.86851,-5.06633 -1.44752,-10.13265 -0.43425,-5.06632 -0.2895,-10.2774 0,-0.86851 -0.14475,-1.73702 0,-1.01327 -0.14476,-2.02653 -0.14475,-1.01327 -0.14475,-1.88178 0,-1.01327 0.72376,-1.88178 0.14475,-0.2895 0.14475,-1.01326 -0.14475,-1.73703 -0.43425,-3.3293 -0.14475,-1.73703 -0.14475,-3.3293 0,-2.17128 0.14475,-4.34256 0.14475,-2.17128 0.14475,-4.48732 0.14475,-0.72376 0,-1.59227 -0.14475,-0.86851 -0.14475,-1.73702 l 1.30277,-15.19897 q 0.2895,-3.0398 0.579,-5.93484 0.28951,-3.03979 0.57901,-6.07959 0.43426,-3.76355 0.86852,-7.52711 0.43425,-3.9083 0.72376,-7.67186 0.2895,-3.32929 0.14475,-6.513841 0,-3.184546 -1.30277,-6.513844 -2.46079,2.026529 -4.48732,4.342563 -2.02652,2.171281 -3.47405,5.066322 -0.86851,1.73703 -2.02652,3.47405 -1.15802,1.59227 -2.17129,3.3293 -2.02653,3.76355 -3.32929,7.81661 -1.30277,3.90831 -2.46079,7.96137 -1.15802,3.76355 -2.17128,7.52711 -0.86851,3.6188 -2.02653,7.38235 -1.59227,6.07959 -2.75029,12.01443 -1.01326,5.93483 -1.15802,12.30392 0,2.75029 -0.2895,5.50058 -0.28951,2.60554 -0.28951,5.35583 0,4.48732 0.14476,8.97463 0.14475,4.34256 0.43425,8.68513 0.14476,2.46078 0,5.06632 -0.14475,2.46078 0.14476,4.92157 0.14475,1.01326 0,2.02653 0,0.86851 0,1.88178 0,2.46078 -0.57901,4.19781 -0.57901,1.59227 -1.73703,2.46078 -1.01326,0.86851 -2.60554,1.30277 -1.59227,0.57901 -3.18454,0.57901 -1.44752,0 -3.0398,0 -1.01326,0 -1.88177,-0.2895 -0.86852,-0.43426 -1.73703,-0.86852 -1.15801,-0.43425 -1.73702,-0.86851 -0.43426,-0.43426 -1.15802,-1.44752 -2.31603,-3.3293 -3.18455,-7.09285 -0.579,-2.46079 -1.01326,-4.77682 -0.43426,-2.46079 -0.86851,-4.92157 -0.72376,-5.06633 -1.44752,-10.13265 -0.72376,-5.21107 -1.44752,-10.2774 -0.72377,-5.50058 -1.44753,-10.71165 -0.579,-5.35583 -0.86851,-10.85641 -1.30277,-18.23876 -1.73702,-36.47753 -0.28951,-6.80334 -0.14476,-13.46194 0,-6.658597 0.14476,-13.606697 0.14475,-5.066323 0.43425,-10.132646 0.28951,-5.066324 0.57901,-10.132647 0,-1.737025 1.73703,-2.460785 2.46078,-1.302769 5.35582,-0.579009 3.0398,0.579009 4.63207,3.039794 1.59227,2.316034 2.75029,4.776819 1.15802,2.316034 1.88178,5.066323 0.43425,2.460786 1.15801,4.921571 0.72376,2.316034 1.01327,4.776819 0.57901,3.184546 0.72376,6.513845 0.2895,3.184546 0.72376,6.513843 0.57901,5.06632 0.57901,10.42215 0.14475,5.21108 1.73702,10.71166 z"
           style="font-style:normal;font-variant:normal;font-weight:normal;font-stretch:normal;font-size:144.75209045px;line-height:125%;font-family:Luna;-inkscape-font-specification:'Luna, Normal';text-align:start;writing-mode:lr-tb;text-anchor:start;fill:#58595b;stroke:#58595b;stroke-width:5;stroke-miterlimit:4;stroke-dasharray:none;stroke-opacity:1"
           id="path4144" />
        <path
           d="m 399.51616,95.672067 q -2.17128,3.763555 -4.48732,7.382353 -2.17128,3.47405 -3.9083,7.38236 -3.47405,7.81661 -6.80335,15.77798 -3.3293,7.81661 -6.6586,15.77798 -1.59227,3.76355 -2.75029,7.52711 -1.15801,3.76355 -2.60553,7.5271 -1.30277,3.3293 -2.60554,6.51385 -1.30277,3.03979 -2.75029,6.22434 -1.59227,3.6188 -4.34256,5.93483 -2.60554,2.17128 -6.22434,3.61881 -1.88178,0.72376 -3.47405,0 -1.59228,-0.86852 -3.18455,-1.44753 -5.64533,-1.88177 -8.82988,-7.81661 -2.75029,-5.21107 -4.34256,-10.71165 -1.59227,-5.50058 -3.03979,-11.14591 -2.02653,-7.81662 -2.75029,-15.48848 -0.72376,-7.81661 -1.44753,-15.77798 -0.86851,-7.5271 -1.15801,-15.05421 -0.28951,-7.527111 -0.28951,-15.05422 0.14476,-3.618802 0.28951,-7.092852 0.2895,-3.618803 0.57901,-7.092853 0.14475,-1.881777 0.86851,-3.908306 0.86851,-2.75029 3.03979,-3.474051 2.31604,-0.868512 4.77682,0.723761 2.89504,1.592273 4.77682,5.066323 3.03979,6.079588 4.05306,12.303928 1.01326,6.22434 1.59227,12.738184 0.43426,6.369096 1.01327,12.738186 0.72376,6.22434 1.15801,12.59343 0.72376,7.52711 2.02653,14.76471 1.30277,7.23761 2.89504,14.61996 0.28951,1.59228 0.86852,3.3293 0.57901,1.73703 1.30277,3.76356 0.43425,-0.86852 0.72376,-1.30277 0.2895,-0.57901 0.57901,-1.15802 2.46078,-6.80335 4.63206,-13.46194 2.31604,-6.80335 5.06633,-13.6067 4.63206,-11.43542 9.69839,-22.58133 5.21107,-11.145907 12.59343,-21.278554 1.01326,-1.44752 2.17128,-2.750289 1.15802,-1.447521 2.31603,-2.75029 1.59227,-2.026529 3.76356,-3.329298 2.17128,-1.447521 4.63206,-2.316033 2.17128,-0.868513 4.48732,-2.171282 2.31603,-1.447521 4.48731,-0.868512 2.31604,0.434256 3.47405,2.895041 1.15802,2.895042 2.02653,5.790084 0.86851,2.75029 1.59228,5.645332 2.75028,12.303927 3.76355,24.607851 1.15802,12.30393 1.88178,24.75261 0.86851,15.34372 1.01326,30.54269 0.28951,15.19897 -0.43426,30.54269 -0.43425,8.68513 -1.59227,17.2255 -1.01326,8.39562 -2.60554,16.936 -1.01326,5.21107 -2.75029,10.13264 -1.59227,4.92157 -3.6188,9.84315 -2.75029,6.36909 -6.51384,11.86967 -3.6188,5.64533 -8.68513,10.5669 -14.33045,13.46194 -33.58248,17.2255 -10.13265,1.88178 -19.10728,-0.72376 -8.82988,-2.46079 -16.93599,-8.54038 -8.82988,-6.65859 -14.47521,-15.48847 -5.50058,-8.68512 -8.68513,-19.10728 -1.59227,-5.06632 -1.44752,-10.13264 0,-5.06632 1.30277,-10.13265 0.57901,-2.31603 2.02653,-4.34256 1.44752,-2.02653 2.60554,-4.05306 1.59227,-2.75029 3.9083,-4.48731 2.31604,-1.88178 4.63207,-3.90831 0.86851,-0.72376 1.73703,-1.44752 0.86851,-0.72376 1.88177,-1.44752 0.72376,-0.28951 1.59228,-0.57901 1.01326,-0.2895 1.44752,0 0.72376,0.43426 1.01326,1.44752 0.43426,0.86851 0.72376,1.73703 0.14475,0.86851 -0.14475,1.73702 -0.14475,0.86851 -0.43426,1.73703 -2.60553,11.29066 0.28951,20.98905 3.03979,9.84314 10.42215,18.38351 6.65859,7.81662 16.64649,9.55364 6.6586,1.15802 12.30393,-1.01326 5.64533,-2.02653 10.5669,-6.36909 4.77682,-4.34257 7.52711,-9.84315 2.89504,-5.35582 4.63206,-11.43541 3.0398,-10.42215 4.34257,-21.27856 1.01326,-9.55364 1.59227,-19.10727 0.72376,-9.69839 1.30277,-19.39679 0.43426,-7.09285 0.43426,-14.1857 0,-7.09285 0.2895,-14.1857 0.2895,-8.82988 0.72376,-17.51501 0.43426,-8.82988 0.86851,-17.65975 0.14475,-3.0398 0.14475,-6.07959 0.14476,-3.039794 0.28951,-5.934836 -0.57901,-0.289504 -0.72376,-0.434257 z"
           style="font-style:normal;font-variant:normal;font-weight:normal;font-stretch:normal;font-size:144.75209045px;line-height:125%;font-family:Luna;-inkscape-font-specification:'Luna, Normal';text-align:start;writing-mode:lr-tb;text-anchor:start;fill:#58595b;stroke:#58595b;stroke-width:5;stroke-miterlimit:4;stroke-dasharray:none;stroke-opacity:1"
           id="path4146" />
      </g>
      <g
         style="font-style:normal;font-variant:normal;font-weight:bold;font-stretch:normal;font-size:208.33332825px;line-height:125%;font-family:montserrat;-inkscape-font-specification:'montserrat, Bold';text-align:start;letter-spacing:0px;word-spacing:0px;writing-mode:lr-tb;text-anchor:start;fill:#ff8200;fill-opacity:1;stroke:none;stroke-width:5;stroke-linecap:butt;stroke-linejoin:miter;stroke-miterlimit:4;stroke-dasharray:none;stroke-opacity:1"
         id="text4147">
        <path
           d="m 516.22022,173.39285 q 23.95834,0 39.16667,-18.95833 l 20.83333,21.45833 q -24.79166,27.91667 -58.54166,27.91667 -33.54167,0 -55.41667,-21.25 -21.66667,-21.25 -21.66667,-53.54167 0,-32.499995 22.08334,-54.166661 22.29166,-21.666666 54.375,-21.666666 35.83333,0 59.99999,27.291666 l -20.20833,22.916671 q -15.41666,-19.166671 -38.33333,-19.166671 -18.33333,0 -31.45833,12.083333 -12.91667,11.874998 -12.91667,32.291668 0,20.20833 12.29167,32.5 12.29166,12.29166 29.79166,12.29166 z"
           style="font-style:normal;font-variant:normal;font-weight:bold;font-stretch:normal;font-size:208.33332825px;line-height:125%;font-family:montserrat;-inkscape-font-specification:'montserrat, Bold';text-align:start;writing-mode:lr-tb;text-anchor:start;fill:#ff8200;stroke:none;stroke-linejoin:miter"
           id="path4149" />
        <path
           d="m 653.39145,56.517856 q 33.54166,0 48.75,13.125 15.41666,12.916666 15.41666,40.000004 0,26.87499 -15.83333,39.37499 -15.625,12.5 -47.91667,12.5 l -19.375,0 0,40.625 -32.49999,0 0,-145.624994 51.45833,0 z m 2.91666,76.874994 q 16.25,0 22.08334,-6.45833 5.83333,-6.66667 5.83333,-19.16666 0,-12.708338 -7.70833,-17.916671 -7.5,-5.416667 -23.54167,-5.416667 l -18.54167,0 0,48.958328 21.875,0 z"
           style="font-style:normal;font-variant:normal;font-weight:bold;font-stretch:normal;font-size:208.33332825px;line-height:125%;font-family:montserrat;-inkscape-font-specification:'montserrat, Bold';text-align:start;writing-mode:lr-tb;text-anchor:start;fill:#ff8200;stroke:none;stroke-linejoin:miter"
           id="path4151" />
        <path
           d="m 794.1792,56.517856 q 33.54166,0 48.75,13.125 15.41666,12.916666 15.41666,40.000004 0,26.87499 -15.83333,39.37499 -15.625,12.5 -47.91667,12.5 l -19.375,0 0,40.625 -32.49999,0 0,-145.624994 51.45833,0 z m 2.91666,76.874994 q 16.25,0 22.08334,-6.45833 5.83333,-6.66667 5.83333,-19.16666 0,-12.708338 -7.70833,-17.916671 -7.5,-5.416667 -23.54167,-5.416667 l -18.54167,0 0,48.958328 21.875,0 z"
           style="font-style:normal;font-variant:normal;font-weight:bold;font-stretch:normal;font-size:208.33332825px;line-height:125%;font-family:montserrat;-inkscape-font-specification:'montserrat, Bold';text-align:start;writing-mode:lr-tb;text-anchor:start;fill:#ff8200;stroke:none;stroke-linejoin:miter"
           id="path4153" />
      </g>
    </g>
  </g>
</svg>
